<?xml version="1.0" encoding="utf-8"?>
<!-- Generator: Adobe Illustrator 28.3.0, SVG Export Plug-In . SVG Version: 6.00 Build 0)  -->
<svg version="1.1" id="Capa_1" xmlns="http://www.w3.org/2000/svg" xmlns:xlink="http://www.w3.org/1999/xlink" x="0px" y="0px"
	 viewBox="0 0 86.3 86.3" style="enable-background:new 0 0 86.3 86.3;" xml:space="preserve">
<style type="text/css">
	.st0{fill:#06396E;}
	.st1{fill:#919191;stroke:#B3B3B3;stroke-width:1.4112;stroke-miterlimit:10;}
	.st2{fill:#FFFFFF;}
	.st3{fill:#FFFFFF;stroke:#808285;stroke-width:0.126;stroke-miterlimit:10;}
	.st4{fill:#DA2128;}
	.st5{fill:none;stroke:#6E6E6E;stroke-width:0.9891;stroke-miterlimit:10;}
	.st6{fill:none;stroke:#6E6E6E;stroke-width:0.9891;stroke-miterlimit:10;stroke-dasharray:1.9524,2.9285;}
	.st7{fill:#6E6E6E;}
	.st8{fill:#6E6E6E;stroke:#6E6E6E;stroke-width:0.2335;stroke-miterlimit:10;}
	.st9{fill:#06396E;stroke:#06396E;stroke-miterlimit:10;}
	.st10{fill:none;stroke:#06396E;stroke-miterlimit:10;}
	.st11{fill:none;stroke:#B3B3B3;stroke-width:0.7391;stroke-miterlimit:10;}
	.st12{fill:#003D71;stroke:#003D71;stroke-width:0.9909;stroke-miterlimit:10;}
	.st13{fill:#F6F6F6;stroke:#B3B3B3;stroke-width:0.7401;stroke-miterlimit:10;}
	.st14{fill:none;stroke:#B3B3B3;stroke-width:0.7408;stroke-miterlimit:10;}
	.st15{fill:#A6A6A6;}
	.st16{fill:none;stroke:#B3B3B3;stroke-width:0.7401;stroke-miterlimit:10;}
	.st17{fill:none;stroke:#B3B3B3;stroke-width:0.7406;stroke-miterlimit:10;}
	.st18{fill:#003D71;stroke:#003D71;stroke-width:0.9922;stroke-miterlimit:10;}
	.st19{fill:none;stroke:#B3B3B3;stroke-width:0.7641;stroke-miterlimit:10;}
	.st20{fill:#A1A1A1;}
	.st21{fill:none;stroke:#B3B3B3;stroke-width:0.8857;stroke-miterlimit:10;}
	.st22{fill:none;stroke:#B3B3B3;stroke-width:0.8467;stroke-miterlimit:10;}
	.st23{fill:#003D71;stroke:#003D71;stroke-width:0.2957;stroke-miterlimit:10;}
	.st24{fill:none;stroke:#B3B3B3;stroke-width:0.735;stroke-miterlimit:10;}
	.st25{fill:none;stroke:#0085FF;stroke-width:1.1295;stroke-miterlimit:10;}
	.st26{fill:#0085FF;}
	.st27{fill:none;stroke:#FFFFFF;stroke-width:2.4765;stroke-linecap:round;stroke-linejoin:round;stroke-miterlimit:10;}
	.st28{opacity:0.42;fill:#F2F3F7;}
	.st29{fill:#0CB900;}
	.st30{fill:none;stroke:#FFFFFF;stroke-width:4.1151;stroke-linecap:round;stroke-linejoin:round;stroke-miterlimit:10;}
	.st31{fill:#003D71;}
	.st32{fill:#666666;}
	.st33{opacity:0.28;}
	.st34{filter:url(#Adobe_OpacityMaskFilter);}
	.st35{mask:url(#SVGID_1_);}
	.st36{fill:#003B81;}
	.st37{fill:#D1CBC9;}
	.st38{fill:#808285;}
	.st39{fill:none;stroke:#808285;stroke-width:0.252;stroke-miterlimit:10;}
	.st40{opacity:0.11;}
	.st41{fill:url(#SVGID_00000065776066068887292680000016733956551840835504_);}
	.st42{fill:url(#SVGID_00000084502060488192689380000006674368612403943868_);}
	.st43{fill:url(#SVGID_00000055696675174063675010000013675300465214857636_);}
	.st44{fill:url(#SVGID_00000017487469272199309040000003258097941884310207_);}
	.st45{fill:url(#SVGID_00000142148079197025151600000001289067848836433566_);}
</style>
<g>
	<path class="st7" d="M43.15,86.3C19.36,86.3,0,66.94,0,43.15S19.36,0,43.15,0S86.3,19.36,86.3,43.15S66.94,86.3,43.15,86.3z
		 M43.15,0.8C19.8,0.8,0.8,19.8,0.8,43.15s19,42.35,42.35,42.35s42.35-19,42.35-42.35S66.5,0.8,43.15,0.8z"/>
</g>
<path class="st7" d="M48.16,43.17c3.19-1.5,5.42-4.73,5.43-8.48c0.02-5.19-4.18-9.43-9.37-9.45c-5.19-0.02-9.43,4.18-9.45,9.37
	c-0.01,3.75,2.18,7,5.36,8.52c-5.85,1.71-10.15,7.11-10.17,13.5c0,0.41,0.33,0.75,0.75,0.75s0.75-0.33,0.75-0.75
	c0.03-6.97,5.72-12.61,12.68-12.58s12.61,5.72,12.58,12.68c0,0.41,0.33,0.75,0.75,0.75s0.75-0.33,0.75-0.75
	C58.25,50.36,54,44.93,48.16,43.17z M36.27,34.63c0.02-4.36,3.58-7.9,7.94-7.88c4.36,0.02,7.9,3.58,7.88,7.94
	c-0.02,4.36-3.58,7.9-7.94,7.88C39.79,42.55,36.25,38.99,36.27,34.63z"/>
</svg>
