<?xml version="1.0" encoding="UTF-8"?>
<svg id="Capa_1" data-name="Capa 1" xmlns="http://www.w3.org/2000/svg" version="1.1" viewBox="0 0 200 200">
  <defs>
    <style>
      .cls-1 {
        fill: #da2128;
        stroke-width: 0px;
      }
    </style>
  </defs>
  <path class="cls-1" d="M185.4,101.3c-.8,2.7-1.9,5.3-4,7.3-.3.3-.3,1.1-.3,1.7,0,16.9,0,33.7,0,50.6,0,8.8-5.3,14.1-14.1,14.1-8.3,0-16.7,0-25,0-.7,0-1.5,0-1.9-.3-.7-.6-1.4-1.6-1.6-2.4-.1-1.2.8-2,2-2.2.5,0,1.1,0,1.7,0,8.4,0,16.8,0,25.2,0,5.5,0,8.7-3.2,8.7-8.7,0-15.6,0-31.3,0-46.9,0-.5,0-1,0-1.8-19.6,12.1-41.3,15.9-63.6,17.4-1.5,9.4-5.8,13.7-13.2,13.4-6.7-.3-11-5.2-11.7-13.3-2.8-.2-5.7-.5-8.5-.7-9.7-.9-19.3-2.5-28.7-5.1-1.9-.5-2.8-1.7-2.4-3.2.4-1.5,1.7-2.1,3.4-1.7,4.1.9,8.1,2.2,12.2,2.8,7.9,1.3,15.8,2.2,24.1,3.3,0-2,0-3.6,0-5.2,0-4.5,2.3-6.9,6.9-6.9,3.8,0,7.6,0,11.3,0,3.8,0,6.3,2.5,6.3,6.2,0,1.8,0,3.5,0,5.5,4.3-.4,8.4-.6,12.4-1.1,10.6-1.2,20.9-3.3,31-7,7.6-2.7,14.7-6.2,21.2-11.1,2.4-1.9,3.6-4.2,3.6-7.3,0-11.3,0-22.6,0-33.9,0-5.2-3.3-8.4-8.4-8.4-48,0-96,0-144,0-5.2,0-8.4,3.3-8.4,8.5,0,11.3,0,22.6,0,33.9,0,3.1,1.2,5.4,3.6,7.3,4.9,3.7,10.3,6.6,15.9,9,.5.2,1,.4,1.5.7,1.5.7,2.1,2,1.6,3.4-.5,1.3-2,1.9-3.5,1.2-2.5-1.1-5-2.2-7.4-3.4-2.4-1.2-4.7-2.6-7.2-4,0,.6,0,1.1,0,1.7,0,15.6,0,31.1,0,46.7,0,5.7,3.2,8.9,8.9,8.9,32.1,0,64.2,0,96.3,0,.6,0,1.2,0,1.8,0,1.5.1,2.4,1.1,2.5,2.4,0,1.3-.9,2.4-2.4,2.6-.4,0-.8,0-1.2,0-32.4,0-64.8,0-97.3,0-7,0-12.3-4.2-13.5-10.7-.2-1.1-.2-2.2-.2-3.3,0-16.8,0-33.6,0-50.4,0-1.1-.2-2-1-2.8-2.2-2.3-3.3-5.2-3.3-8.3,0-11.8,0-23.7,0-35.5,0-7.1,5.7-12.6,12.8-12.7,13.2,0,26.5,0,39.7,0,.6,0,1.2,0,2,0,0-1.3,0-2.4,0-3.6,0-2.7,0-5.3,0-8,0-3.3,1.4-5.7,4.1-7.5,6.5-4.1,13.6-6.2,21.2-6.9,3-.3,6-.2,9-.2,1.6,0,2.5,1.3,2.3,2.7-.2,1.5-1.1,2.2-2.6,2.3-.4,0-.9,0-1.3,0-5.8-.2-11.6.4-17.1,2.3-3.1,1.1-6,2.6-8.9,4.2-.8.4-1.6,1.6-1.6,2.5-.2,4,0,8,0,12.1h5.8c0-2.6,0-5.2,0-7.8,0-1.9.6-3,2.4-3.7,11.8-5,23.6-5,35.4,0,1.5.6,2.2,1.7,2.2,3.4,0,2.7,0,5.3,0,8.1h5.7c0-.4.2-.8.2-1.2,0-3.4,0-6.8,0-10.2,0-1.6-.5-2.8-1.9-3.4-3.3-1.5-6.6-2.9-9.9-4.4-.5-.2-1-.2-1.4-.4-1.6-.5-2.3-1.8-1.9-3.2.4-1.3,1.7-2,3.2-1.6,4.5,1.2,8.9,2.9,12.8,5.5,2.7,1.7,4.1,4.2,4,7.4,0,3.2,0,6.5,0,9.7,0,.6,0,1.2,0,2h2.1c12.7,0,25.5,0,38.2,0,7.7,0,12,3.2,14.1,10.6,0,.2.1.3.2.4v39ZM85.1,51.1h29.9c0-2.2,0-4.4,0-6.5,0-.4-.5-1-.9-1.1-9.3-3.5-18.6-3.5-28,0-.4.2-.9.7-.9,1.1,0,2.1,0,4.3,0,6.5ZM107.3,125.6c0-1.8,0-3.7,0-5.5,0-1.3-.4-1.9-1.8-1.9-3.6,0-7.2,0-10.8,0-1.4,0-1.9.4-1.9,1.8,0,3.6,0,7.2,0,10.8,0,4.3,3.1,7.4,7.1,7.4,4.2,0,7.2-3,7.4-7.4,0-1.8,0-3.6,0-5.3Z"/>
</svg>