<?xml version="1.0" encoding="utf-8"?>
<!-- Generator: Adobe Illustrator 28.3.0, SVG Export Plug-In . SVG Version: 6.00 Build 0)  -->
<svg version="1.1" id="Capa_1" xmlns="http://www.w3.org/2000/svg" xmlns:xlink="http://www.w3.org/1999/xlink" x="0px" y="0px"
	 viewBox="0 0 86.3 86.3" style="enable-background:new 0 0 86.3 86.3;" xml:space="preserve">
<style type="text/css">
	.st0{fill:#06396E;}
	.st1{fill:#919191;stroke:#B3B3B3;stroke-width:1.4112;stroke-miterlimit:10;}
	.st2{fill:#FFFFFF;}
	.st3{fill:#FFFFFF;stroke:#808285;stroke-width:0.126;stroke-miterlimit:10;}
	.st4{fill:#DA2128;}
	.st5{fill:none;stroke:#6E6E6E;stroke-width:0.9891;stroke-miterlimit:10;}
	.st6{fill:none;stroke:#6E6E6E;stroke-width:0.9891;stroke-miterlimit:10;stroke-dasharray:1.9524,2.9285;}
	.st7{fill:#6E6E6E;}
	.st8{fill:#6E6E6E;stroke:#6E6E6E;stroke-width:0.2335;stroke-miterlimit:10;}
	.st9{fill:#06396E;stroke:#06396E;stroke-miterlimit:10;}
	.st10{fill:none;stroke:#06396E;stroke-miterlimit:10;}
	.st11{fill:none;stroke:#B3B3B3;stroke-width:0.7391;stroke-miterlimit:10;}
	.st12{fill:#003D71;stroke:#003D71;stroke-width:0.9909;stroke-miterlimit:10;}
	.st13{fill:#F6F6F6;stroke:#B3B3B3;stroke-width:0.7401;stroke-miterlimit:10;}
	.st14{fill:none;stroke:#B3B3B3;stroke-width:0.7408;stroke-miterlimit:10;}
	.st15{fill:#A6A6A6;}
	.st16{fill:none;stroke:#B3B3B3;stroke-width:0.7401;stroke-miterlimit:10;}
	.st17{fill:none;stroke:#B3B3B3;stroke-width:0.7406;stroke-miterlimit:10;}
	.st18{fill:#003D71;stroke:#003D71;stroke-width:0.9922;stroke-miterlimit:10;}
	.st19{fill:none;stroke:#B3B3B3;stroke-width:0.7641;stroke-miterlimit:10;}
	.st20{fill:#A1A1A1;}
	.st21{fill:none;stroke:#B3B3B3;stroke-width:0.8857;stroke-miterlimit:10;}
	.st22{fill:none;stroke:#B3B3B3;stroke-width:0.8467;stroke-miterlimit:10;}
	.st23{fill:#003D71;stroke:#003D71;stroke-width:0.2957;stroke-miterlimit:10;}
	.st24{fill:none;stroke:#B3B3B3;stroke-width:0.735;stroke-miterlimit:10;}
	.st25{fill:none;stroke:#0085FF;stroke-width:1.1295;stroke-miterlimit:10;}
	.st26{fill:#0085FF;}
	.st27{fill:none;stroke:#FFFFFF;stroke-width:2.4765;stroke-linecap:round;stroke-linejoin:round;stroke-miterlimit:10;}
	.st28{opacity:0.42;fill:#F2F3F7;}
	.st29{fill:#0CB900;}
	.st30{fill:none;stroke:#FFFFFF;stroke-width:4.1151;stroke-linecap:round;stroke-linejoin:round;stroke-miterlimit:10;}
	.st31{fill:#003D71;}
	.st32{fill:#666666;}
	.st33{opacity:0.28;}
	.st34{filter:url(#Adobe_OpacityMaskFilter);}
	.st35{mask:url(#SVGID_1_);}
	.st36{fill:#003B81;}
	.st37{fill:#D1CBC9;}
	.st38{fill:#808285;}
	.st39{fill:none;stroke:#808285;stroke-width:0.252;stroke-miterlimit:10;}
	.st40{opacity:0.11;}
	.st41{fill:url(#SVGID_00000133529474987628508030000014419969865958629054_);}
	.st42{fill:url(#SVGID_00000139277144344268771380000002350598384857868453_);}
	.st43{fill:url(#SVGID_00000091732863132482894150000009440532059427217828_);}
	.st44{fill:url(#SVGID_00000085962832469240777270000002447139655613102218_);}
	.st45{fill:url(#SVGID_00000178921088755445761960000018216015412322373540_);}
</style>
<g>
	<path class="st7" d="M43.15,86.3C19.36,86.3,0,66.94,0,43.15S19.36,0,43.15,0S86.3,19.36,86.3,43.15S66.94,86.3,43.15,86.3z
		 M43.15,0.8C19.8,0.8,0.8,19.8,0.8,43.15s19,42.35,42.35,42.35s42.35-19,42.35-42.35S66.5,0.8,43.15,0.8z"/>
</g>
<g>
	<g>
		<path class="st7" d="M50.59,27.72c0,0.53,0,1.01,0,1.5c-0.01,0.49-0.16,0.65-0.64,0.65c-4.31,0-8.62,0-12.93,0
			c-0.51,0-0.69-0.2-0.69-0.71c0-0.46,0-0.92,0-1.42c-0.13-0.01-0.26-0.03-0.38-0.03c-1.4,0-2.81,0-4.21,0
			c-0.95,0-1.42,0.48-1.42,1.43c0,1.52,0,3.04,0,4.56c0,0.51-0.42,0.81-0.77,0.54c-0.14-0.1-0.25-0.33-0.25-0.5
			c-0.02-1.63-0.03-3.27,0-4.91c0.02-1.2,1.02-2.14,2.24-2.16c1.43-0.01,2.86,0,4.29,0c0.15,0,0.31,0,0.47,0
			c0.02-0.24,0.02-0.44,0.05-0.63c0.15-0.72,0.78-1.24,1.54-1.26c0.8-0.01,1.6,0,2.47,0c-0.1-1.3,0.22-2.43,1.32-3.22
			c0.63-0.45,1.34-0.63,2.11-0.56c1.68,0.16,2.59,1.38,2.78,3.78c0.63,0,1.27,0,1.91,0c1.57,0,1.95,0.33,2.14,1.89
			c0.15,0,0.3,0,0.46,0c1.46,0,2.92-0.01,4.38,0c1.36,0.01,2.34,0.97,2.34,2.33c0,10.27,0,20.54,0,30.81c0,1.33-0.98,2.32-2.31,2.32
			c-7.99,0.01-15.98,0.01-23.96,0c-1.29,0-2.24-0.97-2.24-2.28c0-7.42,0-14.83,0-22.25c0-0.45,0.19-0.69,0.53-0.69
			c0.33,0.01,0.5,0.24,0.5,0.71c0,7.23,0,14.46,0,21.69c0,0.14,0,0.29,0,0.43c0.01,0.84,0.5,1.35,1.33,1.35c7.95,0,15.89,0,23.84,0
			c0.84,0,1.29-0.5,1.29-1.42c0-6.23,0-12.45,0-18.68c0-3.9,0-7.8,0-11.7c0-1.17-0.42-1.59-1.61-1.59
			C53.67,27.72,52.16,27.72,50.59,27.72z M49.56,28.82c0-0.81,0-1.58,0-2.35c0-0.49-0.16-0.64-0.64-0.64c-0.89,0-1.77,0-2.66,0
			c-0.54,0-0.72-0.19-0.73-0.71c0-0.36,0.01-0.72-0.01-1.08c-0.05-1.13-0.97-2-2.07-2c-1.09,0-2.01,0.9-2.05,2.02
			c-0.01,0.36,0,0.72,0,1.08c0,0.55-0.15,0.69-0.68,0.69c-0.9,0-1.8,0-2.7,0c-0.34,0-0.62,0.13-0.64,0.49
			c-0.03,0.83-0.01,1.65-0.01,2.5C41.44,28.82,45.47,28.82,49.56,28.82z"/>
	</g>
	<g>
		<path class="st7" d="M38.53,44.8c0.01,2.39,1.84,4.52,4.31,4.89c2.77,0.41,5.37-1.5,5.77-4.26c0.08-0.57,0.07-1.13-0.03-1.7
			c-0.06-0.36,0.16-0.68,0.49-0.75c0.36-0.07,0.69,0.15,0.75,0.52c0.12,0.67,0.14,1.34,0.05,2.01c-0.2,1.48-0.85,2.74-1.93,3.76
			c-1.23,1.15-2.7,1.74-4.39,1.72c-2.89-0.03-5.31-1.91-6.08-4.7c-0.81-2.94,0.7-6.15,3.5-7.39c1.8-0.8,3.61-0.77,5.4,0.06
			c0.27,0.13,0.42,0.38,0.4,0.64c-0.03,0.27-0.2,0.49-0.46,0.56c-0.18,0.05-0.34,0.02-0.5-0.06c-0.63-0.3-1.29-0.46-1.98-0.5
			c-2.11-0.11-4.12,1.18-4.91,3.14C38.66,43.38,38.54,44.02,38.53,44.8z"/>
		<path class="st7" d="M43.5,45.53c0.05-0.09,0.09-0.16,0.14-0.24c1.31-2.22,3.08-3.96,5.31-5.25c0.27-0.16,0.53-0.15,0.75,0.02
			c0.36,0.28,0.31,0.8-0.07,1.05c-0.56,0.37-1.13,0.71-1.66,1.12c-1.57,1.22-2.79,2.74-3.68,4.52c-0.01,0.03-0.03,0.05-0.04,0.08
			c-0.23,0.45-0.71,0.53-1.07,0.17c-0.64-0.64-1.28-1.28-1.92-1.92c-0.19-0.19-0.38-0.38-0.57-0.57c-0.27-0.27-0.28-0.66-0.02-0.91
			c0.25-0.25,0.65-0.25,0.92,0.02c0.6,0.59,1.19,1.19,1.79,1.78C43.41,45.44,43.45,45.48,43.5,45.53z"/>
	</g>
</g>
</svg>
