<?xml version="1.0" encoding="utf-8"?>
<!-- Generator: Adobe Illustrator 28.3.0, SVG Export Plug-In . SVG Version: 6.00 Build 0)  -->
<svg version="1.1" id="Capa_1" xmlns="http://www.w3.org/2000/svg" xmlns:xlink="http://www.w3.org/1999/xlink" x="0px" y="0px"
	 viewBox="0 0 86.3 86.3" style="enable-background:new 0 0 86.3 86.3;" xml:space="preserve">
<style type="text/css">
	.st0{fill:#06396E;}
	.st1{fill:#919191;stroke:#B3B3B3;stroke-width:1.4112;stroke-miterlimit:10;}
	.st2{fill:#FFFFFF;}
	.st3{fill:#FFFFFF;stroke:#808285;stroke-width:0.126;stroke-miterlimit:10;}
	.st4{fill:#DA2128;}
	.st5{fill:none;stroke:#6E6E6E;stroke-width:0.9891;stroke-miterlimit:10;}
	.st6{fill:none;stroke:#6E6E6E;stroke-width:0.9891;stroke-miterlimit:10;stroke-dasharray:1.9524,2.9285;}
	.st7{fill:#6E6E6E;}
	.st8{fill:#6E6E6E;stroke:#6E6E6E;stroke-width:0.2335;stroke-miterlimit:10;}
	.st9{fill:#06396E;stroke:#06396E;stroke-miterlimit:10;}
	.st10{fill:none;stroke:#06396E;stroke-miterlimit:10;}
	.st11{fill:none;stroke:#B3B3B3;stroke-width:0.7391;stroke-miterlimit:10;}
	.st12{fill:#003D71;stroke:#003D71;stroke-width:0.9909;stroke-miterlimit:10;}
	.st13{fill:#F6F6F6;stroke:#B3B3B3;stroke-width:0.7401;stroke-miterlimit:10;}
	.st14{fill:none;stroke:#B3B3B3;stroke-width:0.7408;stroke-miterlimit:10;}
	.st15{fill:#A6A6A6;}
	.st16{fill:none;stroke:#B3B3B3;stroke-width:0.7401;stroke-miterlimit:10;}
	.st17{fill:none;stroke:#B3B3B3;stroke-width:0.7406;stroke-miterlimit:10;}
	.st18{fill:#003D71;stroke:#003D71;stroke-width:0.9922;stroke-miterlimit:10;}
	.st19{fill:none;stroke:#B3B3B3;stroke-width:0.7641;stroke-miterlimit:10;}
	.st20{fill:#A1A1A1;}
	.st21{fill:none;stroke:#B3B3B3;stroke-width:0.8857;stroke-miterlimit:10;}
	.st22{fill:none;stroke:#B3B3B3;stroke-width:0.8467;stroke-miterlimit:10;}
	.st23{fill:#003D71;stroke:#003D71;stroke-width:0.2957;stroke-miterlimit:10;}
	.st24{fill:none;stroke:#B3B3B3;stroke-width:0.735;stroke-miterlimit:10;}
	.st25{fill:none;stroke:#0085FF;stroke-width:1.1295;stroke-miterlimit:10;}
	.st26{fill:#0085FF;}
	.st27{fill:none;stroke:#FFFFFF;stroke-width:2.4765;stroke-linecap:round;stroke-linejoin:round;stroke-miterlimit:10;}
	.st28{opacity:0.42;fill:#F2F3F7;}
	.st29{fill:#0CB900;}
	.st30{fill:none;stroke:#FFFFFF;stroke-width:4.1151;stroke-linecap:round;stroke-linejoin:round;stroke-miterlimit:10;}
	.st31{fill:#003D71;}
	.st32{fill:#666666;}
	.st33{opacity:0.28;}
	.st34{filter:url(#Adobe_OpacityMaskFilter);}
	.st35{mask:url(#SVGID_1_);}
	.st36{fill:#003B81;}
	.st37{fill:#D1CBC9;}
	.st38{fill:#808285;}
	.st39{fill:none;stroke:#808285;stroke-width:0.252;stroke-miterlimit:10;}
	.st40{opacity:0.11;}
	.st41{fill:url(#SVGID_00000011010506511008762680000005088749035607812523_);}
	.st42{fill:url(#SVGID_00000108298654466529553320000010369920053082296211_);}
	.st43{fill:url(#SVGID_00000060030851963457484420000004850582655525794731_);}
	.st44{fill:url(#SVGID_00000106127739957198316250000013478304751070712990_);}
	.st45{fill:url(#SVGID_00000165197263416676466080000017072815494813996682_);}
</style>
<g>
	<path class="st7" d="M43.15,86.3C19.36,86.3,0,66.94,0,43.15S19.36,0,43.15,0S86.3,19.36,86.3,43.15S66.94,86.3,43.15,86.3z
		 M43.15,0.8C19.8,0.8,0.8,19.8,0.8,43.15s19,42.35,42.35,42.35s42.35-19,42.35-42.35S66.5,0.8,43.15,0.8z"/>
</g>
<g>
	<path class="st7" d="M30.78,62.1c-0.45-0.16-0.93-0.26-1.34-0.5c-1.29-0.74-1.92-1.9-1.92-3.39c0-5.7,0-11.39,0-17.09
		c0-4.3,0-8.61,0-12.91c0-2.42,1.59-4,4.01-4c5.67,0,11.35,0,17.02-0.01c0.43,0,0.74,0.14,1.04,0.44c2.92,2.93,5.84,5.85,8.76,8.76
		c0.28,0.28,0.41,0.58,0.41,0.98c-0.01,7.92-0.01,15.83-0.01,23.75c0,2.06-1.15,3.47-3.16,3.91c-0.03,0.01-0.06,0.04-0.09,0.05
		C47.27,62.1,39.03,62.1,30.78,62.1z M48.05,25.76c-0.16,0-0.25,0-0.35,0c-5.43,0-10.86,0-16.28,0c-1.44,0-2.34,0.92-2.34,2.37
		c0,10.01,0,20.03,0,30.04c0,1.46,0.91,2.37,2.38,2.37c7.8,0,15.59,0,23.39,0c1.46,0,2.37-0.91,2.37-2.38c0-7.61,0-15.22,0-22.83
		c0-0.13,0-0.26,0-0.41c-0.19,0-0.33,0-0.46,0c-1.6,0-3.21,0.01-4.81,0c-2.28-0.02-3.88-1.63-3.89-3.91c-0.01-1.39,0-2.79,0-4.18
		C48.05,26.49,48.05,26.15,48.05,25.76z M55.96,33.37c-2.12-2.12-4.25-4.25-6.35-6.35c0,1.39-0.05,2.86,0.02,4.32
		c0.05,1.1,0.88,1.89,1.97,2.01c0.43,0.05,0.86,0.02,1.29,0.02C53.93,33.38,54.97,33.37,55.96,33.37z"/>
	<path class="st7" d="M44.55,43.15c2.26,0,4.51-0.01,6.77,0.01c0.25,0,0.57,0.09,0.72,0.26c0.15,0.17,0.2,0.5,0.17,0.74
		c-0.04,0.3-0.3,0.47-0.6,0.52c-0.12,0.02-0.25,0.01-0.37,0.01c-4.45,0-8.91,0-13.36,0c-0.11,0-0.22,0.01-0.33-0.01
		c-0.41-0.05-0.7-0.4-0.69-0.79c0.01-0.39,0.32-0.71,0.73-0.75c0.11-0.01,0.22,0,0.33,0C40.14,43.15,42.34,43.15,44.55,43.15z"/>
	<path class="st7" d="M44.55,41.16c-2.27,0-4.54,0-6.81,0c-0.65,0-1.07-0.54-0.79-1.07c0.1-0.19,0.34-0.32,0.55-0.44
		c0.09-0.06,0.24-0.03,0.36-0.03c4.48,0,8.95,0,13.43,0c0.53,0,0.84,0.18,0.95,0.54c0.16,0.53-0.21,1-0.81,1
		c-1.44,0.01-2.89,0-4.33,0C46.25,41.16,45.4,41.16,44.55,41.16z"/>
	<path class="st7" d="M44.59,46.69c2.26,0,4.51,0,6.77,0c0.56,0,0.87,0.26,0.9,0.71c0.02,0.4-0.21,0.72-0.61,0.8
		c-0.16,0.03-0.32,0.03-0.48,0.03c-4.4,0-8.81,0-13.21,0c-0.16,0-0.32,0-0.48-0.03c-0.39-0.08-0.65-0.43-0.62-0.8
		c0.03-0.38,0.33-0.69,0.73-0.7c0.43-0.02,0.86-0.01,1.29-0.01C40.79,46.69,42.69,46.69,44.59,46.69z"/>
	<path class="st7" d="M34.94,48.24c-0.7-0.01-1.11-0.55-0.84-1.11c0.18-0.38,0.51-0.45,0.89-0.45c0.37,0,0.68,0.1,0.85,0.46
		C36.1,47.72,35.66,48.25,34.94,48.24z"/>
	<path class="st7" d="M34.98,43.15c0.59,0,0.94,0.3,0.92,0.8c-0.02,0.52-0.44,0.8-1.13,0.74c-0.48-0.04-0.79-0.41-0.73-0.88
		C34.08,43.39,34.42,43.15,34.98,43.15z"/>
	<path class="st7" d="M34.96,41.16c-0.65,0-1.03-0.38-0.92-0.93c0.08-0.41,0.43-0.63,1-0.61c0.47,0.01,0.8,0.26,0.86,0.65
		C35.97,40.8,35.6,41.16,34.96,41.16z"/>
</g>
</svg>
