<?xml version="1.0" encoding="utf-8"?>
<!-- Generator: Adobe Illustrator 28.3.0, SVG Export Plug-In . SVG Version: 6.00 Build 0)  -->
<svg version="1.1" id="Capa_1" xmlns="http://www.w3.org/2000/svg" xmlns:xlink="http://www.w3.org/1999/xlink" x="0px" y="0px"
	 viewBox="0 0 275.95 105.85" style="enable-background:new 0 0 275.95 105.85;" xml:space="preserve">
<style type="text/css">
	.st0{fill:#06396E;}
	.st1{fill:#919191;stroke:#B3B3B3;stroke-width:1.4112;stroke-miterlimit:10;}
	.st2{fill:#FFFFFF;}
	.st3{fill:#FFFFFF;stroke:#808285;stroke-width:0.126;stroke-miterlimit:10;}
	.st4{fill:#DA2128;}
	.st5{fill:none;stroke:#6E6E6E;stroke-width:0.9891;stroke-miterlimit:10;}
	.st6{fill:none;stroke:#6E6E6E;stroke-width:0.9891;stroke-miterlimit:10;stroke-dasharray:1.9524,2.9285;}
	.st7{fill:#6E6E6E;}
	.st8{fill:#6E6E6E;stroke:#6E6E6E;stroke-width:0.2335;stroke-miterlimit:10;}
	.st9{fill:#06396E;stroke:#06396E;stroke-miterlimit:10;}
	.st10{fill:none;stroke:#06396E;stroke-miterlimit:10;}
	.st11{fill:none;stroke:#B3B3B3;stroke-width:0.7391;stroke-miterlimit:10;}
	.st12{fill:#003D71;stroke:#003D71;stroke-width:0.9909;stroke-miterlimit:10;}
	.st13{fill:#F6F6F6;stroke:#B3B3B3;stroke-width:0.7401;stroke-miterlimit:10;}
	.st14{fill:none;stroke:#B3B3B3;stroke-width:0.7408;stroke-miterlimit:10;}
	.st15{fill:#A6A6A6;}
	.st16{fill:none;stroke:#B3B3B3;stroke-width:0.7401;stroke-miterlimit:10;}
	.st17{fill:none;stroke:#B3B3B3;stroke-width:0.7406;stroke-miterlimit:10;}
	.st18{fill:#003D71;stroke:#003D71;stroke-width:0.9922;stroke-miterlimit:10;}
	.st19{fill:none;stroke:#B3B3B3;stroke-width:0.7641;stroke-miterlimit:10;}
	.st20{fill:#A1A1A1;}
	.st21{fill:none;stroke:#B3B3B3;stroke-width:0.8857;stroke-miterlimit:10;}
	.st22{fill:none;stroke:#B3B3B3;stroke-width:0.8467;stroke-miterlimit:10;}
	.st23{fill:#003D71;stroke:#003D71;stroke-width:0.2957;stroke-miterlimit:10;}
	.st24{fill:none;stroke:#B3B3B3;stroke-width:0.735;stroke-miterlimit:10;}
	.st25{fill:none;stroke:#0085FF;stroke-width:1.1295;stroke-miterlimit:10;}
	.st26{fill:#0085FF;}
	.st27{fill:none;stroke:#FFFFFF;stroke-width:2.4765;stroke-linecap:round;stroke-linejoin:round;stroke-miterlimit:10;}
	.st28{opacity:0.42;fill:#F2F3F7;}
	.st29{fill:#0CB900;}
	.st30{fill:none;stroke:#FFFFFF;stroke-width:4.1151;stroke-linecap:round;stroke-linejoin:round;stroke-miterlimit:10;}
	.st31{fill:#003D71;}
	.st32{fill:#666666;}
	.st33{opacity:0.28;}
	.st34{filter:url(#Adobe_OpacityMaskFilter);}
	.st35{mask:url(#SVGID_1_);}
	.st36{fill:#003B81;}
	.st37{fill:#D1CBC9;}
	.st38{fill:#808285;}
	.st39{fill:none;stroke:#808285;stroke-width:0.252;stroke-miterlimit:10;}
	.st40{opacity:0.11;}
	.st41{fill:url(#SVGID_00000029022023309961529790000014589940498443061391_);}
	.st42{fill:url(#SVGID_00000021077049148546639780000013466565760953105802_);}
	.st43{fill:url(#SVGID_00000129198592446417939430000012169258724818941621_);}
	.st44{fill:url(#SVGID_00000160185901002213934780000009866592137409880736_);}
	.st45{fill:url(#SVGID_00000101105527755498393340000005711547433304992139_);}
	.st46{opacity:0.1;fill:#DA2128;}
	.st47{opacity:0.2;fill:#DA2128;}
	.st48{clip-path:url(#SVGID_00000052081663698654144710000011480169656841198247_);fill:#DA2128;}
	.st49{clip-path:url(#SVGID_00000000933443542426149830000003763971006237128331_);}
</style>
<g>
	<path class="st4" d="M30.57,82.42l-5.82,3.36l-13.26-7.66l1.85,9.51l11.41,6.59l9.47-5.47c1.75-1.01,2.35-3.24,1.34-4.99
		C34.55,82.01,32.32,81.41,30.57,82.42"/>
	<path class="st4" d="M25.75,0L0,14.87l1.48,7.59L25.75,8.44l33.92,19.58v39.17l-6.29,3.63c-1.75,1.01-2.35,3.25-1.34,4.99
		c1.01,1.75,3.25,2.35,4.99,1.34l9.94-5.74V23.8L25.75,0z"/>
	<g>
		<g>
			<g>
				<path class="st0" d="M89.45,35.71l5.31-0.52c0.32,1.78,0.97,3.09,1.95,3.93c0.98,0.84,2.29,1.25,3.95,1.25
					c1.76,0,3.08-0.37,3.97-1.12c0.89-0.74,1.34-1.61,1.34-2.61c0-0.64-0.19-1.18-0.56-1.63c-0.38-0.45-1.03-0.84-1.96-1.17
					c-0.64-0.22-2.09-0.61-4.37-1.18c-2.92-0.73-4.98-1.62-6.16-2.67c-1.66-1.49-2.49-3.3-2.49-5.44c0-1.38,0.39-2.66,1.17-3.86
					s1.91-2.11,3.37-2.74s3.24-0.94,5.32-0.94c3.39,0,5.95,0.74,7.66,2.23c1.71,1.49,2.62,3.47,2.7,5.95l-5.46,0.24
					c-0.23-1.39-0.73-2.39-1.5-3c-0.77-0.61-1.92-0.91-3.46-0.91c-1.59,0-2.83,0.33-3.72,0.98c-0.58,0.42-0.87,0.98-0.87,1.68
					c0,0.64,0.27,1.19,0.81,1.64c0.69,0.58,2.36,1.18,5.01,1.81c2.65,0.63,4.62,1.28,5.89,1.94c1.27,0.67,2.27,1.59,2.99,2.75
					c0.72,1.16,1.08,2.6,1.08,4.3c0,1.55-0.43,3-1.29,4.35s-2.08,2.36-3.65,3.01c-1.57,0.66-3.53,0.99-5.88,0.99
					c-3.42,0-6.04-0.79-7.87-2.37C90.9,41.04,89.8,38.73,89.45,35.71z"/>
				<path class="st0" d="M128.26,44.5v-2.93c-0.71,1.04-1.65,1.87-2.81,2.47s-2.39,0.9-3.68,0.9c-1.32,0-2.5-0.29-3.54-0.87
					c-1.04-0.58-1.8-1.39-2.27-2.43c-0.47-1.04-0.7-2.49-0.7-4.33V24.93h5.18v9c0,2.75,0.09,4.44,0.29,5.06s0.54,1.11,1.04,1.48
					c0.5,0.36,1.14,0.54,1.92,0.54c0.88,0,1.68-0.24,2.38-0.73c0.7-0.49,1.18-1.09,1.44-1.81c0.26-0.72,0.39-2.48,0.39-5.28v-8.26
					h5.18V44.5H128.26z"/>
				<path class="st0" d="M155.64,44.5h-5.18v-9.99c0-2.11-0.11-3.48-0.33-4.1c-0.22-0.62-0.58-1.1-1.08-1.45
					c-0.5-0.34-1.1-0.52-1.8-0.52c-0.9,0-1.7,0.25-2.42,0.74s-1.2,1.14-1.47,1.95c-0.26,0.81-0.4,2.31-0.4,4.5v8.87h-5.18V24.93
					h4.81v2.88c1.71-2.21,3.86-3.32,6.45-3.32c1.14,0,2.19,0.21,3.13,0.62s1.66,0.94,2.15,1.58s0.82,1.36,1.01,2.18
					c0.19,0.81,0.29,1.97,0.29,3.48V44.5z"/>
				<path class="st0" d="M164.16,30.9l-4.7-0.85c0.53-1.89,1.44-3.29,2.73-4.2c1.29-0.91,3.21-1.36,5.75-1.36
					c2.31,0,4.03,0.27,5.16,0.82s1.93,1.24,2.39,2.08c0.46,0.84,0.69,2.39,0.69,4.64l-0.06,6.05c0,1.72,0.08,2.99,0.25,3.81
					s0.48,1.69,0.93,2.63h-5.13c-0.13-0.34-0.3-0.85-0.5-1.53c-0.09-0.31-0.15-0.51-0.18-0.61c-0.88,0.86-1.83,1.51-2.84,1.94
					c-1.01,0.43-2.08,0.65-3.23,0.65c-2.02,0-3.6-0.55-4.77-1.64s-1.74-2.48-1.74-4.15c0-1.11,0.26-2.09,0.79-2.96
					c0.53-0.87,1.27-1.53,2.22-1.99c0.95-0.46,2.33-0.86,4.12-1.21c2.42-0.45,4.1-0.88,5.03-1.27v-0.52c0-1-0.25-1.71-0.74-2.13
					c-0.49-0.42-1.42-0.64-2.78-0.64c-0.92,0-1.64,0.18-2.16,0.54C164.9,29.35,164.48,29.99,164.16,30.9z M171.09,35.1
					c-0.66,0.22-1.71,0.49-3.15,0.79c-1.44,0.31-2.38,0.61-2.82,0.9c-0.68,0.48-1.01,1.09-1.01,1.83c0,0.73,0.27,1.35,0.81,1.88
					c0.54,0.53,1.23,0.79,2.07,0.79c0.93,0,1.83-0.31,2.67-0.92c0.63-0.47,1.04-1.04,1.24-1.71c0.13-0.44,0.2-1.28,0.2-2.53V35.1z"
					/>
				<path class="st0" d="M178.41,24.93h2.88v-1.48c0-1.65,0.17-2.88,0.53-3.69s1-1.47,1.94-1.98c0.94-0.51,2.13-0.77,3.57-0.77
					c1.47,0,2.92,0.22,4.33,0.66l-0.7,3.61c-0.82-0.2-1.62-0.29-2.38-0.29c-0.75,0-1.29,0.18-1.61,0.53
					c-0.33,0.35-0.49,1.02-0.49,2.02v1.38h3.87V29h-3.87v15.5h-5.18V29h-2.88V24.93z"/>
				<path class="st0" d="M192.65,22.27v-4.79h5.18v4.79H192.65z M192.65,44.5V24.93h5.18V44.5H192.65z"/>
				<path class="st0" d="M202.54,44.5V17.48h5.18V44.5H202.54z"/>
				<path class="st0" d="M99.77,62.68v4.13h-3.54v7.89c0,1.6,0.03,2.53,0.1,2.79c0.07,0.26,0.22,0.48,0.46,0.65
					c0.24,0.17,0.53,0.26,0.88,0.26c0.48,0,1.17-0.17,2.08-0.5l0.44,4.02c-1.21,0.52-2.57,0.77-4.09,0.77
					c-0.93,0-1.78-0.16-2.53-0.47c-0.75-0.31-1.3-0.72-1.65-1.22c-0.35-0.5-0.59-1.17-0.73-2.02c-0.11-0.6-0.17-1.82-0.17-3.65
					v-8.54h-2.38v-4.13h2.38v-3.89l5.2-3.02v6.91H99.77z"/>
				<path class="st0" d="M114.1,76.03l5.16,0.87c-0.66,1.89-1.71,3.33-3.14,4.32s-3.22,1.48-5.37,1.48c-3.4,0-5.92-1.11-7.56-3.34
					c-1.29-1.78-1.94-4.03-1.94-6.75c0-3.24,0.85-5.79,2.54-7.62c1.7-1.84,3.84-2.76,6.43-2.76c2.91,0,5.21,0.96,6.89,2.89
					c1.68,1.92,2.49,4.87,2.42,8.84h-12.98c0.04,1.54,0.45,2.73,1.25,3.59c0.8,0.85,1.79,1.28,2.99,1.28c0.81,0,1.49-0.22,2.05-0.66
					C113.4,77.73,113.81,77.01,114.1,76.03z M114.39,70.79c-0.04-1.5-0.42-2.64-1.16-3.42c-0.74-0.78-1.63-1.17-2.69-1.17
					c-1.13,0-2.07,0.41-2.8,1.24c-0.74,0.82-1.1,1.94-1.09,3.36H114.39z"/>
				<path class="st0" d="M150.11,68.47L145,69.39c-0.17-1.02-0.56-1.79-1.17-2.3c-0.61-0.52-1.4-0.77-2.37-0.77
					c-1.29,0-2.32,0.45-3.09,1.34c-0.77,0.89-1.15,2.38-1.15,4.47c0,2.32,0.39,3.96,1.17,4.92s1.83,1.44,3.14,1.44
					c0.98,0,1.79-0.28,2.42-0.84c0.63-0.56,1.07-1.52,1.33-2.89l5.09,0.87c-0.53,2.33-1.54,4.1-3.04,5.29
					c-1.5,1.19-3.51,1.79-6.03,1.79c-2.86,0-5.15-0.9-6.85-2.71s-2.55-4.31-2.55-7.5c0-3.23,0.85-5.75,2.56-7.55
					c1.71-1.8,4.02-2.7,6.93-2.7c2.38,0,4.28,0.51,5.69,1.54C148.49,64.8,149.5,66.37,150.11,68.47z"/>
				<path class="st0" d="M157.3,68.66l-4.7-0.85c0.53-1.89,1.44-3.29,2.73-4.2c1.29-0.91,3.21-1.36,5.75-1.36
					c2.31,0,4.03,0.27,5.16,0.82s1.93,1.24,2.39,2.08c0.46,0.84,0.69,2.39,0.69,4.64l-0.06,6.05c0,1.72,0.08,2.99,0.25,3.81
					s0.48,1.69,0.93,2.63h-5.13c-0.13-0.34-0.3-0.85-0.5-1.53c-0.09-0.31-0.15-0.51-0.18-0.61c-0.88,0.86-1.83,1.51-2.84,1.94
					c-1.01,0.43-2.08,0.65-3.23,0.65c-2.02,0-3.6-0.55-4.77-1.64s-1.74-2.48-1.74-4.15c0-1.11,0.26-2.09,0.79-2.96
					c0.53-0.87,1.27-1.53,2.22-1.99c0.95-0.46,2.33-0.86,4.12-1.21c2.42-0.45,4.1-0.88,5.03-1.27v-0.52c0-1-0.25-1.71-0.74-2.13
					c-0.49-0.42-1.42-0.64-2.78-0.64c-0.92,0-1.64,0.18-2.16,0.54C158.04,67.11,157.63,67.75,157.3,68.66z M164.24,72.86
					c-0.66,0.22-1.71,0.49-3.15,0.79c-1.44,0.31-2.38,0.61-2.82,0.9c-0.68,0.48-1.01,1.09-1.01,1.83c0,0.73,0.27,1.35,0.81,1.88
					c0.54,0.53,1.23,0.79,2.07,0.79c0.93,0,1.83-0.31,2.67-0.92c0.63-0.47,1.04-1.04,1.24-1.71c0.13-0.44,0.2-1.28,0.2-2.53V72.86z"
					/>
				<path class="st0" d="M173.68,62.68h4.83v2.88c0.63-0.98,1.47-1.78,2.54-2.4c1.07-0.61,2.26-0.92,3.56-0.92
					c2.27,0,4.2,0.89,5.79,2.67c1.58,1.78,2.38,4.27,2.38,7.45c0,3.27-0.8,5.81-2.4,7.62c-1.6,1.81-3.53,2.72-5.81,2.72
					c-1.08,0-2.06-0.22-2.94-0.65c-0.88-0.43-1.8-1.17-2.77-2.21v9.86h-5.18V62.68z M178.81,72.14c0,2.2,0.44,3.83,1.31,4.88
					c0.87,1.05,1.94,1.58,3.19,1.58c1.21,0,2.21-0.48,3.01-1.45c0.8-0.96,1.2-2.55,1.2-4.75c0-2.05-0.41-3.58-1.24-4.57
					c-0.82-1-1.84-1.49-3.06-1.49c-1.27,0-2.32,0.49-3.15,1.47S178.81,70.22,178.81,72.14z"/>
				<path class="st0" d="M200.16,68.66l-4.7-0.85c0.53-1.89,1.44-3.29,2.73-4.2c1.29-0.91,3.21-1.36,5.75-1.36
					c2.31,0,4.03,0.27,5.16,0.82s1.93,1.24,2.39,2.08c0.46,0.84,0.69,2.39,0.69,4.64l-0.06,6.05c0,1.72,0.08,2.99,0.25,3.81
					s0.48,1.69,0.93,2.63h-5.13c-0.13-0.34-0.3-0.85-0.5-1.53c-0.09-0.31-0.15-0.51-0.18-0.61c-0.88,0.86-1.83,1.51-2.84,1.94
					c-1.01,0.43-2.08,0.65-3.23,0.65c-2.02,0-3.6-0.55-4.77-1.64s-1.74-2.48-1.74-4.15c0-1.11,0.26-2.09,0.79-2.96
					c0.53-0.87,1.27-1.53,2.22-1.99c0.95-0.46,2.33-0.86,4.12-1.21c2.42-0.45,4.1-0.88,5.03-1.27v-0.52c0-1-0.25-1.71-0.74-2.13
					c-0.49-0.42-1.42-0.64-2.78-0.64c-0.92,0-1.64,0.18-2.16,0.54C200.9,67.11,200.48,67.75,200.16,68.66z M207.09,72.86
					c-0.66,0.22-1.71,0.49-3.15,0.79c-1.44,0.31-2.38,0.61-2.82,0.9c-0.68,0.48-1.01,1.09-1.01,1.83c0,0.73,0.27,1.35,0.81,1.88
					c0.54,0.53,1.23,0.79,2.07,0.79c0.93,0,1.83-0.31,2.67-0.92c0.63-0.47,1.04-1.04,1.24-1.71c0.13-0.44,0.2-1.28,0.2-2.53V72.86z"
					/>
				<path class="st0" d="M233.75,68.47l-5.11,0.92c-0.17-1.02-0.56-1.79-1.17-2.3c-0.61-0.52-1.4-0.77-2.37-0.77
					c-1.29,0-2.32,0.45-3.09,1.34c-0.77,0.89-1.15,2.38-1.15,4.47c0,2.32,0.39,3.96,1.17,4.92s1.83,1.44,3.14,1.44
					c0.98,0,1.79-0.28,2.42-0.84c0.63-0.56,1.07-1.52,1.33-2.89l5.09,0.87c-0.53,2.33-1.54,4.1-3.04,5.29
					c-1.5,1.19-3.51,1.79-6.03,1.79c-2.86,0-5.15-0.9-6.85-2.71s-2.55-4.31-2.55-7.5c0-3.23,0.85-5.75,2.56-7.55
					c1.71-1.8,4.02-2.7,6.93-2.7c2.38,0,4.28,0.51,5.69,1.54C232.13,64.8,233.14,66.37,233.75,68.47z"/>
				<path class="st0" d="M237.08,60.03v-4.79h5.18v4.79H237.08z M237.08,82.26V62.68h5.18v19.58H237.08z"/>
				<path class="st0" d="M255.94,62.68v4.13h-3.54v7.89c0,1.6,0.03,2.53,0.1,2.79c0.07,0.26,0.22,0.48,0.46,0.65
					c0.24,0.17,0.53,0.26,0.88,0.26c0.48,0,1.17-0.17,2.08-0.5l0.44,4.02c-1.21,0.52-2.57,0.77-4.09,0.77
					c-0.93,0-1.78-0.16-2.53-0.47c-0.75-0.31-1.3-0.72-1.65-1.22c-0.35-0.5-0.59-1.17-0.73-2.02c-0.11-0.6-0.17-1.82-0.17-3.65
					v-8.54h-2.38v-4.13h2.38v-3.89l5.2-3.02v6.91H255.94z"/>
				<path class="st0" d="M262.8,68.66l-4.7-0.85c0.53-1.89,1.44-3.29,2.73-4.2c1.29-0.91,3.21-1.36,5.75-1.36
					c2.31,0,4.03,0.27,5.16,0.82s1.93,1.24,2.39,2.08c0.46,0.84,0.69,2.39,0.69,4.64l-0.06,6.05c0,1.72,0.08,2.99,0.25,3.81
					s0.48,1.69,0.93,2.63h-5.13c-0.13-0.34-0.3-0.85-0.5-1.53c-0.09-0.31-0.15-0.51-0.18-0.61c-0.88,0.86-1.83,1.51-2.84,1.94
					c-1.01,0.43-2.08,0.65-3.23,0.65c-2.02,0-3.6-0.55-4.77-1.64s-1.74-2.48-1.74-4.15c0-1.11,0.26-2.09,0.79-2.96
					c0.53-0.87,1.27-1.53,2.22-1.99c0.95-0.46,2.33-0.86,4.12-1.21c2.42-0.45,4.1-0.88,5.03-1.27v-0.52c0-1-0.25-1.71-0.74-2.13
					c-0.49-0.42-1.42-0.64-2.78-0.64c-0.92,0-1.64,0.18-2.16,0.54C263.54,67.11,263.12,67.75,262.8,68.66z M269.73,72.86
					c-0.66,0.22-1.71,0.49-3.15,0.79c-1.44,0.31-2.38,0.61-2.82,0.9c-0.68,0.48-1.01,1.09-1.01,1.83c0,0.73,0.27,1.35,0.81,1.88
					c0.54,0.53,1.23,0.79,2.07,0.79c0.93,0,1.83-0.31,2.67-0.92c0.63-0.47,1.04-1.04,1.24-1.71c0.13-0.44,0.2-1.28,0.2-2.53V72.86z"
					/>
			</g>
		</g>
	</g>
	
		<ellipse transform="matrix(0.7071 -0.7071 0.7071 0.7071 -15.6251 29.3517)" class="st4" cx="27.62" cy="33.54" rx="12.62" ry="12.62"/>
	<path class="st4" d="M27.62,49.48C17.07,49.48,8,55.79,3.96,64.83l23.59,13.62l23.7-13.68C47.19,55.76,38.14,49.48,27.62,49.48z"/>
	<rect x="43.98" y="75.11" transform="matrix(0.866 -0.5 0.5 0.866 -38.427 36.8135)" class="st4" width="11" height="30"/>
</g>
</svg>
