<?xml version="1.0" encoding="utf-8"?>
<!-- Generator: Adobe Illustrator 27.1.0, SVG Export Plug-In . SVG Version: 6.00 Build 0)  -->
<svg version="1.1" id="Capa_1" xmlns="http://www.w3.org/2000/svg" xmlns:xlink="http://www.w3.org/1999/xlink" x="0px" y="0px"
	 viewBox="0 0 1779.4 346.2" style="enable-background:new 0 0 1779.4 346.2;" xml:space="preserve">
<style type="text/css">
	.st0{fill:#DA2128;}
	.st1{fill:#003D71;}
	.st2{opacity:5.000000e-02;fill:#DA2128;}
	.st3{fill:#FFFFFF;}
	.st4{fill:#FFFFFF;stroke:#FFFFFF;stroke-width:2.0513;stroke-miterlimit:10;}
	.st5{fill:#D1CBC9;}
	.st6{fill:#808285;}
	.st7{fill:#808285;stroke:#808285;stroke-width:2.0513;stroke-miterlimit:10;}
</style>
<g>
	<polygon class="st3" points="877.2,134.6 859.8,174.7 894.6,174.7 	"/>
	<path class="st3" d="M596.7,80.8v15l0.1,0.1v90.5c0,9.9-2.2,16.4-6.7,19.3c-5.5,3.6-13.1,5.4-22.9,5.4c-8.4,0-15.9-1.8-22.1-5.3
		c-4.7-2.7-7.1-9.2-7.1-19.5v-105l-53,10v97c0,13.4,2.7,24.8,8.1,33.7c5.5,9.2,14.4,16.5,26.6,21.6c11.5,4.8,26.2,7.3,43.7,7.3
		c17.3,0,32.4-2.8,44.6-8.5c12.8-5.9,21.7-13.2,26.5-21.8c4.6-8.4,6.9-19.6,6.9-34.4V80.8H596.7L596.7,80.8z"/>
	<polygon class="st3" points="843.9,212.5 828,248.7 927.4,248.7 911.2,212.5 	"/>
	<polygon class="st3" points="930.4,129.2 983.6,248.7 983.6,184.5 1054.7,184.5 1054.7,145.8 983.6,145.8 983.6,120.1 
		1073.9,120.1 1073.9,80.8 930.4,80.8 	"/>
	<polygon class="st3" points="1089.8,248.7 1142.1,248.7 1142.1,80.8 1089.8,90.7 	"/>
	<polygon class="st3" points="1212.7,208 1212.7,80.8 1158.6,91.1 1158.6,248.7 1303.7,248.7 1303.7,208 	"/>
	<path class="st3" d="M417.8,144.3l-34.4-6.5c-16-3-21.6-7.4-21.6-10.5c0-1.1,0-3.8,5.1-6.8c4.7-2.8,12.1-4.2,21.9-4.2
		c24.2,0,28.7,9.5,30.1,12.7l2.6,5.6l49.8-9.3l-3.1-8.7c-4.5-12.6-14.8-22.3-30.5-28.9c-14.6-6.1-31.3-9.2-49.6-9.2
		c-22.3,0-41,4.5-55.6,13.5c-15.9,9.7-23.9,23-23.9,39.4c0,8.3,2.3,16.2,6.9,23.5c4.5,7.2,10.7,12.8,18.2,16.8
		c7.1,3.7,17.3,6.8,31.5,9.6l38.6,7.6c12,2.3,15.2,5,15.9,5.8c2.4,2.7,2.7,4.9,2.7,6.3c0,1,0,3.9-6.4,7.5c-5.7,3.2-14.5,4.8-26,4.8
		c-24.2,0-38.1-5.7-41.2-16.8l-1.9-6.8l-51.8,8.3l3.3,9c5.7,15.4,17.3,26.9,34.3,34.1c15.9,6.7,34.7,10.1,55.7,10.1
		c25.1,0,45.9-4.7,62-13.9c17.5-10,26.4-24.2,26.4-42.1c0-11.3-4.3-21.7-12.8-30.8C455.7,155.1,440.6,148.6,417.8,144.3"/>
	<polygon class="st3" points="830.4,80.7 775.8,80.7 775.8,160.3 713.1,80.7 656.8,80.7 656.8,248.6 711.4,248.6 711.4,163.6 
		778,248.6 779.6,248.6 830.4,133.5 	"/>
	<path class="st3" d="M92.8,0L0,53.6l5.3,27.3l87.4-50.5L215,101v141.1l-22.6,13.1c-6.3,3.6-8.5,11.7-4.8,18
		c3.6,6.3,11.7,8.5,18,4.8l35.8-20.7V85.8L92.8,0z"/>
	<path class="st3" d="M113.7,300.5l-21,12.1L45,285l6.7,34.3L92.8,343l34.1-19.7c6.3-3.6,8.5-11.7,4.8-18
		C128.1,299,120,296.9,113.7,300.5"/>
	<path class="st3" d="M76.4,229.5c-31.9-8.5-50.8-41.3-42.2-73.1c8.5-31.9,41.3-50.8,73.1-42.2c31.8,8.5,50.8,41.3,42.2,73.1
		C141,219.2,108.2,238.1,76.4,229.5 M164.2,244.8c12.5-12.4,22.1-28.2,26.9-46.4c14.7-54.8-17.9-111.2-72.7-125.9
		c-41.1-11-83.1,4.5-107.7,36.1l29.6,152.1c7.7,4.4,16,8,25,10.4c18.2,4.9,36.7,4.5,53.7-0.1l43.4,75.2l45.3-26.1L164.2,244.8z"/>
	<g>
		<g>
			<path class="st3" d="M1408.1,114.3l4.9-1c0.6,2.8,2.9,4.2,6.8,4.2c1.8,0,3.2-0.4,4.1-1.1c1-0.7,1.5-1.6,1.5-2.7
				c0-0.8-0.2-1.5-0.7-2.1c-0.4-0.6-1.4-1.2-2.8-1.5l-5.4-1.4c-1.8-0.5-3.2-1-4.1-1.6c-0.9-0.6-1.6-1.5-2.1-2.6
				c-0.5-1.1-0.8-2.3-0.8-3.6c0-2.5,0.9-4.5,2.8-6c1.9-1.5,4.2-2.3,7.2-2.3c2.4,0,4.6,0.5,6.5,1.6c1.9,1.1,3.1,2.6,3.6,4.5l-4.8,1.2
				c-0.7-2.1-2.5-3.2-5.2-3.2c-1.6,0-2.8,0.3-3.6,1c-0.8,0.7-1.2,1.5-1.2,2.5c0,1.6,1.3,2.7,3.9,3.4l4.8,1.2
				c2.9,0.7,4.8,1.8,5.8,3.2c1,1.4,1.5,3,1.5,4.7c0,2.8-1,4.9-3.1,6.5c-2.1,1.6-4.8,2.4-8.1,2.4c-2.8,0-5.2-0.6-7.3-1.8
				C1410.2,118.6,1408.8,116.8,1408.1,114.3"/>
			<path class="st3" d="M1454.4,93v18c0,2.4-0.3,4.3-0.8,5.6c-0.5,1.3-1.6,2.5-3.2,3.4c-1.6,1-3.5,1.4-5.8,1.4
				c-2.3,0-4.2-0.4-5.6-1.2c-1.5-0.8-2.5-2-3.2-3.4c-0.6-1.4-1-3.3-1-5.5V93h5.2v18c0,2.5,0.5,4.1,1.6,4.9c1,0.8,2.2,1.2,3.6,1.2
				c1.6,0,2.8-0.4,3.8-1.2c0.9-0.8,1.4-2.4,1.4-4.8V93H1454.4z"/>
			<path class="st3" d="M1465.2,105.6h6c1.6,0,2.8-0.4,3.6-1.2c0.8-0.8,1.2-1.8,1.2-3.1c0-1.2-0.4-2.1-1.1-3s-2.1-1.2-4.1-1.2h-5.5
				V105.6z M1465.2,121.1h-5.1V93h11.5c3.3,0,5.7,0.8,7.3,2.5c1.6,1.7,2.4,3.6,2.4,5.9c0,2.6-0.9,4.6-2.6,6.2
				c-1.7,1.6-3.9,2.4-6.5,2.4h-7V121.1z"/>
			<polygon class="st3" points="1503.7,121.1 1485.4,121.1 1485.4,93 1503.5,93 1503.5,97.2 1490.5,97.2 1490.5,104.8 1500.9,104.8 
				1500.9,108.9 1490.5,108.9 1490.5,116.8 1503.7,116.8 			"/>
			<path class="st3" d="M1513.1,105.5h6.3c1.8,0,3.2-0.4,4.1-1.2c0.9-0.8,1.3-1.8,1.3-3.2c0-1.2-0.4-2.2-1.3-3
				c-0.9-0.8-2.1-1.1-3.7-1.1h-6.7V105.5z M1529.9,121.1h-5.4l-4.4-11.5h-7.1v11.5h-5.1V93h12.2c3.4,0,5.9,0.8,7.5,2.3
				c1.6,1.5,2.4,3.5,2.4,5.9c0,3.6-1.7,6.1-5.1,7.4L1529.9,121.1z"/>
			<rect x="1535.1" y="93" class="st3" width="5.1" height="28.1"/>
			<path class="st3" d="M1567.6,121.1h-4.9l-10.7-17.9c-0.2-0.3-0.4-0.7-0.8-1.3c-0.2-0.3-0.4-0.7-0.8-1.3v20.6h-4.1V93h5.6
				l9.8,16.5c0.1,0.1,0.7,1.1,1.8,3V93h4V121.1z"/>
			<polygon class="st3" points="1583.5,121.1 1578.1,121.1 1578.1,97.4 1570.6,97.4 1570.6,93 1591,93 1591,97.4 1583.5,97.4 			"/>
			<polygon class="st3" points="1612.4,121.1 1594.1,121.1 1594.1,93 1612.2,93 1612.2,97.2 1599.2,97.2 1599.2,104.8 1609.6,104.8 
				1609.6,108.9 1599.2,108.9 1599.2,116.8 1612.4,116.8 			"/>
			<path class="st3" d="M1637.9,121.1h-4.9l-10.7-17.9c-0.2-0.3-0.4-0.7-0.8-1.3c-0.2-0.3-0.4-0.7-0.8-1.3v20.6h-4.1V93h5.6
				l9.8,16.5c0.1,0.1,0.7,1.1,1.8,3V93h4V121.1z"/>
			<path class="st3" d="M1649.2,117h4.2c2.3,0,4.2-0.8,5.8-2.6c1.6-1.7,2.4-4.2,2.4-7.6c0-2.7-0.7-5.1-2.1-7
				c-1.4-1.9-3.2-2.8-5.5-2.8h-4.8V117z M1644,121.1V93h10.4c3.8,0,6.9,1.4,9.2,4.1c2.3,2.7,3.5,6.1,3.5,10c0,4-1.2,7.3-3.6,10
				c-2.4,2.7-5.8,4-10.2,4H1644z"/>
			<polygon class="st3" points="1690,121.1 1671.7,121.1 1671.7,93 1689.8,93 1689.8,97.2 1676.8,97.2 1676.8,104.8 1687.2,104.8 
				1687.2,108.9 1676.8,108.9 1676.8,116.8 1690,116.8 			"/>
			<path class="st3" d="M1715.5,121.1h-4.9l-10.7-17.9c-0.2-0.3-0.4-0.7-0.8-1.3c-0.2-0.3-0.4-0.7-0.8-1.3v20.6h-4.1V93h5.6
				l9.8,16.5c0.1,0.1,0.7,1.1,1.8,3V93h4V121.1z"/>
			<path class="st3" d="M1737.4,111.4l4.7,0.5c-0.3,2.8-1.4,5.1-3.3,6.9c-1.9,1.8-4.3,2.7-7.4,2.7c-2.6,0-4.6-0.6-6.2-1.9
				c-1.6-1.3-2.8-3-3.7-5.2c-0.9-2.2-1.3-4.6-1.3-7.3c0-4.3,1-7.8,3-10.4c2-2.7,4.8-4,8.4-4c2.8,0,5.1,0.9,7,2.6
				c1.8,1.7,3,4.2,3.5,7.4l-4.7,0.5c-0.9-4.2-2.8-6.4-5.7-6.4c-1.9,0-3.4,0.9-4.4,2.6c-1,1.8-1.6,4.3-1.6,7.7c0,3.4,0.6,6,1.7,7.7
				c1.1,1.7,2.6,2.6,4.5,2.6c1.5,0,2.8-0.6,3.8-1.8C1736.7,114.4,1737.3,113,1737.4,111.4"/>
			<rect x="1746.1" y="93" class="st3" width="5.1" height="28.1"/>
			<path class="st3" d="M1770.4,110.4l-4.1-12.5l-4.1,12.5H1770.4z M1779.4,121.1h-5.4l-2.2-6.7h-10.8l-2.2,6.7h-4.3l9.3-28.1h6.2
				L1779.4,121.1z"/>
			<path class="st3" d="M1432.2,163.3h-4.9l-10.7-17.9c-0.2-0.3-0.4-0.7-0.8-1.3c-0.2-0.3-0.4-0.7-0.8-1.3v20.6h-4.1v-28.1h5.6
				l9.8,16.5c0.1,0.1,0.7,1.1,1.8,3v-19.6h4V163.3z"/>
			<path class="st3" d="M1451.4,152.5l-4.1-12.5l-4.1,12.5H1451.4z M1460.4,163.3h-5.4l-2.2-6.7H1442l-2.2,6.7h-4.3l9.3-28.1h6.2
				L1460.4,163.3z"/>
			<path class="st3" d="M1478.6,153.5l4.7,0.5c-0.3,2.8-1.4,5.1-3.3,6.9c-1.9,1.8-4.3,2.7-7.4,2.7c-2.6,0-4.6-0.6-6.2-1.9
				c-1.6-1.3-2.8-3-3.7-5.2c-0.9-2.2-1.3-4.6-1.3-7.3c0-4.3,1-7.8,3-10.4c2-2.7,4.8-4,8.4-4c2.8,0,5.1,0.9,7,2.6
				c1.8,1.7,3,4.2,3.5,7.4l-4.7,0.5c-0.9-4.2-2.8-6.4-5.7-6.4c-1.9,0-3.4,0.9-4.4,2.6c-1,1.8-1.6,4.3-1.6,7.7c0,3.4,0.6,6,1.7,7.7
				c1.1,1.7,2.6,2.6,4.5,2.6c1.5,0,2.7-0.6,3.8-1.8C1477.9,156.5,1478.5,155.1,1478.6,153.5"/>
			<rect x="1487.3" y="135.2" class="st3" width="5.1" height="28.1"/>
			<path class="st3" d="M1508.9,159.6c1.8,0,3.4-0.8,4.6-2.3c1.3-1.5,1.9-4.2,1.9-8.2c0-3.2-0.5-5.8-1.6-7.6c-1-1.8-2.7-2.7-4.9-2.7
				c-4.3,0-6.5,3.5-6.5,10.5c0,3.4,0.6,6,1.7,7.7C1505.3,158.7,1506.9,159.6,1508.9,159.6 M1508.9,163.7c-3.7,0-6.6-1.4-8.7-4.2
				c-2.1-2.8-3.1-6.3-3.1-10.4c0-4.1,1.1-7.5,3.3-10.3c2.2-2.8,5.1-4.1,8.7-4.1c3.7,0,6.5,1.4,8.7,4.1c2.1,2.8,3.2,6.2,3.2,10.3
				c0,4.3-1.1,7.8-3.3,10.5C1515.4,162.4,1512.5,163.7,1508.9,163.7"/>
			<path class="st3" d="M1546.9,163.3h-4.9l-10.7-17.9c-0.2-0.3-0.4-0.7-0.8-1.3c-0.2-0.3-0.4-0.7-0.8-1.3v20.6h-4.1v-28.1h5.6
				l9.8,16.5c0.1,0.1,0.7,1.1,1.8,3v-19.6h4V163.3z"/>
			<path class="st3" d="M1566.1,152.5L1562,140l-4.1,12.5H1566.1z M1575.1,163.3h-5.4l-2.2-6.7h-10.8l-2.2,6.7h-4.3l9.3-28.1h6.2
				L1575.1,163.3z"/>
			<polygon class="st3" points="1595.8,163.3 1578.5,163.3 1578.5,135.2 1583.8,135.2 1583.8,158.7 1595.8,158.7 			"/>
			<path class="st3" d="M1615.1,159.1h4.2c2.3,0,4.2-0.8,5.8-2.6c1.6-1.7,2.4-4.2,2.4-7.6c0-2.7-0.7-5.1-2.1-7
				c-1.4-1.9-3.2-2.8-5.5-2.8h-4.8V159.1z M1609.9,163.3v-28.1h10.4c3.8,0,6.9,1.4,9.2,4.1c2.3,2.7,3.5,6.1,3.5,10
				c0,4-1.2,7.3-3.6,10c-2.4,2.7-5.8,4-10.2,4H1609.9z"/>
			<polygon class="st3" points="1655.9,163.3 1637.6,163.3 1637.6,135.2 1655.7,135.2 1655.7,139.3 1642.7,139.3 1642.7,147 
				1653.1,147 1653.1,151 1642.7,151 1642.7,158.9 1655.9,158.9 			"/>
			<polygon class="st3" points="1416.2,205.4 1411,205.4 1411,177.3 1428.8,177.3 1428.8,181.7 1416.2,181.7 1416.2,189.3 
				1426.1,189.3 1426.1,193.6 1416.2,193.6 			"/>
			<rect x="1432.4" y="177.3" class="st3" width="5.1" height="28.1"/>
			<path class="st3" d="M1440.7,198.6l4.9-1c0.6,2.8,2.9,4.2,6.8,4.2c1.8,0,3.2-0.4,4.2-1.1c1-0.7,1.4-1.6,1.4-2.7
				c0-0.8-0.2-1.5-0.7-2.1c-0.4-0.6-1.4-1.2-2.8-1.5l-5.4-1.4c-1.8-0.5-3.2-1-4.1-1.6c-0.9-0.6-1.6-1.5-2.1-2.6
				c-0.5-1.1-0.8-2.3-0.8-3.6c0-2.5,0.9-4.5,2.8-6c1.9-1.5,4.2-2.3,7.2-2.3c2.4,0,4.6,0.5,6.5,1.6c1.9,1.1,3.1,2.6,3.6,4.5l-4.8,1.2
				c-0.7-2.1-2.5-3.2-5.2-3.2c-1.6,0-2.8,0.3-3.6,1c-0.8,0.7-1.2,1.5-1.2,2.5c0,1.6,1.3,2.7,3.9,3.4l4.8,1.2
				c2.9,0.7,4.8,1.8,5.8,3.2c1,1.4,1.5,3,1.5,4.7c0,2.8-1,4.9-3.1,6.5c-2.1,1.6-4.8,2.4-8.1,2.4c-2.8,0-5.2-0.6-7.3-1.8
				C1442.8,202.9,1441.4,201.1,1440.7,198.6"/>
			<path class="st3" d="M1483.4,195.7l4.7,0.5c-0.3,2.8-1.4,5.1-3.3,6.9c-1.9,1.8-4.3,2.7-7.4,2.7c-2.6,0-4.6-0.6-6.2-1.9
				c-1.6-1.3-2.8-3-3.7-5.2c-0.9-2.2-1.3-4.6-1.3-7.3c0-4.3,1-7.8,3-10.4c2-2.7,4.8-4,8.4-4c2.8,0,5.1,0.9,7,2.6
				c1.8,1.7,3,4.2,3.5,7.4l-4.7,0.5c-0.9-4.2-2.8-6.4-5.7-6.4c-1.9,0-3.4,0.9-4.4,2.6c-1,1.8-1.6,4.3-1.6,7.7c0,3.4,0.6,6,1.7,7.7
				c1.1,1.7,2.6,2.6,4.5,2.6c1.5,0,2.7-0.6,3.8-1.8C1482.7,198.7,1483.3,197.3,1483.4,195.7"/>
			<path class="st3" d="M1505,194.7l-4.1-12.5l-4.1,12.5H1505z M1514,205.4h-5.4l-2.2-6.7h-10.8l-2.2,6.7h-4.3l9.3-28.1h6.2
				L1514,205.4z"/>
			<polygon class="st3" points="1534.6,205.4 1517.3,205.4 1517.3,177.3 1522.7,177.3 1522.7,200.8 1534.6,200.8 			"/>
			<rect x="1538.4" y="177.3" class="st3" width="5.1" height="28.1"/>
			<polygon class="st3" points="1568.1,201 1568.1,205.4 1547.3,205.4 1547.3,201.4 1561.7,181.3 1548.4,181.3 1548.4,177.3 
				1567.7,177.3 1567.7,181.3 1553.5,201 			"/>
			<path class="st3" d="M1585.1,194.7l-4.1-12.5l-4.1,12.5H1585.1z M1594.1,205.4h-5.4l-2.2-6.7h-10.8l-2.2,6.7h-4.3l9.3-28.1h6.2
				L1594.1,205.4z"/>
			<path class="st3" d="M1612.2,195.7l4.7,0.5c-0.3,2.8-1.4,5.1-3.3,6.9c-1.9,1.8-4.3,2.7-7.4,2.7c-2.6,0-4.6-0.6-6.2-1.9
				c-1.6-1.3-2.8-3-3.7-5.2c-0.9-2.2-1.3-4.6-1.3-7.3c0-4.3,1-7.8,3-10.4c2-2.7,4.8-4,8.4-4c2.8,0,5.1,0.9,7,2.6
				c1.8,1.7,3,4.2,3.5,7.4l-4.7,0.5c-0.9-4.2-2.8-6.4-5.7-6.4c-1.9,0-3.4,0.9-4.4,2.6c-1,1.8-1.6,4.3-1.6,7.7c0,3.4,0.6,6,1.7,7.7
				c1.1,1.7,2.6,2.6,4.5,2.6c1.5,0,2.7-0.6,3.8-1.8C1611.5,198.7,1612.1,197.3,1612.2,195.7"/>
			<rect x="1620.9" y="177.3" class="st3" width="5.1" height="28.1"/>
			<path class="st3" d="M1647.8,168.4l1.4,3.1l-8.6,3.6l-0.9-2.2L1647.8,168.4z M1642.6,201.8c1.8,0,3.4-0.8,4.6-2.3
				c1.3-1.5,1.9-4.2,1.9-8.2c0-3.2-0.5-5.8-1.6-7.6c-1-1.8-2.7-2.7-4.9-2.7c-4.3,0-6.5,3.5-6.5,10.5c0,3.4,0.6,6,1.7,7.7
				C1638.9,200.9,1640.5,201.8,1642.6,201.8 M1642.5,205.8c-3.7,0-6.6-1.4-8.7-4.2c-2.1-2.8-3.1-6.3-3.1-10.4
				c0-4.1,1.1-7.5,3.3-10.3c2.2-2.8,5.1-4.1,8.7-4.1c3.7,0,6.5,1.4,8.7,4.1c2.1,2.8,3.2,6.2,3.2,10.3c0,4.3-1.1,7.8-3.3,10.5
				C1649.1,204.5,1646.2,205.8,1642.5,205.8"/>
			<path class="st3" d="M1680.5,205.4h-4.9l-10.7-17.9c-0.2-0.3-0.4-0.7-0.8-1.3c-0.2-0.3-0.4-0.7-0.8-1.3v20.6h-4.1v-28.1h5.6
				l9.8,16.5c0.1,0.1,0.7,1.1,1.8,3v-19.6h4V205.4z"/>
			<polygon class="st3" points="1428.3,247.6 1411,247.6 1411,219.5 1416.3,219.5 1416.3,243 1428.3,243 			"/>
			<path class="st3" d="M1445,236.8l-4.1-12.5l-4.1,12.5H1445z M1454.1,247.6h-5.4l-2.2-6.7h-10.8l-2.2,6.7h-4.3l9.3-28.1h6.2
				L1454.1,247.6z"/>
			<path class="st3" d="M1462.2,243.3h6.6c1.4,0,2.5-0.4,3.3-1.1c0.8-0.7,1.2-1.7,1.2-2.9c0-1.2-0.4-2.1-1.2-2.9
				c-0.8-0.8-1.9-1.1-3.2-1.1h-6.6V243.3z M1462.2,231.3h6.2c1.3,0,2.3-0.4,3-1.1c0.7-0.8,1.1-1.7,1.1-2.9c0-1.3-0.4-2.2-1.3-2.8
				c-0.8-0.6-1.8-0.9-2.9-0.9h-6.1V231.3z M1457.4,247.6v-28.1h10.9c1.9,0,3.4,0.2,4.6,0.6c1.2,0.4,2.3,1.2,3.2,2.4
				c0.9,1.2,1.3,2.7,1.3,4.3c0,1.6-0.4,2.9-1.4,4c-0.9,1.1-2.2,1.9-3.8,2.2c2,0.3,3.5,1.1,4.5,2.4c1,1.3,1.5,2.8,1.5,4.5
				c0,2.2-0.7,4-2.1,5.5c-1.4,1.5-3.6,2.2-6.6,2.2H1457.4z"/>
			<path class="st3" d="M1493.4,243.9c1.8,0,3.4-0.8,4.6-2.3c1.3-1.5,1.9-4.2,1.9-8.2c0-3.2-0.5-5.8-1.6-7.6c-1-1.8-2.7-2.7-4.9-2.7
				c-4.3,0-6.5,3.5-6.5,10.5c0,3.4,0.6,6,1.7,7.7C1489.8,243,1491.4,243.9,1493.4,243.9 M1493.4,248c-3.7,0-6.6-1.4-8.7-4.2
				c-2.1-2.8-3.1-6.3-3.1-10.4c0-4.1,1.1-7.5,3.3-10.3c2.2-2.8,5.1-4.1,8.7-4.1c3.7,0,6.5,1.4,8.7,4.1c2.1,2.8,3.2,6.2,3.2,10.3
				c0,4.3-1.1,7.8-3.3,10.5C1499.9,246.7,1497,248,1493.4,248"/>
			<path class="st3" d="M1515.2,232h6.3c1.8,0,3.2-0.4,4.1-1.2c0.9-0.8,1.3-1.8,1.3-3.2c0-1.2-0.4-2.2-1.3-3
				c-0.9-0.8-2.1-1.1-3.7-1.1h-6.7V232z M1532.1,247.6h-5.4l-4.4-11.5h-7.1v11.5h-5.1v-28.1h12.2c3.4,0,5.9,0.8,7.5,2.3
				c1.6,1.5,2.4,3.5,2.4,5.9c0,3.6-1.7,6.1-5.1,7.4L1532.1,247.6z"/>
			<path class="st3" d="M1550.3,236.8l-4.1-12.5l-4.1,12.5H1550.3z M1559.3,247.6h-5.4l-2.2-6.7h-10.8l-2.2,6.7h-4.3l9.3-28.1h6.2
				L1559.3,247.6z"/>
			<polygon class="st3" points="1579.9,247.6 1562.7,247.6 1562.7,219.5 1568,219.5 1568,243 1579.9,243 			"/>
		</g>
	</g>
	<line class="st4" x1="1354.9" y1="59.4" x2="1354.9" y2="270.5"/>
</g>
</svg>
