<?xml version="1.0" encoding="UTF-8"?>
<svg id="Capa_2" data-name="Capa 2" xmlns="http://www.w3.org/2000/svg" viewBox="0 0 394.77 394.45">
  <defs>
    <style>
      .cls-1 {
        fill: #fff;
        stroke-width: 0px;
      }
    </style>
  </defs>
  <g id="Capa_1-2" data-name="Capa 1">
    <g>
      <path class="cls-1" d="M223.48,0c2.58.7,5.19,1.3,7.74,2.1,18.73,5.86,31.48,22.63,31.67,42.36.23,24.66.1,49.32.05,73.98-.02,7.61-5.22,13.08-12.18,13.13-6.99.05-12.4-5.65-12.42-13.4-.06-24.02.02-48.03-.05-72.05-.03-11.1-6.61-19.17-17-21.12-1.25-.24-2.55-.31-3.83-.31-33.78-.02-67.56-.01-101.33-.01-.51,0-1.02.06-1.68.61,9.01,3.02,18.06,5.95,27.04,9.1,12.12,4.25,19.64,12.74,22.27,25.32.62,2.98.56,6.13.56,9.2.03,82.07.02,164.14.02,246.21,0,1.65,0,3.3,0,5.25,1.52.09,2.76.22,3.99.22,16.05.01,32.11.03,48.16,0,13.17-.03,21.77-8.48,21.81-21.62.07-23.63.04-47.26,0-70.9,0-4.14.75-7.94,3.92-10.87,3.74-3.46,8.13-4.44,12.84-2.61,4.67,1.81,7.41,5.37,7.84,10.48.1,1.15.07,2.31.07,3.47,0,23.25.03,46.49,0,69.74-.05,27.59-19.49,46.96-47.09,46.97-15.67,0-31.34,0-47.01,0h-4.53c0,5.01-.21,9.61.03,14.19,1.27,24.17-21.93,41.12-45.37,32.94-31.59-11.02-63.48-21.2-95.21-31.84-12.4-4.16-20.33-12.54-23.14-25.49-.1-.48-.42-.91-.64-1.36,0-101.98,0-203.96,0-305.93,2.57-5.31,4.53-11.04,7.84-15.83C12.7,4.91,20.4,1.87,28.51,0c64.99,0,129.98,0,194.97,0ZM139.67,213.66c0-48.53,0-97.06,0-145.59,0-6.61-1.56-8.89-7.51-10.88-31.6-10.54-63.21-21.08-94.83-31.58-7.75-2.57-12.66.98-12.66,9.12,0,97.45,0,194.89,0,292.34,0,5.87,1.77,8.33,7.37,10.22,9.11,3.06,18.24,6.06,27.36,9.1,22.62,7.54,45.22,15.12,67.85,22.63,7.55,2.5,12.33-1.02,12.42-8.99.01-1.16,0-2.31,0-3.47,0-47.63,0-95.26,0-142.89Z"/>
      <path class="cls-1" d="M352.27,184.95c-2.13,0-3.48,0-4.82,0-40.06,0-80.13.01-120.19-.01-9.29,0-15.31-7.25-13.06-15.6,1.34-4.96,5.64-8.56,10.84-8.99,1.4-.12,2.82-.06,4.24-.06,39.29,0,78.59,0,117.88,0h5.15c-1.41-1.49-2.28-2.46-3.21-3.38-12.34-12.35-24.72-24.67-37.02-37.07-4.05-4.08-4.91-9.33-2.63-14.16,2.2-4.65,7.12-7.73,12.23-6.86,2.63.45,5.6,1.63,7.46,3.46,20.77,20.45,41.38,41.06,61.95,61.71,4.92,4.94,4.9,12.32-.04,17.28-20.48,20.56-41.03,41.05-61.62,61.5-5.19,5.15-12.73,5.08-17.59.16-4.88-4.93-4.86-12.4.28-17.59,12.2-12.32,24.5-24.53,36.75-36.8.96-.96,1.87-1.98,3.39-3.6Z"/>
    </g>
  </g>
</svg>