<?xml version="1.0" encoding="UTF-8"?>
<svg id="Capa_2" data-name="Capa 2" xmlns="http://www.w3.org/2000/svg" viewBox="0 0 494.47 494.47">
  <defs>
    <style>
      .cls-1 {
        opacity: .11;
      }

      .cls-2 {
        fill: #fff;
        stroke-width: 0px;
      }
    </style>
  </defs>
  <g id="Capa_1-2" data-name="Capa 1">
    <g>
      <g class="cls-1">
        <rect class="cls-2" x="0" width="494.47" height="494.47" rx="63.55" ry="63.55"/>
      </g>
      <g>
        <path class="cls-2" d="M315.36,164.52c-8.33,0-15.08,6.75-15.08,15.08s6.75,15.09,15.08,15.09,15.09-6.75,15.09-15.09-6.75-15.08-15.09-15.08Z"/>
        <path class="cls-2" d="M248.29,183.86c-34.94,0-63.37,28.43-63.37,63.37s28.43,63.37,63.37,63.37,63.37-28.43,63.37-63.37-28.43-63.37-63.37-63.37ZM248.29,287.82c-22.38,0-40.59-18.21-40.59-40.59s18.21-40.59,40.59-40.59,40.59,18.21,40.59,40.59-18.21,40.59-40.59,40.59Z"/>
        <path class="cls-2" d="M298.6,375.89h-102.73c-42.62,0-77.29-34.67-77.29-77.29v-102.74c0-42.62,34.67-77.29,77.29-77.29h102.73c42.62,0,77.3,34.67,77.3,77.29v102.74c0,42.62-34.68,77.29-77.3,77.29ZM195.86,142.78c-29.27,0-53.08,23.81-53.08,53.08v102.74c0,29.27,23.81,53.08,53.08,53.08h102.73c29.27,0,53.09-23.81,53.09-53.08v-102.74c0-29.27-23.81-53.08-53.09-53.08h-102.73Z"/>
      </g>
    </g>
  </g>
</svg>