<?xml version="1.0" encoding="UTF-8"?>
<svg id="Capa_2" data-name="Capa 2" xmlns="http://www.w3.org/2000/svg" viewBox="0 0 495.79 495.79">
  <defs>
    <style>
      .cls-1 {
        opacity: .11;
      }

      .cls-2 {
        fill: #fff;
        stroke-width: 0px;
      }
    </style>
  </defs>
  <g id="Capa_1-2" data-name="Capa 1">
    <g>
      <g class="cls-1">
        <rect class="cls-2" width="495.79" height="495.79" rx="63.72" ry="63.72"/>
      </g>
      <g>
        <path class="cls-2" d="M133.57,206.05h53.66v172.36h-53.66v-172.36ZM160.41,120.4c17.16,0,31.06,13.92,31.06,31.04s-13.9,31.09-31.06,31.09-31.1-13.94-31.1-31.09,13.9-31.04,31.1-31.04"/>
        <path class="cls-2" d="M220.84,206.05h51.39v23.58h.7c7.17-13.56,24.64-27.84,50.73-27.84,54.24,0,64.24,35.67,64.24,82.09v94.53h-53.54v-83.8c0-20-.39-45.71-27.84-45.71s-32.14,21.77-32.14,44.25v85.26h-53.55v-172.36Z"/>
      </g>
    </g>
  </g>
</svg>