<?xml version="1.0" encoding="UTF-8"?>
<svg id="Capa_2" data-name="Capa 2" xmlns="http://www.w3.org/2000/svg" viewBox="0 0 494.6 494.6">
  <defs>
    <style>
      .cls-1 {
        opacity: .11;
      }

      .cls-2 {
        fill: #fff;
        stroke-width: 0px;
      }
    </style>
  </defs>
  <g id="Capa_1-2" data-name="Capa 1">
    <g>
      <g class="cls-1">
        <rect class="cls-2" x="0" width="494.6" height="494.6" rx="63.57" ry="63.57"/>
      </g>
      <path class="cls-2" d="M359.77,222.22h-.04c-2.15.21-4.31.32-6.46.33-23.67,0-45.75-11.93-58.71-31.73v108.05c0,44.11-35.75,79.86-79.86,79.86s-79.86-35.75-79.86-79.86,35.75-79.86,79.86-79.86c1.67,0,3.3.15,4.94.25v39.35c-1.64-.2-3.25-.5-4.94-.5-22.51,0-40.76,18.25-40.76,40.76s18.25,40.76,40.76,40.76,42.4-17.74,42.4-40.25l.39-183.51h37.65c3.55,33.76,30.77,60.13,64.63,62.61v43.74Z"/>
    </g>
  </g>
</svg>