<?xml version="1.0" encoding="UTF-8"?>
<svg id="Capa_2" data-name="Capa 2" xmlns="http://www.w3.org/2000/svg" viewBox="0 0 503.7 503.7">
  <defs>
    <style>
      .cls-1 {
        fill: #fdf4f4;
      }

      .cls-1, .cls-2 {
        stroke-width: 0px;
      }

      .cls-2 {
        fill: #da2128;
      }
    </style>
  </defs>
  <g id="Capa_1-2" data-name="Capa 1">
    <g>
      <circle class="cls-1" cx="251.85" cy="251.85" r="251.85"/>
      <g>
        <path class="cls-2" d="M396.28,174.42c-.08-12.13-9.24-22.13-20.43-22.28-21.74-.29-43.85-.23-65.23-.15l-13.31.04c-3.74.01-6.52,2.59-6.75,6.28-.23,3.64,2.5,6.74,6.34,7.19,1.01.12,2.03.1,3.06.09h24.94c15.9-.02,31.8-.02,47.7,0,6.68.01,9.98,3.25,10.09,9.9.02,1.41,0,2.84-.02,4.25-.03,2.21-.06,4.42.08,6.62.21,3.35-.95,5.8-3.77,7.92-28.24,21.27-56.44,42.59-84.65,63.91l-25.99,19.64c-7.66,5.78-13.36,5.78-21.03-.02-9.39-7.1-18.77-14.23-28.14-21.36-24.32-18.49-49.46-37.62-74.55-55.91-9.78-7.13-13.19-14.33-11.8-24.87.84-6.39,2.86-10.08,10.64-10.11,9.51-.03,19.02-.01,28.54-.02l21.31.02c7.96.02,15.93.03,23.89-.04,2.59-.02,4.81-.87,6.23-2.41,1.2-1.28,1.76-2.95,1.64-4.83-.25-4.02-3.19-6.32-8.06-6.33-24.44-.03-48.87-.04-73.3-.01-15.26.02-24.38,9.22-24.38,24.63-.01,49.02-.01,98.03,0,147.05,0,15.67,9.04,24.66,24.8,24.66h113.25s114.13,0,114.13,0c15.76,0,24.8-8.99,24.81-24.66v-71.99s0-17.99,0-17.99l.02-17.52c.02-13.91.04-27.82-.05-41.72ZM382.54,208.56v82.2l-54.37-41.09,54.37-41.12ZM133.12,208.56l54.41,41.11-54.41,41.14v-82.24ZM382.75,321.49l-.05,2.88c-.07,7.15-3.32,10.33-10.56,10.33-18.36.01-36.73.01-55.1.01h-172.15c-9.28,0-11.09-2.8-12.13-11.79-1.2-10.42,2.22-17.38,11.79-24.02,12.81-8.89,25.44-18.61,37.65-28.01,5.11-3.93,10.23-7.87,15.39-11.78l1.19-.9,13.58,10.25c8.64,6.52,17.25,13.01,25.84,19.52,13.75,10.42,25.47,10.43,39.19.06,11.03-8.34,22.08-16.65,33.13-24.97l4.34-3.27c.37-.27.71-.41,1.05-.54l1.06-.46,1.37.51,47.9,36.18c4.33,3.24,8.82,6.59,13.1,10.07,1.69,1.38,3.03,3.98,3.24,6.31.29,3.22.22,6.46.16,9.6Z"/>
        <path class="cls-2" d="M251.05,158.74c.02,3.59,3.05,6.7,6.63,6.79,1.74-.03,3.49-.67,4.81-1.97,1.34-1.31,2.1-3.08,2.1-4.87,0-1.82-.72-3.51-2.02-4.77-1.28-1.25-2.97-1.93-4.78-1.93-.06,0-.12,0-.17,0-3.64.09-6.58,3.11-6.57,6.74Z"/>
      </g>
    </g>
  </g>
</svg>