<?xml version="1.0" encoding="UTF-8"?>
<svg id="Capa_2" data-name="Capa 2" xmlns="http://www.w3.org/2000/svg" viewBox="0 0 503.7 503.7">
  <defs>
    <style>
      .cls-1 {
        fill: #fdf4f4;
      }

      .cls-1, .cls-2 {
        stroke-width: 0px;
      }

      .cls-2 {
        fill: #da2128;
      }
    </style>
  </defs>
  <g id="Capa_1-2" data-name="Capa 1">
    <g>
      <circle class="cls-1" cx="251.85" cy="251.85" r="251.85"/>
      <g>
        <path class="cls-2" d="M144.76,398.57c-1.84-.62-3.77-1.06-5.51-1.9-7.71-3.74-12.2-9.92-12.3-18.5-.23-20.41-.09-40.83-.08-61.25,0-3.01,1.7-4.93,4.18-4.93,2.55,0,4.19,1.97,4.19,5.21.01,19.48,0,38.97,0,58.45,0,9.7,4.87,14.53,14.65,14.53,61.33,0,122.66,0,184,0,9.54,0,14.44-4.91,14.44-14.46,0-33.28,0-66.57,0-99.85v-2.7c-5.55-.95-10.75-1.9-15.97-2.69-.67-.1-1.79.41-2.14.98-2.11,3.4-4.11,6.88-6,10.41-.34.63-.23,1.79.13,2.45,2.49,4.47,2.46,8.88-.08,13.28-10.98,19.04-21.91,38.11-33,57.08-5.63,9.62-16.42,13.8-26.66,10.68-10.06-3.06-16.97-12.53-16.25-23.09.24-3.51,1.27-7.27,2.99-10.32,10.88-19.31,22.06-38.45,33.14-57.64,2.5-4.34,6.31-6.4,11.29-6.49.71-.01,1.76-.31,2.07-.83,2.36-3.87,4.58-7.82,7.08-12.18h-3.4c-13.24,0-26.47.01-39.71,0-10.09-.01-16.89-5.29-19.45-15.09-.9-3.42-1.67-6.87-2.6-10.29-1.42-5.25-5.14-8.16-10.6-8.17-27.03-.03-54.06-.04-81.09,0-7.47.01-12.83,5.43-12.84,12.94-.04,20.04-.01,40.09-.02,60.13,0,.93.09,1.89-.1,2.79-.47,2.18-1.92,3.47-4.13,3.45-2.21-.03-3.64-1.33-4.06-3.53-.17-.9-.08-1.86-.08-2.79,0-19.39,0-38.78,0-58.17,0-12.85,5.67-20.03,18.22-23.07.35-.08.68-.23,1.21-.41,0-1.13,0-2.23,0-3.34,0-24.71.3-49.42-.12-74.12-.24-14.16,10.48-23.17,23.01-23.1,50.42.29,100.85.11,151.28.13,10.82,0,19.2,6.37,21.43,16.42.5,2.25.46,4.63.53,6.95.08,2.96.02,5.92.02,8.69,5.63.31,10.95.3,16.18.96,26.24,3.29,49.08,25.42,53.5,51.61.34,2.01.73,4,1.1,6v11.75c-.17.52-.41,1.03-.49,1.56-3.74,25.31-17.53,42.8-41.16,52.39-4.67,1.9-9.76,2.8-14.84,4.21v3.15c0,33.65.02,67.3,0,100.94,0,10.91-6.24,18.73-16.88,21.35-.35.09-.67.29-1.01.44h-194.08ZM297.27,246.38c-.57-.89-.86-1.35-1.16-1.8-8.51-12.59-12.01-26.5-10.9-41.61.27-3.72,1.88-5.69,4.54-5.56,2.73.13,3.86,2.16,3.88,5.94.03,5.02-.17,10.13.67,15.03,5.11,29.56,33.6,49.84,63.23,45.26,29.72-4.59,50.71-31.93,46.76-61.79-3.1-23.46-16.39-39.52-38.9-46.44-22.68-6.98-42.5-.68-58.44,16.9-3.21,3.54-5.44,7.96-8.04,12.03-1.11,1.74-2.6,3.06-4.56,2.32-1.36-.51-2.71-1.9-3.32-3.24-.41-.91.24-2.53.81-3.62,8.55-16.59,21.79-27.6,39.68-32.91,1.97-.59,2.7-1.38,2.58-3.42-.17-2.88-.03-5.78-.05-8.67-.04-9.38-4.95-14.27-14.34-14.27-50.24,0-100.48,0-150.71,0-9.42,0-14.31,4.86-14.32,14.26-.01,24.98,0,49.97,0,74.95,0,.98,0,1.95,0,3.09,1.55,0,2.65,0,3.76,0,23.39,0,46.79,0,70.18,0,10.16,0,17.08,5.46,19.56,15.35.91,3.61,1.71,7.25,2.78,10.81,1.31,4.36,4.79,7.27,9.2,7.31,12.2.13,24.41.05,37.11.05ZM272.15,357.9c5.03-.15,9.3-2.84,12.19-7.84,10.79-18.71,21.6-37.41,32.39-56.12,1.96-3.4,1.48-5.07-1.98-7.08-5.39-3.13-10.8-6.24-16.22-9.33-3.78-2.17-5.15-1.77-7.39,2.1-4.15,7.17-8.3,14.34-12.44,21.52-6.7,11.61-13.51,23.17-20.05,34.86-5.61,10.03,1.46,21.99,13.51,21.89ZM316.57,278.23c2.21-3.84,4.23-7.35,6.29-10.93-3.91-2.27-7.62-4.43-11.52-6.7-2.1,3.63-4.16,7.2-6.32,10.95,3.93,2.27,7.59,4.39,11.56,6.68Z"/>
        <path class="cls-2" d="M349.18,167.29c22.79.04,41.18,18.49,41.14,41.29-.03,22.74-18.57,41.23-41.29,41.18-22.76-.05-41.16-18.54-41.12-41.33.04-22.81,18.47-41.19,41.27-41.14ZM349.06,175.68c-18.18.04-32.84,14.78-32.77,32.94.07,18.15,14.84,32.81,32.99,32.75,18.07-.06,32.72-14.93,32.65-33.12-.07-17.96-14.86-32.62-32.87-32.58Z"/>
        <path class="cls-2" d="M240.76,137.33c19.56,0,39.12,0,58.68,0,.93,0,1.89-.09,2.79.09,2.19.44,3.49,1.89,3.49,4.1,0,2.2-1.29,3.65-3.48,4.11-.81.17-1.67.09-2.51.09-39.31,0-78.62,0-117.93,0-.74,0-1.51.08-2.23-.06-2.28-.47-3.64-1.83-3.58-4.26.06-2.3,1.42-3.58,3.57-3.99.9-.17,1.86-.07,2.79-.07,19.47,0,38.94,0,58.41,0Z"/>
        <path class="cls-2" d="M228.28,170.89c-15.37,0-30.73,0-46.1,0-.93,0-1.89.1-2.78-.1-2.14-.49-3.43-1.84-3.4-4.14.03-2.29,1.34-3.6,3.49-4.06.81-.17,1.67-.08,2.51-.08,30.83,0,61.66,0,92.48,0,.74,0,1.5-.06,2.23.04,2.35.32,3.69,1.73,3.87,4.06.17,2.17-1.6,4.01-3.96,4.25-.83.09-1.67.03-2.51.03-15.27,0-30.55,0-45.82,0Z"/>
        <path class="cls-2" d="M223.94,196.06c-13.97,0-27.94,0-41.91,0-.93,0-1.9.1-2.78-.13-2.12-.56-3.35-1.95-3.26-4.25.08-2.17,1.35-3.4,3.36-3.9.71-.17,1.48-.1,2.23-.1,28.31,0,56.62,0,84.93,0,.56,0,1.12-.03,1.68.03,2.36.25,4.06,2.04,4.03,4.22-.03,2.19-1.73,3.92-4.13,4.11-1.11.09-2.23.03-3.35.03-13.6,0-27.19,0-40.79,0Z"/>
      </g>
    </g>
  </g>
</svg>