<?xml version="1.0" encoding="UTF-8"?>
<svg id="Capa_2" data-name="Capa 2" xmlns="http://www.w3.org/2000/svg" viewBox="0 0 503.7 503.7">
  <defs>
    <style>
      .cls-1 {
        fill: #fdf4f4;
      }

      .cls-1, .cls-2 {
        stroke-width: 0px;
      }

      .cls-2 {
        fill: #da2128;
      }
    </style>
  </defs>
  <g id="Capa_1-2" data-name="Capa 1">
    <g>
      <circle class="cls-1" cx="251.85" cy="251.85" r="251.85"/>
      <g>
        <path class="cls-2" d="M253.21,127.84c29.91,17.66,61.53,31.34,94.97,40.8,5.27,1.49,5.98,2.45,5.97,7.88-.03,18.05.28,36.11-.17,54.15-.94,37.74-14.16,70.66-39.94,98.39-12.9,13.87-27.73,25.19-44.83,33.39-4.13,1.98-8.52,3.5-12.9,4.83-5.29,1.61-10.35-.06-15.26-1.95-14.15-5.47-26.63-13.72-38.12-23.47-17.97-15.23-31.94-33.53-41.28-55.25-6.51-15.12-10.9-30.87-11.48-47.3-.75-21.54-.53-43.12-.68-64.68-.02-3.15,1.24-4.62,4.61-5.58,15.02-4.29,29.8-9.23,44.25-15.17,16.63-6.83,32.68-14.82,48.24-23.83,1.27-.74,2.54-1.48,3.81-2.22.94,0,1.88,0,2.81,0ZM344.47,208.56c-.11,0-.23,0-.34-.01,0-9.38-.04-18.75.04-28.13.02-1.74-.38-2.56-2.2-3.09-30.92-9.01-60.35-21.57-88.3-37.57-1.29-.74-2.28-.85-3.63-.07-27.96,16.16-57.45,28.74-88.49,37.68-1.69.49-2.12,1.24-2.12,2.9.06,14.92-.01,29.85.05,44.77.08,17.31,2.62,34.21,8.62,50.52,7.21,19.6,18.37,36.66,33.28,51.23,12.39,12.1,26.29,22.05,42.34,28.84,4.97,2.1,9.84,2.86,14.91.48,2.19-1.03,4.48-1.84,6.63-2.93,26.39-13.32,47.01-32.78,61.49-58.57,9.45-16.83,15.04-34.96,16.48-54.22.79-10.58.84-21.22,1.23-31.83Z"/>
        <path class="cls-2" d="M235.43,256.66c1.08-1.44,1.52-2.2,2.13-2.81,15.9-15.93,31.81-31.85,47.74-47.75,6.29-6.28,14.01-7.46,21.09-3.29,8.22,4.84,10.38,16.42,4.44,23.87-.68.85-1.38,1.7-2.15,2.47-20.21,20.24-40.44,40.46-60.66,60.69-5.09,5.09-11.07,7-17.94,4.5-2.34-.85-4.64-2.35-6.43-4.1-9.78-9.56-19.46-19.22-29.04-28.98-8.42-8.58-6.47-21.62,4.04-26.75,5.98-2.92,12.1-2.49,17.12,1.91,6.09,5.35,11.66,11.3,17.42,17.04.76.76,1.26,1.78,2.25,3.2ZM235.86,286c1.86-1.27,3.84-2.22,5.3-3.68,20.05-19.94,40.03-39.96,60.02-59.95.55-.55,1.12-1.1,1.6-1.71,2.8-3.64,1.12-8.66-3.29-9.93-2.97-.86-5.09.54-7.07,2.52-17.28,17.3-34.58,34.58-51.87,51.87-3.81,3.8-6.11,3.82-9.87.07-6.74-6.73-13.45-13.5-20.24-20.19-2.83-2.79-6.68-2.77-9.2-.17-2.46,2.55-2.46,6.3.26,9.04,9.79,9.87,19.62,19.71,29.53,29.46,1.14,1.12,2.89,1.63,4.83,2.69Z"/>
        <path class="cls-2" d="M169.36,198.72c0-2.81-.03-5.62,0-8.43.04-3.61,1.1-5.06,4.47-6.25,8.59-3.04,17.21-5.99,25.75-9.17,5.2-1.94,8.25,2.05,7.64,5.26-.47,2.48-2.24,3.61-4.39,4.38-7.04,2.53-14.06,5.11-21.13,7.52-1.68.57-2.27,1.32-2.21,3.11.14,4.29.07,8.58.03,12.87-.02,2.25-.82,4.14-3,5.14-1.88.86-3.92.76-5.18-.78-1.04-1.27-1.73-3.11-1.9-4.77-.3-2.94-.08-5.92-.08-8.89Z"/>
        <path class="cls-2" d="M309.26,290.02c4.1.03,6.32,4.28,3.93,7.93-2.34,3.59-4.91,7.04-7.57,10.4-6.64,8.35-14.37,15.6-22.71,22.22-2.85,2.26-5.78,2.23-7.68-.11-1.91-2.34-1.55-5.34,1.23-7.6,7.59-6.17,14.81-12.71,20.92-20.39,2.47-3.11,4.76-6.37,7.11-9.58,1.2-1.64,2.55-2.96,4.78-2.86Z"/>
        <path class="cls-2" d="M266.73,330.49c2.64-.05,5,2.18,5.08,4.8.08,2.71-2.35,5.29-5.11,5.41-2.75.13-5.09-2.13-5.12-4.96-.03-2.83,2.29-5.2,5.16-5.26Z"/>
        <path class="cls-2" d="M221.73,173.24c.06,2.63-2.27,5.01-5.05,5.14-2.64.12-5.09-2.31-5.08-5.05,0-2.56,2.29-4.89,4.91-5.02,2.65-.13,5.15,2.24,5.21,4.94Z"/>
      </g>
    </g>
  </g>
</svg>