<?xml version="1.0" encoding="UTF-8"?>
<svg id="Capa_2" data-name="Capa 2" xmlns="http://www.w3.org/2000/svg" viewBox="0 0 2072.77 2072.77">
  <defs>
    <style>
      .cls-1 {
        fill: #fceeee;
      }

      .cls-1, .cls-2 {
        stroke-width: 0px;
      }

      .cls-2 {
        fill: #da2128;
      }
    </style>
  </defs>
  <g id="Capa_1-2" data-name="Capa 1">
    <g>
      <rect class="cls-1" y="0" width="2072.77" height="2072.77" rx="223.22" ry="223.22"/>
      <g>
        <path class="cls-2" d="M470.79,793.79c4.89-16.66,10.8-32.68,24.14-44.9,17.71-16.22,39.11-20.63,62.2-20.63,175.95.06,351.9.03,527.84.03,143.56,0,287.11.03,430.67-.03,23.1-.01,44.5,4.4,62.2,20.63,13.34,12.22,19.25,28.25,24.14,44.9v187.45c-3.5,8.82-6.03,18.19-10.68,26.35-11.53,20.21-29.44,32.34-52.14,37.38-129.48,28.78-258.94,57.61-388.48,86.12-8.66,1.91-12.06,4.88-11.7,14.31.84,21.64.45,43.34.21,65.01-.26,22.78-8.78,31.09-31.6,31.13-47.48.07-94.95.07-142.43,0-22.81-.04-31.34-8.35-31.59-31.13-.25-22.41-.4-44.82.13-67.22.18-7.48-2.65-10.13-9.47-11.63-106.56-23.51-213.08-47.21-319.6-70.87-23.31-5.18-46.64-10.29-69.94-15.55-31.86-7.2-52.65-26.21-61.59-57.8-.59-2.09-1.54-4.07-2.32-6.11,0-62.48,0-124.96,0-187.45ZM1139.23,1082.1c5.29-.93,8.57-1.37,11.78-2.09,124.47-27.79,248.94-55.6,373.41-83.42,19.78-4.42,26.25-12.4,26.29-33.17.09-50.34.09-100.69,0-151.03-.04-24.06-8.41-32.46-32.53-32.46-321.04-.04-642.07-.04-963.11,0-24.76,0-32.98,8.29-33.02,33.11-.07,49.61-.05,99.22,0,148.83.02,22.83,5.97,30.08,28.01,35.01,90.75,20.29,181.48,40.64,272.23,60.92,36.52,8.16,73.06,16.18,111.26,24.64,0-6.52-.22-11.93.04-17.32.96-20.18,9.47-28.44,29.67-28.71,13.25-.17,26.51-.04,39.76-.03,35.34,0,70.69-.11,106.03.04,20.84.09,29.33,8.5,30.16,29.33.2,5.05.03,10.12.03,16.35ZM985.85,1088.16v101.41h101.16v-101.41h-101.16Z"/>
        <path class="cls-2" d="M1036.41,1523.84c-152.41,0-304.82-.07-457.23.05-33.38.03-59.95-12.11-74.45-43.1-5.1-10.91-7.67-23.99-7.73-36.1-.58-109.13-.44-218.27-.27-327.4.03-22.14,13.14-32.93,32.91-28.19,8.65,2.07,14.44,7.38,16.45,15.9,1.33,5.64,1.83,11.61,1.84,17.43.1,105.09.07,210.18.08,315.28,0,27.47,7.69,35.06,35.55,35.06,301.87,0,603.75,0,905.62,0,27.9,0,35.59-7.57,35.59-35.01,0-105.83-.01-211.65.02-317.48,0-20.17,6.23-29.17,21.59-31.69,15.72-2.58,27.55,6.3,29.27,22.08.36,3.28.46,6.6.46,9.9.02,106.93-.1,213.86.09,320.79.06,33.33-11.89,60.12-43.11,74.21-12.57,5.67-27.69,7.9-41.66,7.95-151.67.54-303.34.34-455.01.34Z"/>
        <path class="cls-2" d="M1036.34,548.9c40.86,0,81.71-.07,122.57.02,51.97.11,82.92,31.11,83.04,83.09.02,7.34.35,14.74-.39,22.02-1.46,14.47-11.95,23.33-26.13,22.83-13.8-.49-23.26-9.35-24.32-23.56-.6-8.04-.09-16.16-.37-24.23-.66-19.28-9.39-28.88-28.45-28.94-83.92-.3-167.84-.3-251.76,0-19.1.07-27.82,9.61-28.52,28.88-.34,9.17.28,18.44-.81,27.5-1.43,11.8-10.51,19.29-22.7,20.27-11.93.96-23.93-5.25-25.63-16.26-4.39-28.3-5.16-56.62,13.32-81.27,15.96-21.28,38.08-30.32,64.27-30.34,41.96-.03,83.92,0,125.88-.01Z"/>
      </g>
    </g>
  </g>
</svg>