<?xml version="1.0" encoding="UTF-8"?>
<svg id="Capa_2" data-name="Capa 2" xmlns="http://www.w3.org/2000/svg" viewBox="0 0 503.7 503.7">
  <defs>
    <style>
      .cls-1 {
        fill: #fdf4f4;
        stroke-width: 0px;
      }

      .cls-2 {
        fill: #da2128;
        stroke: #da2128;
        stroke-miterlimit: 10;
        stroke-width: 1.2px;
      }
    </style>
  </defs>
  <g id="Capa_1-2" data-name="Capa 1">
    <g>
      <circle class="cls-1" cx="251.85" cy="251.85" r="251.85"/>
      <g>
        <path class="cls-2" d="M251.01,144.34c-3.35.4-5.74,3.34-5.33,6.58.41,3.24,3.46,5.54,6.81,5.15,3.35-.4,5.74-3.34,5.33-6.58-.41-3.24-3.46-5.54-6.81-5.15Z"/>
        <path class="cls-2" d="M281.72,219.61c0-15.31-12.91-27.77-28.77-27.77s-28.77,12.46-28.77,27.77,12.91,27.77,28.77,27.77,28.77-12.46,28.77-27.77ZM231.24,219.61c0-11.55,9.74-20.95,21.71-20.95s21.71,9.4,21.71,20.95-9.74,20.95-21.71,20.95-21.71-9.4-21.71-20.95Z"/>
        <path class="cls-2" d="M201.4,301.3c0,1.77,1.49,3.21,3.32,3.21s3.32-1.43,3.32-3.21c0-20.53,20.2-37.23,45.04-37.23s45.04,16.7,45.04,37.23c0,1.77,1.49,3.21,3.32,3.21s3.32-1.43,3.32-3.21c0-11.75-5.44-22.76-15.31-31.02-9.74-8.14-22.65-12.63-36.37-12.63s-26.63,4.48-36.37,12.63c-9.87,8.26-15.31,19.27-15.31,31.02Z"/>
        <path class="cls-2" d="M194.7,325.59c0,1.77,1.49,3.21,3.32,3.21h106.98c1.83,0,3.32-1.43,3.32-3.21s-1.49-3.21-3.32-3.21h-106.98c-1.83,0-3.32,1.43-3.32,3.21Z"/>
        <path class="cls-2" d="M290.95,338.77c0-1.77-1.49-3.21-3.32-3.21h-72.23c-1.83,0-3.32,1.43-3.32,3.21s1.49,3.21,3.32,3.21h72.23c1.83,0,3.32-1.43,3.32-3.21Z"/>
        <ellipse class="cls-2" cx="209.05" cy="382.37" rx="3.77" ry="3.64"/>
        <path class="cls-2" d="M322.65,137.21h-45.7l7.26-36.33c.94-4.69-2.25-9.24-7.12-10.15l-26.23-4.88c-4.86-.9-9.58,2.18-10.51,6.87l-.36,1.8-7.37.76c-3.98.41-6.87,3.87-6.44,7.72l3.81,34.22h-46.09c-11.07,0-20.08,9.35-20.08,20.85v207.08c0,11.5,9.01,20.85,20.08,20.85h13.75c2.03,0,3.67-1.59,3.67-3.55s-1.64-3.55-3.67-3.55h-13.75c-7.02,0-12.73-6.17-12.73-13.76v-207.08c0-7.58,5.71-13.76,12.73-13.76h46.14l-2.89,14.45c-.94,4.69,2.25,9.24,7.11,10.15l26.23,4.88c4.86.9,9.58-2.18,10.51-6.87l4.59-23v.38h47.04c7.02,0,12.73,6.17,12.73,13.76v207.08c0,7.58-5.71,13.76-12.73,13.76h-102.15c-2.03,0-3.67,1.59-3.67,3.55s1.64,3.55,3.67,3.55h102.15c11.07,0,20.08-9.35,20.08-20.85v-207.08c0-11.5-9.01-20.85-20.08-20.85ZM230.93,139.8h0s3.59-17.95,3.59-17.95l-2.17-19.5c-.06-.55.36-1.05.93-1.11l5.47-.57-7.82,39.13ZM276.66,99.47l-13.19,66.04c-.14.68-.82,1.12-1.52.99l-26.23-4.88c-.7-.13-1.16-.79-1.03-1.46l13.19-66.04c.14-.68.82-1.12,1.52-.99l26.23,4.88c.7.13,1.16.79,1.03,1.46Z"/>
      </g>
    </g>
  </g>
</svg>