<?xml version="1.0" encoding="UTF-8"?>
<svg id="Capa_2" data-name="Capa 2" xmlns="http://www.w3.org/2000/svg" viewBox="0 0 503.7 503.7">
  <defs>
    <style>
      .cls-1 {
        fill: #fdf4f4;
      }

      .cls-1, .cls-2 {
        stroke-width: 0px;
      }

      .cls-2 {
        fill: #da2128;
      }
    </style>
  </defs>
  <g id="Capa_1-2" data-name="Capa 1">
    <g>
      <circle class="cls-1" cx="251.85" cy="251.85" r="251.85"/>
      <g>
        <path class="cls-2" d="M101.91,160.4c1.33-1.81,3.02-3.04,5.49-3.12,9.84-.3,19.02-3.29,28.29-5.97,14.03-4.05,27.96-8.49,42.19-11.82,13.92-3.26,28.15-3.72,42.17.19,12.88,3.59,23.13,10.58,30.76,20.9.54.73,1.11,1.45,1.85,2.41,1.53-1.92,2.85-3.69,4.3-5.37,11.08-12.93,25.73-19.25,43.26-20.33,17.51-1.09,34,3.18,50.42,7.98,12.61,3.69,25.22,7.38,37.9,10.87,2.87.79,6,.82,9.01,1.11,4.38.42,5.93,1.89,5.93,5.95.01,60,.01,119.99,0,179.99,0,4.28-1.97,5.87-6.61,5.67-10.02-.41-19.44-3.28-28.9-6.01-13.94-4.02-27.77-8.43-41.88-11.85-11.84-2.87-24.01-3.49-36.12-.62-8.07,1.91-15.11,5.5-21.07,10.93-.7.64-1.38,1.31-2.13,1.89-2.41,1.87-4.95,1.91-6.88.15-1.93-1.76-2.1-4.69.21-6.6,3.94-3.27,7.91-6.64,12.37-9.2,12.34-7.07,26.02-8.72,40.23-7.67,16.49,1.21,31.97,6.19,47.55,10.91,9.95,3.02,20.08,5.55,30.14,8.27.92.25,1.91.25,3.21.4.06-1.15.14-2.12.14-3.09,0-55.7,0-111.39.06-167.09,0-2.35-.58-3.23-3.28-3.6-14.65-2-28.25-7.41-42.24-11.58-13.75-4.1-27.58-7.87-42.2-7.96-16.23-.1-30.39,4.47-40.86,16.52-3.1,3.57-5.29,7.86-7.65,11.95-1.1,1.91-2.22,3.46-4.73,3.51-2.65.05-4-1.42-4.97-3.55-8.24-18.13-23.34-27.14-44.07-28.31-14.13-.8-27.67,2.3-41,6.23-12.05,3.55-24.02,7.34-36.09,10.81-4.19,1.2-8.59,1.85-12.93,2.56-1.61.26-2.25.83-2.11,2.29.05.54,0,1.1,0,1.65,0,55.33,0,110.66,0,165.99v3.75c2.76-.44,5.29-.59,7.64-1.27,11.61-3.33,23.17-6.77,34.74-10.23,14.6-4.36,29.31-8.28,44.8-8.43,17.6-.17,33.24,4.53,45.88,16.47,1.79,1.7,2.85,3.55,1.81,5.9-1.32,2.98-5.12,3.45-8.1,1.1-2.91-2.3-5.64-4.86-8.79-6.84-9.28-5.83-19.75-7.68-30.78-7.53-16.55.23-31.96,5.12-47.49,9.68-12.04,3.53-24.21,6.7-36.37,9.86-2.32.61-4.87.47-7.31.68-2.67.22-4.38-1.15-5.79-3.03v-185.48Z"/>
        <path class="cls-2" d="M101.91,361.24c1.41-2.43,3.74-2.9,6.52-3.41,8.91-1.63,17.82-3.41,26.55-5.73,14.12-3.74,27.97-8.47,42.19-11.83,14.1-3.34,28.5-3.93,42.76.02,8.43,2.33,15.8,6.3,22.41,11.66,1.18.96,3.06,1.18,4.62,1.73.17.06.39,0,.59.01,8.07.68,14.86-.79,21.74-5.89,12.45-9.23,27.68-10.95,43.28-9.81,16.5,1.2,31.98,6.15,47.55,10.89,9.58,2.92,19.28,5.52,28.99,8.05,2.79.73,5.8.78,8.73,1.02,3.51.29,5.75,2.15,5.59,4.81-.16,2.74-2.51,4.41-6.06,4.27-10.22-.38-19.83-3.28-29.48-6.07-13.93-4.03-27.77-8.43-41.88-11.85-11.84-2.87-24.02-3.47-36.12-.59-8.06,1.92-15.2,5.44-21.01,11-2.52,2.41-5.22,3.52-8.85,3.38-5.29-.21-10.6-.12-15.9-.03-2.63.05-4.75-.68-6.58-2.45-10.61-10.18-23.85-13.83-38.71-13.6-16.54.26-31.96,5.11-47.49,9.68-12.04,3.54-24.21,6.7-36.36,9.87-2.32.61-4.87.48-7.31.68-2.67.21-4.38-1.16-5.77-3.06v-2.74Z"/>
        <path class="cls-2" d="M257.51,259.2c0,21.75,0,43.51,0,65.26,0,4.65-1.53,6.71-4.91,6.65-3.26-.06-4.71-2.06-4.71-6.57,0-43.69,0-87.38,0-131.08,0-4.4,1.56-6.54,4.76-6.58,3.22-.03,4.85,2.14,4.85,6.49,0,21.94,0,43.87,0,65.81Z"/>
      </g>
    </g>
  </g>
</svg>