<?xml version="1.0" encoding="UTF-8"?>
<svg id="Capa_2" data-name="Capa 2" xmlns="http://www.w3.org/2000/svg" viewBox="0 0 503.7 503.7">
  <defs>
    <style>
      .cls-1 {
        fill: #fdf4f4;
      }

      .cls-1, .cls-2 {
        stroke-width: 0px;
      }

      .cls-3 {
        isolation: isolate;
      }

      .cls-2 {
        fill: #da2128;
      }
    </style>
  </defs>
  <g id="Capa_1-2" data-name="Capa 1">
    <g>
      <circle class="cls-1" cx="251.85" cy="251.85" r="251.85"/>
      <g class="cls-3">
        <path class="cls-2" d="M369.51,324.38c-.04-2.42-1.8-3.84-4.28-4-1.62-.1-3.25-.02-5.05-.02v-3.89c0-37.67,0-75.34,0-113.01,0-7.56-4.59-13.26-12.03-14.37-3.54-.53-7.22-.26-10.83-.23-3.29.03-5.33,1.85-5.37,4.58-.04,2.71,1.98,4.63,5.23,4.78,2.45.11,4.91-.02,7.36.1,5.17.24,6.24,1.41,6.24,6.66,0,37.38,0,74.75,0,112.13v3.25c-14.63,0-28.88.53-43.06-.18-10.28-.51-19.28,1.23-27.07,8.21-1.02.92-2.84,1.32-4.29,1.33-12.66.1-25.35-.54-37.96.25-9.71.61-17.79-1.81-25.12-7.92-1.28-1.06-3.36-1.61-5.08-1.62-17.27-.12-34.54-.07-51.81-.07h-3.42c0-4.39.02-8.48-.02-12.58-.01-1.06,0-2.2-.37-3.17-.87-2.3-2.71-3.41-5.12-2.96-2.53.47-3.87,2.21-3.89,4.81-.04,4.58-.01,9.15-.01,13.91-1.54,0-2.7,0-3.86,0-3.96.03-5.54,1.57-5.56,5.47-.02,2.94-.03,5.89,0,8.83.13,12.91,10.55,23.34,23.52,23.36,43.56.04,87.13.02,130.69.01,3.72,0,5.87-1.75,5.89-4.68.02-2.94-2.14-4.69-5.85-4.73-.69,0-1.37,0-2.06,0-42.29,0-84.58,0-126.87,0-11.19,0-17.54-7.6-15.53-18.83h3.13c15.99,0,32.01.55,47.97-.21,9.51-.45,17.37,1.88,24.57,7.78,1.42,1.16,3.71,1.75,5.61,1.77,13.93.14,27.89-.44,41.79.25,10.08.5,18.87-1.28,26.54-8.05,1.16-1.02,3.2-1.47,4.83-1.48,19.52-.1,39.05-.06,58.58-.06h3.24c0,1.1,0,1.78,0,2.46.07,10.78-5.45,16.37-16.19,16.38-5.3,0-10.6-.02-15.89.01-3.48.02-5.57,1.83-5.57,4.7,0,2.86,2.1,4.68,5.57,4.7,6.18.03,12.36.09,18.54,0,10.92-.17,20.59-8.16,22.35-18.97.78-4.79.6-9.77.51-14.65Z"/>
        <path class="cls-2" d="M195.17,302.09c37.77.05,75.54.04,113.31,0,7.77,0,13.95-6.29,14.02-14.09.06-5.98.04-11.97,0-17.95-.02-3.47-1.83-5.58-4.68-5.59-2.86-.02-4.69,2.09-4.72,5.55-.04,5.3,0,10.59-.01,15.89,0,5.41-1.37,6.79-6.75,6.79-36.3,0-72.59,0-108.89,0-5.43,0-6.81-1.36-6.81-6.73,0-49.04,0-98.08,0-147.13,0-5.45,1.35-6.83,6.71-6.83,28.06,0,56.11,0,84.17,0h3.32c0,4.87-.02,9.36,0,13.86.05,8.17,6.18,14.33,14.32,14.39,4.5.03,9.01,0,13.93,0v3.83c0,22.07,0,44.14,0,66.2,0,3.71,1.77,5.87,4.7,5.87,2.93,0,4.71-2.16,4.71-5.86.01-24.72.04-49.43-.08-74.15,0-1.55-.84-3.46-1.94-4.58-8.91-9.12-17.94-18.12-27.04-27.05-1.01-.99-2.67-1.85-4.03-1.85-31.49-.1-62.98-.12-94.47-.05-7.45.02-13.7,6.31-13.7,13.78-.05,50.61-.04,101.22,0,151.83,0,7.61,6.3,13.85,13.93,13.86ZM294.46,139.28c3.81,3.82,7.46,7.48,11.05,11.08-8.43,3.05-12.07-.43-11.05-11.08Z"/>
        <path class="cls-2" d="M203.9,179.21c-2.37.56-3.79,2.11-3.79,4.58,0,2.47,1.42,4.02,3.78,4.59.93.22,1.95.12,2.93.12,30.02,0,60.04,0,90.07,0,.88,0,1.79.09,2.64-.07,2.53-.47,4.07-2.03,4.07-4.63,0-2.6-1.53-4.16-4.06-4.64-.86-.16-1.76-.07-2.64-.07-14.91,0-29.83,0-44.74,0s-30.22,0-45.33,0c-.98,0-2-.1-2.93.12Z"/>
        <path class="cls-2" d="M204.69,207.31c.78.07,1.57.03,2.35.03,14.91,0,29.83,0,44.74,0s30.02,0,45.03,0c.88,0,1.78.09,2.64-.06,2.54-.44,4.02-1.97,4.16-4.57.13-2.44-1.73-4.44-4.3-4.74-.78-.09-1.57-.04-2.35-.04-30.12,0-60.24,0-90.36,0-.59,0-1.18-.03-1.77.01-2.81.2-4.72,2.05-4.76,4.62-.04,2.57,1.84,4.53,4.61,4.76Z"/>
        <path class="cls-2" d="M203.89,226.05c.93.22,1.95.12,2.93.12,30.02,0,60.04,0,90.07,0,.88,0,1.79.09,2.64-.07,2.53-.47,4.07-2.03,4.07-4.63,0-2.6-1.53-4.16-4.06-4.64-.86-.16-1.76-.07-2.64-.07-14.91,0-29.83,0-44.74,0s-30.22,0-45.33,0c-.98,0-2-.1-2.93.12-2.37.56-3.79,2.11-3.79,4.58,0,2.47,1.42,4.02,3.78,4.59Z"/>
        <path class="cls-2" d="M303.62,240.19c-.16-2.59-1.65-4.13-4.19-4.54-.86-.14-1.76-.06-2.64-.06-29.92,0-59.85,0-89.77,0-.98,0-1.99-.1-2.94.09-2.53.51-4.01,2.11-3.96,4.72.04,2.47,1.5,3.99,3.89,4.5.94.2,1.95.1,2.93.1,14.91,0,29.83,0,44.74,0s30.02,0,45.03,0c.88,0,1.77.06,2.65-.05,2.56-.31,4.42-2.34,4.27-4.77Z"/>
        <path class="cls-2" d="M296.9,254.43c-14.91,0-29.83,0-44.74,0s-30.22,0-45.33,0c-.98,0-2-.1-2.93.12-2.37.56-3.79,2.11-3.79,4.58,0,2.47,1.42,4.03,3.78,4.59.93.22,1.95.12,2.93.12,30.02,0,60.04,0,90.07,0,.88,0,1.79.09,2.64-.07,2.53-.47,4.07-2.03,4.07-4.63,0-2.6-1.53-4.16-4.06-4.64-.86-.16-1.76-.07-2.64-.07Z"/>
        <path class="cls-2" d="M147.92,273.23c2.94.21,5.01-2,5.02-5.53.03-9.8.01-19.6.01-29.4,0-11.47-.01-22.93,0-34.4,0-3.74,1.42-5.33,4.93-5.49,3.03-.14,6.08-.05,9.11-.24,3.01-.19,4.9-2.25,4.77-4.88-.12-2.54-2-4.3-4.91-4.42-2.45-.1-4.91.05-7.35-.09-9.32-.53-15.96,5.69-15.97,15.07,0,10.39,0,20.77,0,31.16,0,10.88-.02,21.75,0,32.63,0,3.35,1.65,5.39,4.37,5.59Z"/>
        <path class="cls-2" d="M251.86,169.67c9.03,0,18.05.01,27.08,0,3.71,0,5.87-1.77,5.86-4.71,0-2.93-2.16-4.69-5.87-4.7-18.05-.01-36.1-.01-54.16,0-3.71,0-5.86,1.76-5.86,4.7,0,2.94,2.15,4.69,5.87,4.7,9.03.02,18.05,0,27.08,0Z"/>
        <path class="cls-2" d="M143.56,287.18c-.12,2.55,1.9,4.77,4.46,4.9,2.54.13,4.78-1.9,4.91-4.46.13-2.56-1.88-4.76-4.46-4.88-2.59-.12-4.78,1.86-4.91,4.43Z"/>
        <path class="cls-2" d="M308.39,348.67c-2.6-.01-4.69,2.06-4.69,4.64,0,2.57,2.1,4.68,4.67,4.69,2.56,0,4.69-2.1,4.7-4.66.01-2.58-2.07-4.66-4.68-4.67Z"/>
        <path class="cls-2" d="M313.11,250.46c.08,2.55,2.28,4.62,4.82,4.55,2.54-.07,4.62-2.28,4.55-4.82-.07-2.57-2.24-4.61-4.82-4.53-2.6.08-4.63,2.22-4.55,4.79Z"/>
      </g>
    </g>
  </g>
</svg>