<?xml version="1.0" encoding="UTF-8"?>
<svg id="Capa_2" data-name="Capa 2" xmlns="http://www.w3.org/2000/svg" viewBox="0 0 503.7 503.7">
  <defs>
    <style>
      .cls-1 {
        fill: #fdf4f4;
      }

      .cls-1, .cls-2 {
        stroke-width: 0px;
      }

      .cls-2 {
        fill: #da2128;
      }
    </style>
  </defs>
  <g id="Capa_1-2" data-name="Capa 1">
    <g>
      <circle class="cls-1" cx="251.85" cy="251.85" r="251.85"/>
      <g>
        <path class="cls-2" d="M411.35,354.33c-1.92,5.6-6.04,8.01-11.24,9.44-18.52,5.08-36.98,10.43-55.46,15.65-7.8,2.2-12.95-.95-15.04-9.24-10.15-40.24-20.28-80.49-30.42-120.73-4.9-19.45-9.78-38.91-14.68-58.36-.18-.73-.43-1.44-1.08-2.11v3.13c0,24.94,0,49.88,0,74.83,0,1.09.08,2.22-.16,3.26-.51,2.3-1.96,3.68-4.21,3.57-2.35-.12-3.76-1.6-4-4.14-.09-.98-.04-1.99-.04-2.98,0-39.95,0-79.89,0-119.84,0-4.72-.31-5.06-4.79-5.06-19.26,0-38.51,0-57.77,0-4.08,0-4.49.43-4.49,4.77,0,73.34,0,146.67,0,220.01,0,4.4.36,4.78,4.47,4.78,19.35,0,38.7,0,58.05,0,4.16,0,4.53-.39,4.53-4.72,0-24.64,0-49.29,0-73.93,0-.89-.05-1.8.04-2.68.25-2.53,1.62-4.03,4-4.14,2.41-.11,3.81,1.4,4.28,3.83.17.86.09,1.78.09,2.67,0,24.94,0,49.88,0,74.83,0,8.57-4.2,13.06-12.26,13.07-19.72.02-39.45.06-59.17-.06-2.35-.01-4.68-1.01-7.04-1.47-.74-.15-1.55-.18-2.28-.03-2.35.47-4.69,1.49-7.03,1.5-19.72.12-39.44.08-59.17.06-8.13,0-12.29-4.43-12.29-13,0-73.83,0-147.66,0-221.5,0-8.39,4.21-12.89,12.1-12.93,6.45-.03,12.9,0,19.35,0,2.02,0,3.92.64,4.4,2.87.29,1.36.11,3.4-.7,4.32-.92,1.05-2.75,1.62-4.2,1.66-6.16.17-12.34.06-18.51.08-3.55.01-4.03.53-4.03,4.33,0,73.63,0,147.27,0,220.9,0,3.82.45,4.32,4.03,4.32,19.63.01,39.26.01,58.89,0,3.6,0,4.03-.46,4.03-4.3,0-73.63,0-147.27,0-220.9,0-3.88-.42-4.33-4-4.34-6.26-.02-12.53-.02-18.79,0-2.25,0-4.1-.69-4.83-3.18-.82-2.79.88-5.59,3.79-5.64,7.66-.13,15.37-.5,22.96.31,3.52.38,6.77,1.43,10.23-.17,1.04-.48,2.4-.25,3.61-.25,19.35-.01,38.7.06,58.05-.05,5.71-.03,10.02,1.97,12.41,8.06,6.59-1.87,13.14-3.71,19.69-5.57,12.89-3.67,25.77-7.37,38.66-11.02,8.22-2.33,13.26.71,15.44,9.34,17.08,67.74,34.14,135.49,51.22,203.23,1.03,4.09,2.24,8.12,3.36,12.19v5.37ZM339.76,371.48c1.62-.42,2.43-.62,3.24-.85,18.48-5.24,36.95-10.5,55.44-15.73,4.79-1.35,4.98-1.65,3.7-6.72-8.53-33.82-17.06-67.64-25.59-101.45-9.33-36.98-18.67-73.95-27.95-110.95-.63-2.51-1.51-3.98-4.22-3.21-19.55,5.59-39.11,11.15-58.67,16.72-1.88.53-2.62,1.77-2.14,3.79.21.87.44,1.72.66,2.59,14.34,56.91,28.68,113.82,43.03,170.73,3.5,13.89,7,27.79,10.59,41.65.34,1.3,1.32,2.41,1.91,3.44Z"/>
        <path class="cls-2" d="M188.76,198.84c0,9.94.02,19.87,0,29.81-.02,7.45-4.14,11.81-11.17,11.84-7.76.03-15.51.04-23.27,0-6.61-.04-10.94-4.53-10.95-11.54-.05-20.17-.05-40.34,0-60.51.02-7.01,4.32-11.48,10.96-11.52,7.85-.05,15.7-.05,23.55,0,6.7.05,10.85,4.44,10.89,11.52.05,10.13.01,20.27.01,30.4ZM151.75,186.78c0,14.26,0,28.14,0,42.03,0,2.26,1.25,2.78,3.12,2.77,7.28-.05,14.57-.01,21.85-.02,3.42,0,3.62-.22,3.62-3.93,0-12.71,0-25.42,0-38.12,0-.86-.1-1.73-.16-2.72h-28.43ZM151.77,177.48h28.58c0-3.18,0-6.15,0-9.12,0-1.74-.81-2.52-2.42-2.52-7.93.01-15.87-.06-23.8.11-.8.02-2.17,1.39-2.25,2.24-.28,3.02-.11,6.08-.11,9.28Z"/>
        <path class="cls-2" d="M218.82,198.66c0-9.84-.02-19.67,0-29.51.02-8.1,3.95-12.23,11.62-12.25,7.57-.02,15.14-.04,22.71,0,6.81.04,11.05,4.44,11.07,11.7.06,20.07.06,40.14,0,60.2-.02,7.23-4.31,11.63-11.12,11.67-7.76.04-15.51.04-23.27,0-6.85-.04-10.96-4.39-10.99-11.72-.05-10.03-.01-20.07-.01-30.1ZM227.24,186.8c0,14.3,0,28.28,0,42.26,0,2.21,1.32,2.51,3.01,2.51,7.19-.03,14.38,0,21.56-.01,3.74,0,4.01-.28,4.02-4.19,0-12.5,0-25.01,0-37.51,0-.97-.08-1.93-.12-3.05h-28.46ZM255.79,177.58c0-3.35.17-6.42-.11-9.44-.08-.83-1.48-2.17-2.3-2.18-7.92-.17-15.85-.15-23.78-.03-.77.01-2.14,1-2.18,1.61-.22,3.3-.1,6.62-.1,10.04h28.47Z"/>
        <path class="cls-2" d="M166.17,320.75c10.36.05,18.65,8.95,18.59,19.94-.06,10.94-8.5,19.72-18.88,19.64-10.17-.08-18.47-8.99-18.45-19.81.01-10.99,8.39-19.82,18.74-19.77ZM176.34,340.55c.01-5.95-4.48-10.78-10.09-10.86-5.76-.08-10.4,4.74-10.42,10.82-.01,5.92,4.53,10.81,10.11,10.88,5.75.07,10.39-4.77,10.4-10.84Z"/>
        <path class="cls-2" d="M260.1,340.55c0,11.01-8.32,19.81-18.71,19.78-10.33-.03-18.58-8.92-18.53-19.98.05-10.86,8.31-19.58,18.57-19.61,10.4-.03,18.66,8.74,18.66,19.8ZM241.47,329.69c-5.65,0-10.15,4.72-10.2,10.7-.05,6.13,4.48,11,10.22,10.99,5.63,0,10.14-4.74,10.2-10.72.06-6.15-4.44-10.98-10.22-10.98Z"/>
        <path class="cls-2" d="M166.16,303.1c-5.31,0-10.63.03-15.94-.01-3.1-.02-4.84-1.67-4.84-4.44,0-2.73,1.79-4.46,4.85-4.47,10.53-.04,21.07-.04,31.6,0,3.15.01,5.15,1.93,5.05,4.64-.1,2.63-1.97,4.26-5.06,4.28-5.22.03-10.44,0-15.66,0Z"/>
        <path class="cls-2" d="M241.58,303.1c-5.31,0-10.63.03-15.94-.01-3.03-.02-4.92-1.76-4.93-4.4-.01-2.65,1.88-4.5,4.87-4.51,10.63-.04,21.26-.05,31.89,0,3.03.01,4.81,1.84,4.74,4.59-.06,2.63-1.78,4.29-4.68,4.31-5.31.05-10.63.01-15.94.01Z"/>
        <path class="cls-2" d="M241.43,256.48c5.31,0,10.63-.03,15.94.01,3.09.02,4.85,1.69,4.84,4.44-.01,2.71-1.8,4.45-4.88,4.47-10.53.05-21.07.04-31.6,0-3.16-.01-5.12-1.92-5.02-4.66.1-2.62,1.97-4.23,5.06-4.25,5.22-.03,10.44,0,15.66,0Z"/>
        <path class="cls-2" d="M166.07,265.42c-5.13,0-10.25.02-15.38,0-3.49-.02-5.35-1.68-5.3-4.61.05-2.84,1.78-4.31,5.22-4.31,10.35-.02,20.69-.02,31.04,0,3.28,0,5.21,1.66,5.24,4.38.03,2.7-1.97,4.51-5.16,4.54-5.22.04-10.44.01-15.66.01Z"/>
        <path class="cls-2" d="M165.94,284.23c-5.14,0-10.28.04-15.42-.01-3.42-.03-5.14-1.59-5.13-4.46.01-2.85,1.76-4.43,5.17-4.45,10.37-.04,20.75-.04,31.12,0,3.26.01,5.22,1.79,5.21,4.48-.01,2.7-1.96,4.39-5.25,4.42-5.23.05-10.47.01-15.7.01Z"/>
        <path class="cls-2" d="M241.41,275.3c5.33,0,10.66-.06,15.98.02,3.31.05,5.22,2.17,4.77,5.12-.34,2.24-1.67,3.67-3.79,3.68-11.21.08-22.43.1-33.64.01-2.44-.02-4.07-2.08-4.03-4.43.04-2.45,1.76-4.3,4.44-4.36,5.42-.11,10.84-.03,16.26-.03,0,0,0-.01,0-.02Z"/>
        <path class="cls-2" d="M325.13,240.03c-5.53.04-9.27-3.23-10.75-9.1-3.58-14.18-7.15-28.36-10.71-42.54-1.35-5.37-2.76-10.72-3.99-16.11-1.41-6.16,1.64-11.69,7.36-13.38,7.73-2.28,15.48-4.49,23.25-6.62,6.47-1.77,11.57,1.32,13.32,8.17,5,19.53,9.94,39.07,14.82,58.63,1.62,6.48-1.37,12.02-7.45,13.86-7.81,2.36-15.67,4.53-23.51,6.74-.89.25-1.84.28-2.34.36ZM312.32,188.2c3.52,13.9,6.94,27.39,10.33,40.89.6,2.39,2.17,2.09,3.77,1.63,7.03-1.98,14.04-4.08,21.1-5.96,2.65-.7,3.21-2.09,2.49-4.74-1.66-6.1-3.15-12.24-4.7-18.37-1.78-7.06-3.55-14.13-5.36-21.32-9.28,2.64-18.27,5.2-27.63,7.87ZM337.73,171.68c-.78-3.2-1.35-6.21-2.33-9.07-.28-.82-1.9-1.85-2.65-1.66-7.78,2.04-15.52,4.26-23.22,6.63-.75.23-1.71,1.94-1.58,2.78.48,3,1.4,5.91,2.18,8.97.91-.16,1.64-.23,2.34-.43,8.36-2.38,16.71-4.78,25.26-7.23Z"/>
        <path class="cls-2" d="M363.71,352.69c-10.44.03-18.69-8.67-18.71-19.74-.02-11.04,8.22-19.8,18.64-19.82,10.23-.02,18.52,8.73,18.57,19.6.06,11.08-8.14,19.92-18.51,19.96ZM363.68,343.74c5.67-.03,10.11-4.73,10.14-10.75.03-6.13-4.51-10.96-10.27-10.93-5.64.03-10.1,4.77-10.14,10.77-.04,6.15,4.46,10.93,10.27,10.91Z"/>
        <path class="cls-2" d="M368.99,269.63c-.09,2.08-1.04,3.67-3.1,4.27-10.7,3.07-21.4,6.15-32.13,9.13-2.36.66-4.38-.78-4.97-3.11-.6-2.37.42-4.7,2.78-5.39,10.69-3.12,21.4-6.17,32.13-9.11,2.88-.79,5.19,1.19,5.28,4.21Z"/>
        <path class="cls-2" d="M328.36,265c-2.42,0-3.93-1.35-4.26-3.81-.34-2.5.92-4.23,3.17-4.9,5.56-1.66,11.15-3.21,16.73-4.8,4.95-1.41,9.89-2.86,14.85-4.22,2.54-.69,4.74.55,5.38,2.88.67,2.45-.41,4.9-2.89,5.62-10.6,3.1-21.23,6.08-31.85,9.09-.36.1-.74.09-1.12.14Z"/>
        <path class="cls-2" d="M373.61,288.92c-.72.71-1.8,2.65-3.27,3.1-10.56,3.23-21.2,6.2-31.84,9.14-2.4.66-4.51-.73-5.11-2.95-.67-2.48.4-4.87,2.9-5.6,10.69-3.13,21.39-6.2,32.12-9.14,2.77-.76,5.19,1.46,5.19,5.45Z"/>
      </g>
    </g>
  </g>
</svg>