<?xml version="1.0" encoding="UTF-8"?>
<svg id="Capa_2" data-name="Capa 2" xmlns="http://www.w3.org/2000/svg" viewBox="0 0 503.7 503.7">
  <defs>
    <style>
      .cls-1 {
        fill: #fdf4f4;
      }

      .cls-1, .cls-2 {
        stroke-width: 0px;
      }

      .cls-2 {
        fill: #da2128;
      }
    </style>
  </defs>
  <g id="Capa_1-2" data-name="Capa 1">
    <g>
      <circle class="cls-1" cx="251.85" cy="251.85" r="251.85"/>
      <g>
        <path class="cls-2" d="M208.81,316.01c6.36,9.39,12.39,18.29,18.43,27.2,7.15,10.57,14.46,21.03,21.44,31.71,9.46,14.46,3.24,32.59-12.89,38.19-10.94,3.79-22.87-.55-30.05-11.09-14.14-20.74-28.21-41.53-42.31-62.3-.69-1.02-1.42-2.03-2.22-3.15-6.41,3.98-13.12,6.35-20.53,6.56-23.71.7-43.37-18.71-42.77-42.46.34-13.72,6.43-24.48,17.64-32.28,8.32-5.79,16.85-11.31,25.14-17.13,1.78-1.25,3.41-3.1,4.37-5.04,16.04-32.29,31.96-64.63,47.91-96.97,3.85-7.81,10.36-11.87,18.8-12.86,10.64-1.25,20.25,2.27,29.38,7.2,16.66,8.99,30.15,21.75,42.04,36.26,17.42,21.25,31.01,44.62,38.15,71.36,3.01,11.29,4.58,22.78,2.17,34.45-1.23,5.95-3.6,11.37-7.93,15.75-4.2,4.25-9.24,6.6-15.29,7.07-29.62,2.28-59.23,4.69-88.85,7.06-.7.06-1.39.24-2.65.47M199.8,173.02c.86,4.87,1.42,11.07,3.08,16.96,10.44,36.96,31.05,67.33,60.58,91.67,8.19,6.74,17.3,12.06,27.89,14.43,5.59,1.25,10.46-.28,13.9-4.4,2.57-3.09,4.59-7.05,5.59-10.95,2.05-7.93.96-16.01-.76-23.94-3.51-16.14-10.66-30.74-19.25-44.7-11.55-18.75-25.16-35.75-42.78-49.23-7.94-6.07-16.38-11.25-26.27-13.58-11.25-2.65-19.21,2.61-21.11,14.02-.46,2.77-.51,5.62-.86,9.72M265.64,298.89c-39.42-28.7-64.96-66.25-76.89-113.2-.29.47-.53.8-.72,1.17-10.5,21.39-20.96,42.8-31.52,64.16-.86,1.75-.42,2.85.53,4.23,10.54,15.48,21.11,30.93,31.49,46.52,1.64,2.46,3.29,3.1,6.12,2.84,12.61-1.16,25.23-2.06,37.86-3.06,10.92-.87,21.84-1.75,33.13-2.66M146.78,262.17c-8.28,5.64-16.48,11.03-24.47,16.7-13.19,9.36-15.84,25.78-6.55,39.31,9.2,13.38,25.41,16.79,38.82,8.02,7.44-4.86,14.72-9.96,22.07-14.97.76-.51,1.47-1.09,2.3-1.7-10.74-15.82-21.37-31.47-32.17-47.36M171.52,329.7c3.68,5.42,7.14,10.51,10.6,15.6,11.39,16.79,22.77,33.58,34.18,50.35,3.57,5.25,8.87,7.47,14.28,6.14,9.39-2.31,12.98-12.48,7.3-20.9-13.82-20.44-27.69-40.85-41.53-61.27-1.86-2.74-4.63-3.52-7.4-1.71-5.77,3.76-11.43,7.71-17.42,11.79"/>
        <path class="cls-2" d="M335.85,181.18c-3.94.01-5.97-1.42-7-4.13-1.02-2.69,0-5.49,2.74-7.32,6.08-4.06,12.21-8.03,18.32-12.04,7.77-5.1,15.52-10.21,23.29-15.3,3.87-2.53,7.5-2.16,9.67.98,2.22,3.21,1.18,6.9-2.79,9.51-13.52,8.89-27.05,17.77-40.6,26.6-1.35.88-2.95,1.39-3.63,1.69"/>
        <path class="cls-2" d="M346.04,209.9c8.33,1.49,17.18,3.08,26.02,4.67,7.71,1.38,15.42,2.8,23.14,4.14,4.05.71,6.57,3.49,6.1,6.94-.53,3.79-3.94,6.07-8.18,5.31-15.12-2.7-30.23-5.44-45.35-8.18-1.44-.26-2.9-.46-4.3-.86-3.26-.92-5.19-3.79-4.7-6.81.54-3.3,3.23-5.38,7.26-5.21"/>
        <path class="cls-2" d="M314.53,100.88c-1.6,15.5-3.17,31.01-4.83,46.52-.39,3.61-3.3,5.77-6.82,5.44-3.38-.33-5.68-3.13-5.33-6.88,1.18-12.29,2.46-24.57,3.71-36.86.32-3.12.58-6.25.98-9.36.47-3.64,3.21-5.87,6.71-5.58,3.41.28,5.74,3.09,5.58,6.73"/>
        <path class="cls-2" d="M244.71,196.68c14.7,0,27.46,8.97,32.17,22.61,4.63,13.43.24,28.37-10.96,37.22-1.13.89-2.39,1.78-3.73,2.23-2.82.94-5.82-.44-7.19-3.03-1.41-2.67-.83-5.8,1.84-7.82,4.99-3.77,8.31-8.49,9.09-14.78,1.05-8.43-1.88-15.3-8.77-20.16-6.89-4.88-14.36-5.17-21.96-1.51-.94.45-1.79,1.09-2.72,1.54-3.11,1.52-6.51.57-8.21-2.25-1.68-2.79-.9-6.29,1.87-8.32,4.67-3.45,12.07-5.74,18.58-5.74"/>
      </g>
    </g>
  </g>
</svg>