<?xml version="1.0" encoding="UTF-8"?>
<svg id="Capa_2" data-name="Capa 2" xmlns="http://www.w3.org/2000/svg" viewBox="0 0 503.7 503.7">
  <defs>
    <style>
      .cls-1 {
        fill: #fdf4f4;
      }

      .cls-1, .cls-2 {
        stroke-width: 0px;
      }

      .cls-2 {
        fill: #da2128;
      }
    </style>
  </defs>
  <g id="Capa_1-2" data-name="Capa 1">
    <g>
      <circle class="cls-1" cx="251.85" cy="251.85" r="251.85"/>
      <g>
        <path class="cls-2" d="M403.49,230.34c-1.84,3.3-4.67,4.24-8.38,4.17-15.42-.12-30.87-.03-46.32-.06-1.18,0-2.4-.03-3.52-.34-2.65-.65-4.42-3.02-4.42-5.58s1.78-4.95,4.42-5.58c1.12-.28,2.31-.34,3.52-.34,15.42-.03,30.87.06,46.32-.06,3.64-.03,6.51.87,8.38,4.17v3.61Z"/>
        <path class="cls-2" d="M164.58,317.23c1.99-11.22,3.99-22.24,5.95-33.3,4.52-25.3,8.79-50.62,13.68-75.79,3.71-19.07,20.34-32.55,39.84-32.74,18.5-.16,37.04-.12,55.55-.03,20.97.12,37.48,14.7,41.12,35.67,6.04,34.64,12.31,69.19,18.47,103.77.12.75.37,1.5.59,2.46,2.31,0,4.58-.06,6.79,0,10.25.34,17.6,7.66,17.79,17.88.12,7.29.06,14.58.03,21.87,0,5.36-2.15,7.51-7.54,7.51h-208.66c-6.6,0-8.41-1.81-8.41-8.44s-.03-13.4,0-20.09c.06-11.22,7.54-18.66,18.79-18.75,1.93,0,3.93,0,6.01,0ZM327.54,317.1c-.16-1.28-.25-2.37-.47-3.4-5.89-33.02-11.81-66.04-17.66-99.07-3.21-18.1-14.3-27.48-32.62-27.48-17.13,0-34.27-.06-51.43.03-15.55.06-27.26,9.94-30,25.23-4.55,25.05-9,50.16-13.49,75.23-1.74,9.78-3.43,19.53-5.2,29.47,50.28-.03,100.41-.03,150.87-.03ZM352.65,352.59v-14.77c0-7.07-1.71-8.79-8.66-8.79h-183.8c-1.09,0-2.18-.06-3.24.09-2.68.44-4.89,1.93-5.05,4.64-.28,6.26-.09,12.49-.09,18.82h200.84Z"/>
        <path class="cls-2" d="M131.8,234.46c-8.07,0-16.17.06-24.24-.03-4.95-.03-7.91-3.83-6.36-7.88,1-2.59,3.08-3.86,5.76-3.86,16.76-.03,33.49-.06,50.25,0,3.64.03,6.14,2.65,6.14,5.86s-2.62,5.86-6.48,5.89c-8.35.09-16.7.03-25.08.03Z"/>
        <path class="cls-2" d="M151.37,121.53c2.18,1.34,3.99,1.99,5.26,3.24,10.78,10.62,21.5,21.37,32.15,32.09,2.93,2.99,3.08,6.39.59,8.91-2.49,2.49-5.92,2.43-8.91-.53-10.81-10.72-21.59-21.53-32.34-32.31-1.96-1.96-3.05-4.45-1.59-6.92,1.03-1.78,3.05-2.93,4.83-4.49Z"/>
        <path class="cls-2" d="M320.06,167.57c-5.39,0-8.26-4.8-6.11-8.66.56-1,1.4-1.9,2.21-2.71,10.28-10.31,20.53-20.65,30.9-30.81,1.46-1.43,3.83-2.74,5.79-2.8,4.27-.12,6.73,4.86,4.55,8.57-.59,1-1.4,1.9-2.21,2.71-10.22,10.25-20.41,20.47-30.69,30.62-1.46,1.43-3.43,2.34-4.45,3.08Z"/>
        <path class="cls-2" d="M246.23,110.19v-22.77c0-2.77,1.09-5.02,3.77-6.14,2.21-.97,4.49-.62,5.95,1.15,1.12,1.34,1.99,3.3,1.99,4.98.16,15.3.12,30.53.06,45.79,0,3.99-2.62,6.7-6.01,6.6-3.33-.09-5.73-2.71-5.76-6.6-.06-7.69,0-15.36,0-23.02Z"/>
        <path class="cls-2" d="M312.49,298.76c-.03,3.71-1.99,6.07-4.95,6.54-3.05.47-5.86-1.46-6.57-4.98-1.4-6.82-2.59-13.71-3.83-20.56-1.53-8.41-3.12-16.82-4.52-25.26-.28-1.68-.25-3.55.34-5.17.78-2.37,2.9-3.46,5.36-3.33,2.74.12,4.74,1.59,5.33,4.27,1,4.61,1.87,9.25,2.71,13.86,1.99,10.81,3.96,21.65,5.92,32.52.16.87.22,1.74.22,2.12Z"/>
        <path class="cls-2" d="M293.46,222.68c3.08-.03,5.89,2.74,5.89,5.83.03,3.08-2.74,5.89-5.83,5.89-3.08.03-5.89-2.74-5.89-5.83,0-3.05,2.74-5.86,5.83-5.89Z"/>
      </g>
    </g>
  </g>
</svg>