<?xml version="1.0" encoding="UTF-8"?>
<svg id="Capa_2" data-name="Capa 2" xmlns="http://www.w3.org/2000/svg" viewBox="0 0 4636.27 902.01">
  <defs>
    <style>
      .cls-1 {
        stroke: #fff;
        stroke-miterlimit: 10;
        stroke-width: 6.86px;
      }

      .cls-1, .cls-2 {
        fill: #fff;
      }

      .cls-2 {
        stroke-width: 0px;
      }
    </style>
  </defs>
  <g id="Capa_1-2" data-name="Capa 1">
    <g>
      <path class="cls-2" d="M296.3,783l-54.61,31.53-124.46-71.87,17.35,89.27,107.11,61.86,88.92-51.35c16.41-9.48,22.03-30.46,12.57-46.86-9.48-16.43-30.48-22.05-46.88-12.57"/>
      <g>
        <polygon class="cls-2" points="2285.45 350.74 2240.13 455.15 2330.77 455.15 2285.45 350.74"/>
        <path class="cls-2" d="M1554.69,210.44v39.06l.15.21v235.91c0,25.78-5.83,42.7-17.35,50.3-14.22,9.39-34.27,14.16-59.58,14.16-22.01,0-41.37-4.63-57.57-13.75-12.35-6.97-18.62-24.02-18.62-50.7V212.14l-138.02,26.1v252.61c0,34.98,7.1,64.58,21.04,87.91,14.33,24,37.64,42.9,69.3,56.19,30.03,12.63,68.33,19.02,113.82,19.02s84.35-7.42,116.35-22.05c33.39-15.25,56.62-34.36,69.04-56.79,12.12-21.9,18-51.18,18-89.52V210.44h-116.57Z"/>
        <polygon class="cls-2" points="2198.67 553.55 2157.41 647.9 2416.28 647.9 2374.25 553.55 2198.67 553.55"/>
        <polygon class="cls-2" points="2424.06 336.55 2562.83 647.89 2562.85 647.89 2562.85 480.7 2747.92 480.7 2747.92 379.96 2562.85 379.96 2562.85 312.91 2798.07 312.91 2798.07 210.43 2424.06 210.43 2424.06 336.55"/>
        <polygon class="cls-2" points="2839.55 647.89 2975.64 647.89 2975.64 210.44 2839.55 236.22 2839.55 647.89"/>
        <polygon class="cls-2" points="3159.73 541.94 3159.73 210.44 3018.63 237.25 3018.63 647.89 3396.73 647.89 3396.73 541.94 3159.73 541.94"/>
        <path class="cls-2" d="M1088.64,375.97l-89.5-16.84c-41.61-7.74-56.43-19.22-56.43-27.35,0-2.94,0-9.78,13.3-17.72,12.25-7.31,31.44-11.02,57.09-11.02,63.19,0,74.68,24.86,78.48,33.03l6.73,14.56,129.76-24.21-8.15-22.78c-11.77-32.84-38.52-58.19-79.51-75.35-37.98-15.89-81.48-23.96-129.24-23.96-58.08,0-106.85,11.82-144.94,35.11-41.33,25.29-62.28,59.86-62.28,102.78,0,21.68,6.05,42.27,18.02,61.21,11.82,18.72,27.75,33.42,47.4,43.69,18.38,9.63,45.19,17.82,81.93,25.05l100.7,19.75c31.25,6.05,39.59,13.1,41.39,15.12,6.35,7.1,7.08,12.72,7.08,16.3,0,2.53,0,10.23-16.58,19.43-14.93,8.3-37.71,12.5-67.69,12.5-63.08,0-99.22-14.78-107.41-43.9l-4.98-17.67-135.04,21.68,8.69,23.51c14.84,40.26,44.93,70.13,89.44,88.79,41.54,17.44,90.36,26.29,145.05,26.29,65.31,0,119.7-12.2,161.61-36.27,45.64-26.19,68.78-63.12,68.78-109.75,0-29.43-11.2-56.45-33.24-80.32-21.79-23.57-61.19-40.47-120.45-51.69"/>
        <polygon class="cls-2" points="2163.64 210.36 2021.33 210.36 2021.33 417.61 1857.9 210.36 1711.37 210.36 1711.37 647.85 1853.67 647.85 1853.67 426.14 2026.97 647.85 2031.37 647.85 2163.64 347.82 2163.64 210.36"/>
        <path class="cls-2" d="M241.7,0L0,139.54l13.86,71.25L241.7,79.25l318.39,183.81v367.64l-59.02,34.08c-16.41,9.48-22.03,30.46-12.57,46.86,9.48,16.43,30.48,22.05,46.89,12.57l93.34-53.88V223.44L241.7,0Z"/>
        <path class="cls-2" d="M199.03,598.03c-83.02-22.24-132.31-107.52-110.07-190.54,22.24-83.02,107.58-132.25,190.59-110.01,82.98,22.24,132.27,107.52,110.03,190.54-22.26,83.02-107.58,132.25-190.54,110.01M427.7,637.97c32.64-32.28,57.46-73.35,70.2-120.9,38.28-142.86-46.5-289.67-189.32-327.94-107.13-28.7-216.52,11.77-280.67,94.09l77.02,396.23c19.95,11.54,41.69,20.74,65.03,26.98,47.55,12.74,95.53,11.78,139.8-.36l113.14,195.95,117.94-68.08-113.14-195.97Z"/>
        <path class="cls-2" d="M3668.75,297.93l12.83-2.72c1.52,7.25,7.42,10.87,17.67,10.87,4.7,0,8.3-.92,10.81-2.79,2.53-1.87,3.77-4.16,3.77-6.93,0-1.99-.56-3.84-1.72-5.53-1.14-1.69-3.58-3.05-7.33-3.99l-14.01-3.65c-4.78-1.27-8.32-2.68-10.59-4.27-2.29-1.59-4.14-3.84-5.51-6.73-1.37-2.9-2.06-5.98-2.06-9.29,0-6.52,2.42-11.77,7.29-15.72,4.87-3.95,11.09-5.92,18.66-5.92,6.28,0,11.9,1.37,16.86,4.12,4.95,2.75,8.11,6.65,9.46,11.69l-12.53,3.11c-1.95-5.53-6.43-8.3-13.53-8.3-4.1,0-7.23.86-9.39,2.57-2.17,1.72-3.26,3.88-3.26,6.52,0,4.2,3.41,7.12,10.19,8.82l12.44,3.11c7.55,1.89,12.61,4.68,15.19,8.39,2.57,3.69,3.86,7.79,3.86,12.25,0,7.18-2.7,12.85-8.13,16.97-5.4,4.14-12.42,6.2-21.04,6.2-7.25,0-13.62-1.52-19.07-4.55-5.45-3.05-9.07-7.79-10.85-14.22"/>
        <path class="cls-2" d="M3789.4,242.38v47.01c0,6.37-.71,11.26-2.14,14.69-1.44,3.43-4.18,6.39-8.28,8.88-4.1,2.49-9.09,3.73-14.99,3.73s-10.87-1.07-14.71-3.22c-3.84-2.14-6.61-5.08-8.3-8.81-1.67-3.73-2.51-8.51-2.51-14.31v-47.98h13.47v47.01c0,6.43,1.33,10.68,4.03,12.7,2.7,2.02,5.83,3.02,9.42,3.02,4.12,0,7.4-1.07,9.87-3.24,2.47-2.17,3.71-6.33,3.71-12.48v-47.01h10.45Z"/>
        <path class="cls-2" d="M3817.66,275.25h15.61c4.05,0,7.16-1.01,9.31-3,2.14-1.99,3.22-4.68,3.22-7.98,0-3-.99-5.58-2.96-7.72-1.99-2.14-5.58-3.22-10.77-3.22h-14.41v21.92ZM3817.66,315.57h-13.19v-73.18h29.96c8.56,0,14.88,2.14,19.02,6.46,4.12,4.31,6.18,9.39,6.18,15.25,0,6.69-2.23,12.1-6.69,16.24-4.46,4.16-10.14,6.24-17.01,6.24h-18.27v29Z"/>
        <polygon class="cls-2" points="3917.82 315.57 3870.25 315.57 3870.25 242.39 3917.35 242.39 3917.35 253.26 3883.44 253.26 3883.44 273.1 3910.68 273.1 3910.68 283.72 3883.44 283.72 3883.44 304.2 3917.82 304.2 3917.82 315.57"/>
        <path class="cls-2" d="M3942.38,274.93h16.41c4.76,0,8.3-1.01,10.62-3,2.32-2,3.5-4.76,3.5-8.26,0-3.22-1.16-5.81-3.45-7.81-2.27-1.97-5.47-2.96-9.59-2.96h-17.48v22.03ZM3986.24,315.57h-13.94l-11.37-30.07h-18.55v30.07h-13.19v-73.18h31.74c8.84,0,15.31,1.97,19.48,5.96,4.14,3.99,6.2,9.16,6.2,15.49,0,9.39-4.38,15.87-13.19,19.39l12.83,32.34Z"/>
        <rect class="cls-2" x="3999.75" y="242.38" width="13.21" height="73.2"/>
        <path class="cls-2" d="M4084.31,315.57h-12.83l-27.77-46.76c-.43-.71-1.12-1.87-2.08-3.47-.43-.73-1.09-1.84-1.97-3.39v53.62h-10.64v-73.18h14.61l25.63,43.11c.19.34,1.76,2.98,4.65,7.87v-50.98h10.4v73.18Z"/>
        <polygon class="cls-2" points="4125.97 315.57 4111.81 315.57 4111.81 253.69 4092.34 253.69 4092.34 242.39 4145.42 242.39 4145.42 253.69 4125.97 253.69 4125.97 315.57"/>
        <polygon class="cls-2" points="4201.04 315.57 4153.47 315.57 4153.47 242.39 4200.54 242.39 4200.54 253.26 4166.66 253.26 4166.66 273.1 4193.89 273.1 4193.89 283.72 4166.66 283.72 4166.66 304.2 4201.04 304.2 4201.04 315.57"/>
        <path class="cls-2" d="M4267.69,315.57h-12.83l-27.75-46.76c-.43-.71-1.14-1.87-2.1-3.47-.43-.73-1.09-1.84-1.97-3.39v53.62h-10.64v-73.18h14.58l25.63,43.11c.24.34,1.78,2.98,4.68,7.87v-50.98h10.4v73.18Z"/>
        <path class="cls-2" d="M4296.97,304.78h10.98c5.9,0,10.9-2.21,15.01-6.63,4.12-4.44,6.18-11.05,6.18-19.8,0-7.14-1.8-13.19-5.41-18.15-3.58-4.95-8.32-7.42-14.24-7.42h-12.53v51.99ZM4283.4,315.57v-73.18h26.96c9.99,0,17.99,3.52,24.04,10.57,6.03,7.06,9.05,15.79,9.05,26.14s-3.11,19.05-9.33,26.02c-6.22,6.95-15.12,10.45-26.7,10.45h-24.02Z"/>
        <polygon class="cls-2" points="4403.24 315.57 4355.67 315.57 4355.67 242.39 4402.74 242.39 4402.74 253.26 4368.86 253.26 4368.86 273.1 4396.12 273.1 4396.12 283.72 4368.86 283.72 4368.86 304.2 4403.24 304.2 4403.24 315.57"/>
        <path class="cls-2" d="M4469.89,315.57h-12.83l-27.77-46.76c-.43-.71-1.12-1.87-2.08-3.47-.43-.73-1.09-1.84-1.97-3.39v53.62h-10.64v-73.18h14.58l25.65,43.11c.19.34,1.76,2.98,4.65,7.87v-50.98h10.4v73.18Z"/>
        <path class="cls-2" d="M4526.88,290.15l12.22,1.33c-.79,7.34-3.62,13.36-8.49,18.1-4.89,4.74-11.3,7.12-19.24,7.12-6.67,0-12.1-1.69-16.26-5.04-4.16-3.37-7.38-7.94-9.63-13.68-2.25-5.75-3.39-12.1-3.39-19.02,0-11.15,2.66-20.23,7.96-27.22,5.28-6.99,12.55-10.49,21.81-10.49,7.25,0,13.3,2.23,18.12,6.71,4.83,4.46,7.87,10.85,9.12,19.17l-12.22,1.29c-2.25-11.02-7.23-16.56-14.91-16.56-4.93,0-8.77,2.29-11.5,6.88-2.75,4.59-4.12,11.26-4.12,19.97s1.48,15.57,4.42,20.1c2.92,4.53,6.8,6.78,11.62,6.78,3.86,0,7.14-1.52,9.87-4.57,2.72-3.02,4.25-6.65,4.61-10.87"/>
        <rect class="cls-2" x="4549.57" y="242.38" width="13.19" height="73.2"/>
        <path class="cls-2" d="M4612.78,287.58l-10.68-32.64-10.66,32.64h21.34ZM4636.27,315.57h-14.11l-5.83-17.42h-28.16l-5.73,17.42h-11.26l24.28-73.18h16.26l24.56,73.18Z"/>
        <path class="cls-2" d="M3731.7,425.38h-12.83l-27.77-46.76c-.43-.71-1.12-1.87-2.08-3.47-.43-.73-1.09-1.84-1.97-3.39v53.62h-10.64v-73.18h14.61l25.63,43.11c.19.34,1.76,2.98,4.65,7.87v-50.98h10.4v73.18Z"/>
        <path class="cls-2" d="M3781.73,397.39l-10.66-32.64-10.68,32.64h21.34ZM3805.22,425.38h-14.11l-5.83-17.42h-28.14l-5.75,17.42h-11.26l24.3-73.18h16.24l24.56,73.18Z"/>
        <path class="cls-2" d="M3852.51,399.97l12.22,1.33c-.79,7.34-3.62,13.36-8.49,18.1-4.89,4.74-11.28,7.12-19.24,7.12-6.67,0-12.1-1.69-16.26-5.04-4.16-3.37-7.38-7.94-9.63-13.68-2.25-5.75-3.37-12.1-3.37-19.02,0-11.15,2.64-20.23,7.94-27.22,5.28-6.99,12.55-10.49,21.81-10.49,7.25,0,13.3,2.23,18.12,6.71,4.83,4.46,7.87,10.85,9.12,19.17l-12.22,1.29c-2.25-11.02-7.23-16.56-14.91-16.56-4.93,0-8.77,2.29-11.5,6.88-2.75,4.59-4.1,11.26-4.1,19.97s1.46,15.57,4.4,20.1c2.92,4.53,6.8,6.78,11.62,6.78,3.86,0,7.14-1.52,9.87-4.55,2.72-3.05,4.25-6.67,4.61-10.9"/>
        <rect class="cls-2" x="3875.2" y="352.2" width="13.19" height="73.18"/>
        <path class="cls-2" d="M3931.54,415.89c4.76,0,8.77-1.97,12.08-5.9,3.28-3.92,4.93-11.07,4.93-21.4,0-8.39-1.37-14.97-4.08-19.75-2.72-4.76-6.95-7.14-12.65-7.14-11.3,0-16.94,9.09-16.94,27.28,0,8.84,1.44,15.53,4.31,20.08,2.87,4.57,6.99,6.84,12.35,6.84M3931.43,426.51c-9.72,0-17.29-3.65-22.71-10.94-5.4-7.29-8.11-16.3-8.11-27.02s2.87-19.56,8.62-26.72c5.75-7.16,13.36-10.77,22.8-10.77s17.01,3.6,22.54,10.77c5.51,7.16,8.28,16.13,8.28,26.87,0,11.3-2.87,20.44-8.6,27.39-5.75,6.95-13.34,10.42-22.82,10.42"/>
        <path class="cls-2" d="M4030.42,425.38h-12.83l-27.75-46.76c-.43-.71-1.14-1.87-2.1-3.47-.43-.73-1.09-1.84-1.97-3.39v53.62h-10.64v-73.18h14.61l25.61,43.11c.24.34,1.78,2.98,4.68,7.87v-50.98h10.4v73.18Z"/>
        <path class="cls-2" d="M4080.45,397.39l-10.66-32.64-10.68,32.64h21.34ZM4103.93,425.38h-14.11l-5.83-17.42h-28.16l-5.73,17.42h-11.26l24.28-73.18h16.26l24.56,73.18Z"/>
        <polygon class="cls-2" points="4157.77 425.38 4112.73 425.38 4112.73 352.2 4126.6 352.2 4126.6 413.44 4157.77 413.44 4157.77 425.38"/>
        <path class="cls-2" d="M4208.1,414.59h11c5.9,0,10.9-2.21,15.01-6.63,4.12-4.44,6.16-11.05,6.16-19.8,0-7.14-1.78-13.19-5.38-18.15-3.58-4.95-8.34-7.42-14.22-7.42h-12.57v51.99ZM4194.55,425.38v-73.18h26.98c9.97,0,17.97,3.52,24.02,10.57,6.03,7.06,9.05,15.79,9.05,26.14s-3.11,19.05-9.33,26.02c-6.22,6.95-15.12,10.45-26.7,10.45h-24.02Z"/>
        <polygon class="cls-2" points="4314.39 425.38 4266.84 425.38 4266.84 352.2 4313.92 352.2 4313.92 363.08 4280.03 363.08 4280.03 382.92 4307.27 382.92 4307.27 393.53 4280.03 393.53 4280.03 414.01 4314.39 414.01 4314.39 425.38"/>
        <polygon class="cls-2" points="3689.99 535.2 3676.41 535.2 3676.41 462.02 3722.7 462.02 3722.7 473.32 3689.99 473.32 3689.99 493.33 3715.72 493.33 3715.72 504.31 3689.99 504.31 3689.99 535.2"/>
        <rect class="cls-2" x="3732.19" y="462.01" width="13.21" height="73.18"/>
        <path class="cls-2" d="M3753.8,517.55l12.83-2.75c1.52,7.27,7.42,10.9,17.67,10.9,4.7,0,8.3-.92,10.81-2.79,2.53-1.87,3.77-4.16,3.77-6.93,0-1.99-.56-3.84-1.72-5.53-1.14-1.69-3.58-3.05-7.33-4.01l-14.01-3.62c-4.78-1.27-8.32-2.68-10.59-4.27-2.29-1.59-4.14-3.84-5.51-6.73-1.37-2.9-2.06-5.98-2.06-9.29,0-6.52,2.42-11.77,7.29-15.72,4.87-3.95,11.09-5.94,18.66-5.94,6.28,0,11.9,1.39,16.86,4.14,4.95,2.75,8.11,6.65,9.46,11.69l-12.53,3.11c-1.95-5.53-6.43-8.3-13.53-8.3-4.1,0-7.23.84-9.39,2.57-2.17,1.69-3.26,3.88-3.26,6.52,0,4.2,3.41,7.12,10.21,8.79l12.44,3.11c7.53,1.91,12.59,4.7,15.16,8.41,2.57,3.69,3.86,7.79,3.86,12.25,0,7.18-2.7,12.85-8.13,16.97-5.4,4.14-12.42,6.2-21.04,6.2-7.25,0-13.62-1.52-19.07-4.57-5.45-3.02-9.07-7.76-10.85-14.2"/>
        <path class="cls-2" d="M3865.11,509.78l12.22,1.33c-.79,7.34-3.62,13.36-8.49,18.1-4.89,4.74-11.3,7.12-19.24,7.12-6.67,0-12.1-1.69-16.26-5.04-4.16-3.37-7.38-7.94-9.63-13.68-2.25-5.75-3.39-12.1-3.39-19.02,0-11.15,2.66-20.23,7.96-27.22,5.28-6.99,12.55-10.49,21.81-10.49,7.25,0,13.3,2.23,18.12,6.71,4.83,4.46,7.87,10.85,9.12,19.17l-12.22,1.29c-2.25-11.02-7.23-16.56-14.91-16.56-4.93,0-8.77,2.29-11.5,6.88-2.75,4.59-4.1,11.26-4.1,19.97s1.46,15.57,4.4,20.1c2.92,4.53,6.8,6.78,11.62,6.78,3.86,0,7.14-1.52,9.87-4.55,2.72-3.05,4.25-6.67,4.61-10.9"/>
        <path class="cls-2" d="M3921.2,507.21l-10.66-32.64-10.68,32.64h21.34ZM3944.68,535.2h-14.11l-5.83-17.42h-28.14l-5.75,17.42h-11.26l24.3-73.18h16.24l24.56,73.18Z"/>
        <polygon class="cls-2" points="3998.52 535.2 3953.47 535.2 3953.47 462.02 3967.35 462.02 3967.35 523.25 3998.52 523.25 3998.52 535.2"/>
        <rect class="cls-2" x="4008.22" y="462.01" width="13.21" height="73.18"/>
        <polygon class="cls-2" points="4085.75 523.83 4085.75 535.2 4031.66 535.2 4031.66 524.79 4069.13 472.46 4034.28 472.46 4034.28 461.99 4084.68 461.99 4084.68 472.46 4047.64 523.83 4085.75 523.83"/>
        <path class="cls-2" d="M4129.94,507.21l-10.68-32.64-10.66,32.64h21.34ZM4153.42,535.2h-14.11l-5.83-17.42h-28.16l-5.73,17.42h-11.26l24.3-73.18h16.24l24.56,73.18Z"/>
        <path class="cls-2" d="M4200.72,509.78l12.22,1.33c-.79,7.34-3.62,13.36-8.49,18.1-4.89,4.74-11.28,7.12-19.24,7.12-6.67,0-12.1-1.69-16.26-5.04-4.16-3.37-7.38-7.94-9.63-13.68-2.25-5.75-3.37-12.1-3.37-19.02,0-11.15,2.64-20.23,7.94-27.22,5.28-6.99,12.55-10.49,21.81-10.49,7.25,0,13.3,2.23,18.12,6.71,4.83,4.46,7.87,10.85,9.12,19.17l-12.22,1.29c-2.25-11.02-7.23-16.56-14.91-16.56-4.93,0-8.77,2.29-11.5,6.88-2.75,4.59-4.12,11.26-4.12,19.97s1.48,15.57,4.42,20.1c2.92,4.53,6.8,6.78,11.62,6.78,3.86,0,7.14-1.52,9.87-4.55,2.72-3.05,4.25-6.67,4.61-10.9"/>
        <rect class="cls-2" x="4223.41" y="462.01" width="13.19" height="73.18"/>
        <path class="cls-2" d="M4293.43,438.67l3.54,8.04-22.37,9.44-2.25-5.73,21.08-11.75ZM4279.75,525.7c4.76,0,8.77-1.97,12.08-5.9,3.28-3.92,4.91-11.07,4.91-21.4,0-8.39-1.35-14.97-4.05-19.75-2.72-4.76-6.95-7.14-12.65-7.14-11.3,0-16.94,9.09-16.94,27.28,0,8.84,1.44,15.53,4.31,20.08,2.87,4.57,6.99,6.84,12.35,6.84M4279.64,536.32c-9.72,0-17.29-3.65-22.71-10.94-5.4-7.29-8.11-16.3-8.11-27.02s2.87-19.56,8.62-26.72c5.75-7.16,13.36-10.77,22.8-10.77s17.01,3.6,22.54,10.77c5.51,7.16,8.28,16.13,8.28,26.87,0,11.3-2.87,20.44-8.6,27.39-5.75,6.95-13.34,10.42-22.82,10.42"/>
        <path class="cls-2" d="M4378.63,535.2h-12.83l-27.77-46.76c-.43-.71-1.12-1.87-2.08-3.47-.43-.73-1.09-1.84-1.97-3.39v53.62h-10.64v-73.18h14.58l25.63,43.11c.21.34,1.78,2.98,4.68,7.87v-50.98h10.4v73.18Z"/>
        <polygon class="cls-2" points="3721.46 645.01 3676.42 645.01 3676.42 571.83 3690.3 571.83 3690.3 633.06 3721.46 633.06 3721.46 645.01"/>
        <path class="cls-2" d="M3765.11,617.02l-10.66-32.64-10.68,32.64h21.34ZM3788.59,645.01h-14.09l-5.86-17.42h-28.14l-5.75,17.42h-11.26l24.3-73.18h16.24l24.56,73.18Z"/>
        <path class="cls-2" d="M3809.87,634.03h17.07c3.6,0,6.46-.96,8.54-2.85,2.1-1.89,3.13-4.44,3.13-7.68,0-3.07-1.05-5.58-3.17-7.55-2.12-1.97-4.95-2.94-8.45-2.94h-17.12v21.02ZM3809.87,602.54h16.11c3.28,0,5.88-.99,7.79-2.94,1.91-1.97,2.87-4.48,2.87-7.51,0-3.37-1.09-5.86-3.28-7.44-2.17-1.59-4.72-2.38-7.66-2.38h-15.83v20.27ZM3797.39,645.01v-73.18h28.53c4.83,0,8.84.49,12.01,1.5,3.17.99,5.94,3.09,8.26,6.26,2.32,3.17,3.5,6.93,3.5,11.22,0,4.03-1.18,7.55-3.54,10.53-2.36,2.98-5.62,4.89-9.76,5.7,5.13.9,9.03,2.98,11.67,6.26,2.66,3.3,3.97,7.21,3.97,11.71,0,5.64-1.84,10.38-5.53,14.22-3.71,3.84-9.39,5.77-17.07,5.77h-32.02Z"/>
        <path class="cls-2" d="M3891.17,635.52c4.76,0,8.77-1.97,12.08-5.9,3.28-3.92,4.93-11.07,4.93-21.4,0-8.39-1.37-14.97-4.08-19.75-2.72-4.76-6.95-7.14-12.65-7.14-11.3,0-16.94,9.09-16.94,27.28,0,8.84,1.44,15.53,4.31,20.08,2.87,4.57,6.99,6.84,12.35,6.84M3891.06,646.13c-9.72,0-17.29-3.65-22.71-10.94-5.4-7.29-8.11-16.3-8.11-27.02s2.87-19.56,8.62-26.72c5.75-7.16,13.36-10.77,22.8-10.77s17.01,3.6,22.54,10.77c5.51,7.16,8.28,16.13,8.28,26.9s-2.87,20.42-8.6,27.37c-5.75,6.95-13.34,10.42-22.82,10.42"/>
        <path class="cls-2" d="M3947.95,604.37h16.41c4.76,0,8.3-1.01,10.62-3,2.32-2,3.5-4.76,3.5-8.26,0-3.22-1.16-5.81-3.45-7.81-2.27-1.97-5.47-2.96-9.59-2.96h-17.48v22.03ZM3991.81,645.01h-13.94l-11.37-30.07h-18.55v30.07h-13.19v-73.18h31.74c8.84,0,15.31,1.97,19.48,5.96,4.14,3.99,6.2,9.16,6.2,15.49,0,9.39-4.38,15.87-13.19,19.41l12.83,32.32Z"/>
        <path class="cls-2" d="M4039.27,617.02l-10.66-32.64-10.68,32.64h21.34ZM4062.75,645.01h-14.11l-5.83-17.42h-28.16l-5.73,17.42h-11.26l24.28-73.18h16.26l24.56,73.18Z"/>
        <polygon class="cls-2" points="4116.59 645.01 4071.55 645.01 4071.55 571.83 4085.44 571.83 4085.44 633.06 4116.59 633.06 4116.59 645.01"/>
        <line class="cls-1" x1="3530.2" y1="154.65" x2="3530.2" y2="704.81"/>
      </g>
    </g>
  </g>
</svg>