<?xml version="1.0" encoding="UTF-8"?>
<svg id="Capa_2" data-name="Capa 2" xmlns="http://www.w3.org/2000/svg" viewBox="0 0 503.7 503.7">
  <defs>
    <style>
      .cls-1 {
        fill: #fdf4f4;
      }

      .cls-1, .cls-2 {
        stroke-width: 0px;
      }

      .cls-2 {
        fill: #da2128;
      }
    </style>
  </defs>
  <g id="Capa_1-2" data-name="Capa 1">
    <g>
      <circle class="cls-1" cx="251.85" cy="251.85" r="251.85"/>
      <g>
        <path class="cls-2" d="M109.05,164.06c1.66-3.97,2.75-8.34,5.12-11.83,4.79-7.08,12.1-10.12,20.53-10.13,55.09-.05,110.17-.06,165.26,0,12.4.01,21.59,7.09,24.86,18.94.64,2.32.85,4.83.86,7.25.05,32.01.06,64.01.02,96.02-.01,12.7-7.12,22.11-19.12,25.23-2.58.67-5.36.8-8.05.8-35.32.05-70.65.05-105.97,0-2,0-3.35.55-4.68,2.11-9.47,11.11-19.06,22.13-28.59,33.18-1.87,2.17-4,3.91-6.97,4.27-6.22.74-11.21-3.47-11.3-9.82-.12-8.83-.04-17.66-.04-26.5,0-.94,0-1.88,0-2.96-3.28-.18-6.31-.31-9.33-.5-11.16-.7-20.65-9.82-22.16-20.69-.07-.5-.28-.98-.42-1.46,0-34.63,0-69.27,0-103.9ZM154.27,309.86c.2.05.41.09.61.14.4-.45.81-.88,1.2-1.34,7.95-9.19,15.99-18.3,23.8-27.61,2.54-3.03,5.39-4.21,9.3-4.2,36.8.1,73.6.06,110.41.05,7.91,0,12.57-4.48,12.58-12.2.03-32.35.03-64.7,0-97.05,0-7.47-4.65-12.06-12.17-12.06-55.07-.02-110.14-.02-165.22,0-7.56,0-12.21,4.49-12.22,11.99-.05,32.44-.05,64.87,0,97.31.01,7.35,4.71,11.9,12.02,11.97,4.11.04,8.22-.03,12.33.02,4.55.05,7.28,2.8,7.35,7.38.05,3.23.01,6.47.01,9.7,0,5.3,0,10.59,0,15.89Z"/>
        <path class="cls-2" d="M345.76,330.97c0,9.85-.03,19.28.01,28.71.02,3.83-1.11,7.08-4.43,9.24-4.63,3.02-9.51,2.28-13.36-2.1-5.95-6.76-11.81-13.59-17.72-20.4-3.9-4.49-7.84-8.94-11.66-13.5-1.18-1.41-2.43-1.91-4.26-1.91-31.21.05-62.43.02-93.64.06-2.86,0-5.37-.45-7.11-3-2.81-4.13-.33-9.7,4.64-10.33.95-.12,1.92-.11,2.88-.11,32.26,0,64.53.04,96.79-.06,3.75-.01,6.42,1.23,8.82,4.07,7.73,9.15,15.64,18.15,23.48,27.2.54.63,1.14,1.21,2.19,2.32,0-3.27,0-5.86,0-8.44,0-5.68-.02-11.37,0-17.05.02-5.59,2.54-8.08,8.19-8.12,3.76-.03,7.52.04,11.28-.02,7.87-.13,12.3-4.59,12.31-12.49.03-32.09.03-64.19,0-96.28,0-7.64-3.86-11.84-11.42-12.64-4.17-.44-6.89-3.47-6.56-7.33.31-3.64,3.53-6.16,7.59-5.94,13.56.73,23.74,10.95,23.82,24.73.19,32.79.19,65.59,0,98.38-.08,14.4-10.82,24.75-25.25,24.99-2.08.03-4.16,0-6.61,0Z"/>
        <path class="cls-2" d="M190.49,226.55c-4.42-.02-7.98-3.58-7.96-7.98.02-4.42,3.56-7.91,8.02-7.9,4.45.01,7.96,3.54,7.94,7.97-.02,4.42-3.57,7.93-8,7.91Z"/>
        <path class="cls-2" d="M217.34,226.56c-4.4,0-8.01-3.59-8.01-7.95,0-4.39,3.59-7.93,8.02-7.93,4.42,0,8,3.56,8,7.94,0,4.37-3.62,7.94-8.01,7.94Z"/>
        <path class="cls-2" d="M244.15,226.56c-4.39-.01-8-3.63-7.97-7.99.03-4.39,3.62-7.91,8.05-7.9,4.43.02,8,3.59,7.98,7.97-.03,4.36-3.65,7.92-8.05,7.91Z"/>
      </g>
    </g>
  </g>
</svg>