<?xml version="1.0" encoding="UTF-8"?>
<svg id="Capa_2" data-name="Capa 2" xmlns="http://www.w3.org/2000/svg" viewBox="0 0 503.7 503.7">
  <defs>
    <style>
      .cls-1 {
        fill: #fdf4f4;
      }

      .cls-1, .cls-2 {
        stroke-width: 0px;
      }

      .cls-2 {
        fill: #d92128;
      }
    </style>
  </defs>
  <g id="Capa_1-2" data-name="Capa 1">
    <g>
      <circle class="cls-1" cx="251.85" cy="251.85" r="251.85"/>
      <g>
        <rect class="cls-2" x="234.08" y="125.16" width="111.67" height="11.89" rx="5.95" ry="5.95"/>
        <g>
          <g>
            <path class="cls-2" d="M401.49,383.19s.02-.04.03-.06c.07-.12.13-.25.18-.38,0-.02.02-.04.03-.06.04-.1.08-.2.11-.31.04-.1.07-.21.09-.32,0-.01,0-.02,0-.03.1-.39.16-.8.16-1.22,0-2.71-2.2-4.91-4.91-4.91h-18.11s0,0,0-.01h-8.41c0-1.17,0-2.1,0-3.03,0-9.3.07-18.61-.04-27.91-.04-3.08-.18-6.25-.95-9.21-4.15-15.93-15.55-24.67-32.16-24.76-14.82-.08-29.63-.04-44.45.01-2.4,0-4.85.13-7.18.64-16.24,3.59-25.89,15.61-25.98,32.27-.05,9.73-.01,19.47-.01,29.2,0,.91,0,1.82,0,2.73h-24.23c0-1.14,0-2.07,0-3,0-9.56.07-19.13-.05-28.69-.03-2.82-.32-5.69-.97-8.43-3.67-15.51-15.57-24.64-32.18-24.73-14.82-.08-29.63-.03-44.45,0-5.31,0-10.48.83-15.27,3.23-12.32,6.18-17.63,16.63-17.84,29.99-.15,9.56-.03,19.12-.03,28.69,0,.89,0,1.79,0,3.03h-26.52c-2.71,0-4.91,2.2-4.91,4.91,0,.36.04.72.12,1.06.15.88.52,1.6,1.11,2.18.9,1.02,2.22,1.67,3.69,1.67h298.83c1.73,0,3.25-.9,4.13-2.25.06-.09.12-.19.17-.28ZM134.78,340.82c.62-11.61,9.67-20.05,21.24-20.2,16.2-.21,32.4-.22,48.59,0,11.66.16,20.67,8.86,21.16,20.55.47,11.09.28,22.22.37,33.33,0,.41-.13.83-.22,1.38h-9.54c0-2.93.02-5.75,0-8.56-.02-3.43-1.82-5.63-4.64-5.73-2.87-.1-4.88,2.21-4.92,5.72-.03,2.75,0,5.51,0,8.5h-53.14c0-2.99.11-6.05-.03-9.1-.18-4.04-3.8-6.45-6.89-4.41-1.28.84-2.31,2.79-2.52,4.36-.4,2.95-.11,5.99-.11,9.19h-9.51c-.08-.56-.24-1.13-.24-1.7.08-11.11-.2-22.24.39-33.32ZM351.42,367.16c-.02-3.34-1.97-5.58-4.79-5.56-2.71.02-4.64,2.15-4.75,5.37-.09,2.75-.06,5.51-.1,8.27,0,.16-.11.31-.24.64h-52.8c0-2.92.02-5.74,0-8.55-.04-3.5-2.05-5.82-4.92-5.72-2.82.1-4.61,2.3-4.64,5.72-.02,2.75,0,5.5,0,8.49h-9.52c-.09-.4-.22-.72-.22-1.05.1-11.45-.1-22.92.41-34.36.49-10.97,9.81-19.62,21.11-19.77,16.19-.22,32.4-.22,48.59,0,11.56.15,20.67,8.58,21.22,20.2.55,11.57.12,23.19.12,35.09h-9.47c0-2.98.02-5.86,0-8.75Z"/>
            <path class="cls-2" d="M175.43,116.49c0-1.32,0-2.77,0-4.23.02-4.85,1.5-6.37,6.25-6.37,56.94,0,113.89,0,170.83,0,4.67,0,6.2,1.53,6.2,6.18,0,40.92,0,81.84,0,122.76,0,4.59-1.62,6.17-6.26,6.18-4.6.01-9.21,0-13.18,0,1.61,1.9,3.64,3.82,5.09,6.1,1.97,3.09,4.56,3.7,8.01,3.62,9.91-.23,16-6.12,16-15.97,0-40.83,0-81.67,0-122.5,0-10.1-5.94-16.02-16.06-16.02-44.19,0-88.39,0-132.58,0-13.09,0-26.19-.03-39.28.01-7.2.02-13.3,4.81-14.25,11.73-.55,4.01-.1,8.15-.1,12.28,3.09-1.25,6.09-2.47,9.32-3.78Z"/>
            <path class="cls-2" d="M236.69,250.65c14.73,0,29.47.01,44.2-.03.97,0,2.25-.08,2.84-.67,2.81-2.82,5.43-5.84,8.26-8.94h-58.53v-29.04h3.24c16.89,0,33.77,0,50.66,0,7.65,0,13.16-5.35,13.37-13.04.08-3.01.08-6.03,0-9.05-.17-6.39-5.21-11.48-11.59-11.5-24.12-.06-48.25-.03-72.37,0-.71,0-1.62.15-2.11.59-3.18,2.82-6.28,5.74-9.56,8.78h2.71c26.02,0,52.04,0,78.06,0,.78,0,1.55-.02,2.33.01,1.94.1,3.03,1.04,3.02,3.08-.01,2.41.06,4.83-.02,7.24-.11,3.24-1.21,4.24-4.46,4.24-17.23,0-34.47.17-51.69-.09-5.71-.09-11.46,4.85-11.37,11.33.31,21.19.12,42.39.11,63.58,0,.86.05,1.73-.03,2.58-.34,3.48-1.56,4.56-4.99,4.73-.7.03-1.78.21-2.01.66-1.47,2.86-2.75,5.81-4.2,8.95,2.77,0,5.34-.04,7.91,0,4.58.1,8.22-1.85,10.15-5.85,1.41-2.93,2.42-6.31,2.56-9.53.35-8.26.12-16.54.12-24.81,0-1,0-2.01,0-3.24h3.43Z"/>
            <path class="cls-2" d="M184.9,183.02c16.04.08,28.95-12.71,28.99-28.73.05-16.13-12.66-29.04-28.64-29.09-15.97-.05-29.04,12.83-29.15,28.73-.11,15.87,12.89,29.01,28.79,29.09ZM185.09,134.85c10.7,0,19.43,8.7,19.37,19.32-.06,10.66-8.76,19.22-19.5,19.19-10.73-.03-19.22-8.66-19.15-19.45.07-10.61,8.62-19.06,19.29-19.06Z"/>
            <path class="cls-2" d="M151.39,272.32c0,16,12.87,28.91,28.86,28.93,15.9.02,28.96-13.01,28.97-28.9,0-15.95-12.96-28.88-28.94-28.88-16.05,0-28.88,12.82-28.89,28.85ZM180.21,252.97c10.65-.06,19.29,8.61,19.29,19.37,0,10.76-8.58,19.34-19.31,19.32-10.55-.02-19.15-8.62-19.19-19.22-.04-10.74,8.51-19.41,19.21-19.48Z"/>
            <path class="cls-2" d="M315.38,301.25c16.02-.1,28.81-12.99,28.79-29-.03-16.02-12.91-28.82-28.96-28.78-15.98.04-28.91,13.01-28.87,28.95.04,15.89,13.18,28.93,29.04,28.83ZM315.28,252.97c10.66-.02,19.3,8.67,19.29,19.4,0,10.7-8.66,19.33-19.37,19.3-10.58-.03-19.11-8.61-19.13-19.24-.02-10.78,8.52-19.44,19.21-19.45Z"/>
            <path class="cls-2" d="M136.95,293.64c3.57.6,7.28.41,11.25.58-1.38-2.79-2.71-5.01-3.59-7.39-.72-1.94-1.73-2.55-3.76-2.45-3.39.16-4-.58-4.01-4.06,0-7.58,0-15.16,0-22.74,0-14.9-.1-29.8.06-44.7.13-11.46,6.2-20.87,15.64-23.83,3.94-1.23,8.28-1.22,12.1-1.73-2.76-2.52-5.81-5.38-8.96-8.12-.45-.39-1.46-.5-2.06-.3-3.24,1.09-6.7,1.87-9.59,3.58-11.51,6.81-16.51,17.67-16.73,30.48-.4,22.99-.16,45.99-.09,68.98.02,5.9,3.96,10.71,9.74,11.69Z"/>
            <path class="cls-2" d="M181.34,192.78c-3.14-.72-6.05-1.38-9.4-2.15-1.22,9.65-2.59,19.08-3.47,28.57-.16,1.78,1.3,4.06,2.63,5.55,2.23,2.48,4.96,4.5,7.48,6.7,3.57,3.12,9.69,3.05,13.25-.15,1.22-1.09,2.3-2.39,3.66-3.26,5.65-3.63,7.3-8.33,5.59-14.98-1.85-7.19-2.67-14.65-3.95-22.05-3.18.62-6.18,1.2-9.35,1.81,1.06,6.28,1.67,12.56,3.28,18.58,1.39,5.17.18,8.63-4.14,11.52-1.37.92-2.17,1.39-3.44.05-1.23-1.31-2.81-2.32-3.94-3.7-.72-.87-1.31-2.21-1.24-3.3.19-2.99.78-5.96,1.18-8.94.63-4.74,1.24-9.49,1.86-14.25Z"/>
          </g>
          <rect class="cls-2" x="244.94" y="149.46" width="100.82" height="11.89" rx="5.95" ry="5.95"/>
          <rect class="cls-2" x="315.25" y="173.24" width="30.5" height="11.89" rx="5.95" ry="5.95"/>
          <rect class="cls-2" x="315.25" y="197.02" width="30.5" height="11.89" rx="5.95" ry="5.95"/>
        </g>
      </g>
    </g>
  </g>
</svg>