<?xml version="1.0" encoding="UTF-8"?>
<svg id="Capa_1" data-name="Capa 1" xmlns="http://www.w3.org/2000/svg" version="1.1" viewBox="0 0 200 200">
  <defs>
    <style>
      .cls-1 {
        fill: #da2128;
        stroke-width: 0px;
      }
    </style>
  </defs>
  <path class="cls-1" d="M-.6,151.5c1-2,1.8-4.1,3-5.8,1.8-2.5,3.8-3.3,8.7-4.5.5-4.5.9-8.9,1.7-13.4,3.2-19.5,9.6-37.8,22.4-53.3,2.8-3.4,6.1-6.5,9.3-9.5,1.1-1,1.4-2,1.2-3.4-.3-1.7-.6-3.5-.5-5.3.3-3.6,2.9-6.5,6.2-7.3,3.5-.9,7,.5,9.1,3.5.3.4.6.9.8,1.3,4.9-1.7,9.7-3.4,14.7-5.1-.1-1.5-.2-3.2-.3-4.8-.3-5.6,3.5-9.7,9.2-9.7,10.2,0,20.3,0,30.5,0,5.7,0,9.5,4.1,9.2,9.7,0,1.6-.2,3.3-.3,4.9,4.9,1.7,9.8,3.4,14.7,5.1,1.9-3.4,4.7-5.4,8.9-4.9,4.4.5,8,4.7,7.1,9-.9,4.3.5,6.9,3.6,9.8,11.8,10.9,19.1,24.7,24,39.9,3.3,10.2,5.4,20.6,6.1,31.3,0,.8.2,1.5.3,2.3,1.1.3,2.1.4,3.1.7,5.6,1.7,9.2,7.2,8.6,13-.6,6-5.5,10.6-11.6,11.1-.8,0-1.6,0-2.4,0-41.8,0-83.7,0-125.5,0-.7,0-1.5,0-2.2,0-1.7-.2-2.7-1.6-2.6-3.2.2-1.7,1.2-2.6,2.8-2.7.7,0,1.4,0,2.2,0,41.9,0,83.8,0,125.7,0,1.7,0,3.5-.5,5-1.3,2.4-1.3,3.2-4.3,2.4-6.9-.8-2.8-3.1-4.6-6.1-4.6-3.4,0-6.8,0-10.2,0-9.1,0-18.2,0-27.3,0-.5,0-1,0-1.6,0-2,0-3.2-1.3-3.2-3,0-1.7,1.3-2.9,3.3-2.9,3.4,0,6.8,0,10.2,0,7,0,14,0,21,0h2.4c-2.4-26.8-9.7-51.1-29.7-70.8-.8,5.6-1.4,10.6-2.1,15.6-1.1,8-2.1,16-3.2,23.9-.7,4.9-4.9,8-9.7,7.3-4.5-.7-7.5-5.1-6.9-9.8,2.1-15.3,4.1-30.6,6.2-45.9.2-1.2-.1-1.8-1.2-2.2-4.1-1.6-8.3-3.1-12.7-4.8-.4,4.5-.8,8.5-1.1,12.6-1.1,12.4-2,24.8-3.2,37.2-1,10-9.6,17.5-19.5,17.3-10.1-.3-18.1-7.9-18.9-18-1.3-15.5-2.7-31-4-46.6,0-.6-.2-1.3-.4-2.4-4.8,1.8-9.4,3.5-14,5.2.6,4.6,1.2,8.9,1.8,13.1.2,1.4.2,2.8-1.1,3.7-1.9,1.4-4.3.2-4.7-2.4-.8-5.6-1.5-11.1-2.3-16.7-.3-2.1-1.3-3.1-3-2.8-1.5.3-2.2,1.4-1.9,3.5,2.3,16.8,4.5,33.6,6.8,50.4.3,2.1,1.3,3.1,2.9,2.9,1.6-.2,2.2-1.5,2-3.6-.9-6.9-1.9-13.9-2.8-20.8-.3-2.1.7-3.6,2.4-3.8,1.7-.3,3.1.9,3.4,3,1,7.3,2,14.6,3,22,.5,4.2-2.5,8.3-6.7,9.1-4.4.9-8.9-1.7-9.7-6.2-1-5.4-1.6-10.9-2.3-16.3-1.1-7.9-2.1-15.8-3.3-24.3-20,19.6-27.3,44-29.7,70.8,1,0,1.9,0,2.7,0,38.5,0,77,0,115.5,0,.8,0,1.6,0,2.3.1,1.5.3,2.4,1.4,2.4,2.9,0,1.6-1,2.7-2.7,2.8-.7,0-1.4,0-2.2,0-40.8,0-81.6,0-122.4,0-2.7,0-4.9.7-6.4,3-1.3,2.1-1.4,4.3-.2,6.5,1.3,2.3,3.4,3.4,6,3.4,11.1,0,22.3,0,33.4,0,.7,0,1.3,0,2,0,1.6.1,2.5,1,2.7,2.6.2,1.7-.7,2.8-2.3,3.2-.7.2-1.4.1-2.1.1-10.3,0-20.7,0-31,0-9,0-12-2-15.3-10.2,0-1.4,0-2.9,0-4.3ZM100,39.9c-4.3,0-8.6,0-13,0-5.4,0-5.9.6-5.4,6.1,1.7,18.9,3.4,37.8,5,56.7.6,7.5,6.3,13,13.5,12.9,7.2,0,12.7-5.5,13.3-12.8.7-8.2,1.4-16.3,2.1-24.4,1-11.5,2-22.9,3-34.4.2-2.9-.9-4-3.7-4-4.9,0-9.8,0-14.7,0ZM149,57.3c0-1.3-.8-2.5-2.3-2.6-1.8,0-2.5,1-2.7,2.7-2.3,16.8-4.5,33.7-6.8,50.5-.3,2.1.4,3.4,2,3.6,1.6.2,2.6-.8,2.9-2.9,1.1-8.4,2.3-16.7,3.4-25.1,1.2-8.6,2.3-17.2,3.5-26.2Z"/>
</svg>