<?xml version="1.0" encoding="UTF-8"?>
<svg id="Capa_1" data-name="Capa 1" xmlns="http://www.w3.org/2000/svg" version="1.1" viewBox="0 0 200 200">
  <defs>
    <style>
      .cls-1 {
        fill: #da2128;
        stroke-width: 0px;
      }
    </style>
  </defs>
  <path class="cls-1" d="M68.3,148.5c2.1-1.2,3.8-2.4,5.6-3.3,4.4-2.3,8.9-4.5,13.4-6.7,2-1,2.8-.9,4.3.7,2.7,2.7,5.5,5.5,8.4,8.4,2.7-2.7,5.3-5.3,7.9-8,2.1-2.1,2.6-2.2,5.3-.9,4,2,8.1,4,12.1,6,2.1,1.1,4.2,2.4,6.5,3.8,2-1.3,4.3-2.8,6.5-4.3,2.1-1.4,3-1.3,4.7.4,2.7,2.7,5.4,5.4,8.2,8.3,1.1-1,2.1-2,3-3,1.9-1.9,3.7-3.7,5.6-5.6,1.4-1.4,2.4-1.5,4.1-.4,3.8,2.5,7.6,5,11.4,7.6,3.7,2.6,5.6,6.4,5.7,10.9,0,5,0,10,0,15,0,2.7-.9,3.6-3.7,3.6-27.7,0-55.4,0-83.2,0-23.6,0-47.2,0-70.9,0-3.6,0-4.3-.7-4.3-4.3,0-4.7,0-9.3,0-14,0-4.8,2-8.7,6-11.4,3.6-2.5,7.3-4.9,10.9-7.3,1.7-1.1,2.7-1,4.2.4,2.8,2.8,5.6,5.6,8.6,8.6,1.6-1.7,3.1-3.3,4.7-4.9,1.3-1.3,2.5-2.6,3.8-3.8,1.4-1.4,2.4-1.5,4.1-.4,2.4,1.6,4.8,3.2,6.9,4.6ZM129.7,175.5c0-5.8,0-11.4,0-17,0-3.7-1.6-6.4-4.8-8-4.1-2.1-8.2-4.1-12.3-6.2-.9-.5-1.5-.3-2.2.4-2.6,2.7-5.3,5.3-8,8-1.7,1.7-3,1.7-4.8,0-2.7-2.6-5.3-5.3-8-8-.7-.7-1.2-.9-2.1-.4-4,2.1-8.1,4.1-12.2,6.1-3.4,1.7-5,4.3-5,8.1,0,5.2,0,10.3,0,15.5,0,.5,0,1,0,1.5h59.3ZM135.1,175.5h40.5c0-4.3,0-8.6,0-12.8,0-3-1.3-5.4-3.8-7.1-2.8-1.8-5.5-3.7-8.3-5.6-.8-.5-1.3-.5-2,.2-2.5,2.6-5.1,5.1-7.6,7.6-2,2-3.2,2-5.3,0-2.5-2.5-5.1-5.1-7.7-7.6-.4-.3-1.2-.6-1.6-.3-1.5.8-3,1.8-4.4,2.9-.4.3-.5,1-.5,1.5.1,1.7.5,3.3.5,5,0,5.3,0,10.7,0,16.1ZM64.9,175.5c0-.7,0-1.3,0-1.9,0-5.3-.7-10.8.2-16,.8-4.4-1.2-5.8-4.1-7.5-.9-.5-1.4-.6-2.1.2-2,2.1-4.1,4.2-6.2,6.2-3.9,3.9-4.1,3.9-8,0-2.4-2.4-4.7-4.8-7.1-7.2-3.4,2.3-6.7,4.4-9.9,6.7-2.1,1.5-3.2,3.8-3.2,6.4,0,3.1,0,6.3,0,9.4,0,1.2,0,2.4,0,3.7h40.5Z"/>
  <path class="cls-1" d="M158.8,56.3c-22.9-3.9-42.5-14-58.8-30.5-16.3,16.5-35.9,26.5-58.8,30.5.6,2.9,1.2,5.7,1.9,8.5,2.7,12.2,5.4,24.3,8.1,36.5.5,2.1-.2,3.5-1.9,3.9-1.6.4-2.9-.6-3.4-2.7-3.5-15.8-7.1-31.7-10.6-47.5-.5-2.2.4-3.4,2.7-3.7,15.8-2.3,30.4-8,43.5-17.1,5.8-4,11.3-8.6,16-13.9,1.6-1.8,3.2-1.8,4.9,0,15.8,17,35.3,27.1,58.2,30.8.5,0,1,.2,1.5.3,2.1.4,3,1.6,2.5,3.7-2.2,10.1-4.5,20.3-6.8,30.4-1.3,5.7-2.5,11.4-3.8,17.1-.5,2.1-1.8,3.1-3.4,2.7-1.6-.4-2.3-1.8-1.9-3.9,3.2-14.6,6.5-29.2,9.7-43.8,0-.4.1-.8.2-1.3Z"/>
  <path class="cls-1" d="M100,89.2c11.9,0,21.6,9.7,21.6,21.5,0,11.9-9.7,21.7-21.7,21.7-11.8,0-21.5-9.8-21.5-21.6,0-11.9,9.7-21.6,21.6-21.6ZM100,94.6c-8.9,0-16.2,7.3-16.2,16.2,0,8.9,7.3,16.2,16.2,16.2,8.9,0,16.2-7.3,16.2-16.2,0-8.9-7.3-16.2-16.2-16.2Z"/>
  <path class="cls-1" d="M99.9,62c11.2.3,20.6,4.6,28.9,11.8,5.4,4.7,9.8,10.2,13.6,16.2,1.1,1.7.9,3.2-.5,4.1-1.4.9-2.9.5-4-1.2-4.2-6.5-9-12.5-15.3-17.2-15.6-11.7-33.8-10.7-48.5,2.5-4.3,3.9-7.9,8.2-11.1,13.1-.5.7-.9,1.5-1.5,2.2-1,1.2-2.4,1.4-3.6.5-1.2-.9-1.6-2.1-.8-3.4,8.4-13.3,18.9-24,34.9-27.7,2.6-.6,5.2-.7,7.8-1Z"/>
  <path class="cls-1" d="M48.8,110.8c8.9,0,16.1,7.4,16.1,16.3,0,8.9-7.4,16.1-16.3,16.1-8.9,0-16.1-7.4-16.1-16.3,0-8.9,7.4-16.1,16.3-16ZM48.8,116.2c-6,0-10.9,4.8-10.9,10.8,0,5.9,4.9,10.8,10.8,10.8,5.9,0,10.7-4.8,10.8-10.7,0-6-4.8-10.9-10.7-10.9Z"/>
  <path class="cls-1" d="M151.4,110.8c8.9,0,16.1,7.4,16,16.3,0,8.9-7.4,16.1-16.3,16.1-8.9,0-16.1-7.4-16.1-16.3,0-8.9,7.4-16.1,16.3-16ZM151.3,116.2c-6,0-10.8,4.8-10.8,10.8,0,5.9,4.9,10.8,10.8,10.8,5.9,0,10.7-4.8,10.8-10.7,0-6-4.8-10.9-10.7-10.9Z"/>
</svg>