<?xml version="1.0" encoding="UTF-8"?>
<svg id="Capa_2" data-name="Capa 2" xmlns="http://www.w3.org/2000/svg" viewBox="0 0 503.7 503.7">
  <defs>
    <style>
      .cls-1 {
        fill: #fdf4f4;
        stroke-width: 0px;
      }

      .cls-2 {
        fill: #da2128;
        stroke: #da2128;
        stroke-miterlimit: 10;
        stroke-width: .17px;
      }
    </style>
  </defs>
  <g id="Capa_1-2" data-name="Capa 1">
    <g>
      <circle class="cls-1" cx="251.85" cy="251.85" r="251.85"/>
      <g>
        <path class="cls-2" d="M321.78,118.51c2.95.64,5.96,1.08,8.82,1.97,21.92,6.81,35.42,21.58,38.47,44.25,3.03,22.49-6.09,40.14-25.15,52.51-1.45.94-2.05,1.85-2.03,3.59.1,6.92.05,13.84.04,20.77,0,.84.02,1.7-.13,2.52-.51,2.79-2.67,4.45-5.4,4.24-2.59-.2-4.5-2.1-4.54-4.86-.09-5.91-.04-11.82-.05-17.73,0-.9,0-1.81,0-3.01-8.1,2.22-16.02,2.74-24.39,1.46v3.46c0,34.36,0,68.72,0,103.08,0,9.35-4.68,16.37-12.78,18.86-2.29.7-4.81.92-7.22.92-33.77.06-67.54.04-101.3.04h-3.08c0,3.83-.35,7.55.1,11.16.41,3.29,3.86,5.72,7.32,5.97.76.06,1.52.03,2.28.03,42.97,0,85.94,0,128.91,0,7.11,0,10.15-3.05,10.15-10.18,0-22.03,0-44.07,0-66.1,0-1.01-.04-2.03.09-3.03.28-2.28,2.11-4.01,4.36-4.25,2.26-.24,4.5,1.01,5.21,3.16.36,1.09.45,2.32.45,3.48.02,22.46.04,44.91.01,67.37-.01,11.89-7.81,19.69-19.66,19.69-43.39,0-86.78,0-130.18,0-11.6,0-19.36-7.69-19.52-19.3-.04-2.52,0-5.05,0-7.86-1-.05-1.8-.12-2.6-.12-4.39-.01-8.78.03-13.17-.01-10.11-.1-17.61-6.95-18.65-17-.1-1-.11-2.02-.11-3.03,0-60.36,0-120.72,0-181.08,0-9.37,4.62-16.44,12.67-18.95,2.36-.74,4.97-.94,7.47-.94,41.03-.06,82.06-.05,123.08,0,1.96,0,3.53-.49,5.12-1.61,7.03-4.93,14.83-7.92,23.36-9,.48-.06.93-.29,1.4-.45,3.55,0,7.09,0,10.64,0ZM274.01,139.66c-1.43,0-2.33,0-3.22,0-9.45,0-18.91,0-28.36,0-28.28,0-56.56,0-84.83,0-4.52,0-7.68,1.82-8.82,5.36-.48,1.49-.59,3.15-.59,4.73-.03,60.19-.02,120.37-.02,180.56,0,.68-.02,1.35.03,2.03.35,4.89,3.68,8.1,8.6,8.1,43.98.02,87.96.02,131.94,0,4.81,0,8.08-3.13,8.51-7.92.08-.92.05-1.86.05-2.78,0-34.27-.08-68.54.1-102.81.02-4.05-.95-6.11-4.83-7.86-8.88-4-15.67-10.69-20.9-18.67-1.66.23-3.13.62-4.6.62-29.54.04-59.09.03-88.63.02-4.59,0-6.42-1.84-6.44-6.47-.03-5.91,0-11.82,0-17.73,0-5.89,1.43-7.34,7.3-7.34,26.93,0,53.85,0,80.78,0,1.06,0,2.13,0,3.28,0,.55-11.1,4.17-20.74,10.66-29.85ZM273.48,171.74c0,23.75,19.2,43,42.92,43.05,23.8.05,43.21-19.3,43.22-43.07,0-23.74-19.44-43.11-43.24-43.07-23.68.04-42.9,19.35-42.9,43.09ZM263.17,179.79h-80.89v11h80.89v-11Z"/>
        <path class="cls-2" d="M336.92,261.18c2.76.05,4.99,2.29,4.98,5.02,0,2.78-2.46,5.1-5.28,4.99-2.75-.11-4.85-2.38-4.78-5.17.07-2.79,2.27-4.9,5.08-4.85Z"/>
        <path class="cls-2" d="M222.59,276.78c-14.52,0-29.03,0-43.55,0-1.01,0-2.04,0-3.03-.17-2.32-.42-3.99-2.53-3.99-4.88,0-2.26,1.55-4.32,3.77-4.8,1.14-.25,2.35-.27,3.52-.27,28.95-.01,57.89-.01,86.84,0,1.09,0,2.21.02,3.27.22,2.37.45,3.99,2.5,3.98,4.87,0,2.47-1.75,4.54-4.25,4.9-1,.14-2.02.12-3.03.12-14.52,0-29.03,0-43.55,0Z"/>
        <path class="cls-2" d="M222.72,228.77c-14.6,0-29.2,0-43.8,0-1.01,0-2.04-.02-3.01-.24-2.37-.53-3.94-2.61-3.87-4.96.06-2.45,1.87-4.49,4.36-4.81,1-.13,2.02-.11,3.03-.11,28.86,0,57.73,0,86.59,0,1.01,0,2.03-.02,3.03.11,2.42.31,4.14,2.17,4.32,4.56.19,2.49-1.35,4.66-3.84,5.21-.97.22-2.01.23-3.01.23-14.6.01-29.2,0-43.8,0Z"/>
        <path class="cls-2" d="M222.7,290.73c14.94,0,29.88.02,44.82-.02,2.19,0,4,.57,5.17,2.51,1.83,3.06-.01,6.93-3.61,7.54-.82.14-1.68.09-2.53.09-29.2,0-58.41,0-87.61,0-.59,0-1.18.02-1.77-.02-3.04-.2-5.2-2.38-5.13-5.17.06-2.8,2.26-4.91,5.34-4.92,10.21-.04,20.43-.02,30.64-.02,4.9,0,9.79,0,14.69,0Z"/>
        <path class="cls-2" d="M222.48,252.77c-14.52,0-29.03,0-43.55,0-.76,0-1.52.04-2.28-.04-2.6-.27-4.54-2.35-4.62-4.88-.08-2.5,1.77-4.73,4.35-5.13.83-.13,1.68-.08,2.53-.08,29.2,0,58.41,0,87.61,0,.76,0,1.53-.04,2.28.05,2.74.33,4.66,2.5,4.6,5.14-.07,2.66-2.05,4.7-4.83,4.91-.76.06-1.52.02-2.28.02-14.6,0-29.2,0-43.8,0Z"/>
        <path class="cls-2" d="M311.48,179.68c0-5.52-.03-11.03,0-16.55.02-3.63,1.89-5.81,4.93-5.88,3.1-.07,5.23,2.22,5.24,5.89.04,11.12.04,22.23,0,33.35-.01,2.9-1.39,4.96-3.62,5.53-2.25.57-4.35.1-5.58-1.95-.65-1.09-.91-2.55-.94-3.84-.1-5.51-.04-11.03-.04-16.55Z"/>
        <path class="cls-2" d="M316.6,140.89c2.77.04,5.01,2.3,4.99,5.06-.02,2.74-2.31,5.05-5.03,5.08-2.83.03-5.13-2.35-5.07-5.25.06-2.82,2.27-4.92,5.11-4.89Z"/>
      </g>
    </g>
  </g>
</svg>