<?xml version="1.0" encoding="UTF-8"?>
<svg id="Capa_2" data-name="Capa 2" xmlns="http://www.w3.org/2000/svg" viewBox="0 0 503.7 503.7">
  <defs>
    <style>
      .cls-1 {
        fill: #fdf4f4;
      }

      .cls-1, .cls-2 {
        stroke-width: 0px;
      }

      .cls-2 {
        fill: #da2128;
      }
    </style>
  </defs>
  <g id="Capa_1-2" data-name="Capa 1">
    <g>
      <circle class="cls-1" cx="251.85" cy="251.85" r="251.85"/>
      <g>
        <path class="cls-2" d="M337.85,123.87c2.56.82,5.25,1.37,7.65,2.52,9.86,4.75,15.19,12.66,15.85,23.64.06.93.05,1.87.05,2.8,0,67.65-.03,135.31.04,202.96.01,11.14-4.31,19.7-13.93,25.41-4.33,2.57-9.12,3.52-14.14,3.51-25.13-.02-50.25-.01-75.38-.01-28.69,0-57.38.03-86.07-.01-13.93-.02-24.91-9.08-27.37-22.56-.41-2.23-.4-4.56-.4-6.85-.02-67.23-.02-134.46-.02-201.69,0-16.16,7.49-25.67,23.16-29.43.15-.04.27-.19.4-.29,56.72,0,113.44,0,170.15,0ZM350.58,254.3c0-33.96,0-67.91,0-101.87,0-10.97-6.78-17.74-17.82-17.74-53.31,0-106.62,0-159.93,0-11.18,0-17.86,6.74-17.87,17.95,0,67.74,0,135.49,0,203.23,0,11.33,6.69,18,18.08,18,53.14,0,106.28,0,159.42,0,11.51,0,18.12-6.66,18.12-18.21,0-33.79,0-67.57,0-101.36Z"/>
        <path class="cls-2" d="M252.88,156.47c19.44,0,38.87,0,58.31,0,10.91,0,17.58,6.67,17.61,17.6.02,6.53.04,13.07,0,19.6-.07,10.26-6.84,17.14-17.07,17.15-39.29.04-78.59.04-117.88,0-10.25-.01-17.03-6.88-17.09-17.13-.04-6.79-.06-13.58,0-20.37.09-10.06,6.96-16.85,17.07-16.86,19.69-.02,39.38,0,59.07,0ZM252.65,199.9c19.61,0,39.22.01,58.83,0,4.59,0,6.48-1.94,6.5-6.53.02-6.54.02-13.07,0-19.61-.01-4.32-2.06-6.44-6.39-6.44-39.22-.02-78.44-.02-117.66,0-4.32,0-6.35,2.13-6.36,6.46-.02,6.28,0,12.56,0,18.85,0,5.61,1.66,7.28,7.28,7.28,19.27,0,38.54,0,57.81,0Z"/>
        <path class="cls-2" d="M209.13,327.14c-4.13,4.2-8.05,8.31-12.13,12.27-3.26,3.17-8.2,1.87-9.27-2.31-.59-2.3.36-4.12,1.97-5.71,3.92-3.86,7.82-7.75,11.96-11.87-3.5-3.48-6.84-6.82-10.18-10.15-.78-.78-1.6-1.53-2.32-2.35-2.17-2.47-2.11-5.65.12-7.75,2.13-2.02,5.27-2.04,7.56.17,3.67,3.53,7.22,7.18,10.82,10.77.48.48.98.93,1.66,1.58,3.97-3.97,7.81-8.03,11.91-11.79,1.25-1.14,3.2-1.92,4.9-2.06,2.05-.17,3.67,1.23,4.43,3.23.82,2.16.47,4.19-1.19,5.87-3.33,3.39-6.69,6.75-10.07,10.09-.72.71-1.58,1.28-2.64,2.12,3.64,3.63,6.93,6.9,10.21,10.17.84.84,1.71,1.65,2.5,2.54,2.08,2.33,2.1,5.49.09,7.57-2.12,2.19-5.39,2.3-7.75.04-3.67-3.52-7.22-7.18-10.82-10.78-.48-.47-.98-.92-1.78-1.66Z"/>
        <path class="cls-2" d="M203.87,259.75c-3.77,0-7.23.13-10.69-.03-4.35-.2-6.87-4.22-5.03-7.84,1.13-2.21,3.08-3.05,5.45-3.06,3.3-.02,6.6,0,10.26,0,0-3.67-.05-7.2.02-10.73.04-2.54,1.27-4.37,3.72-5.2,2.35-.79,4.49-.2,5.86,1.81.75,1.1,1.1,2.65,1.17,4.02.16,3.27.05,6.56.05,10.11,3.7,0,7.07-.07,10.44.02,3.66.1,5.92,2.38,5.82,5.66-.1,3.11-2.38,5.17-5.98,5.25-3.3.07-6.6.02-10.29.02,0,3.64-.01,7.08,0,10.52.01,2.45-1.03,4.28-3.27,5.27-3.56,1.57-7.37-.92-7.51-4.97-.12-3.46-.03-6.93-.03-10.83Z"/>
        <path class="cls-2" d="M296.46,248.81c5.26,0,10.51-.03,15.77.02,2.27.02,4.12.96,5.16,3.09.95,1.92.95,4.04-.55,5.45-1.25,1.17-3.15,2.25-4.79,2.28-10.51.2-21.02.15-31.53.08-3.69-.02-5.98-2.28-5.93-5.54.04-3.22,2.35-5.33,6.11-5.37,5.26-.06,10.51-.02,15.77-.01Z"/>
        <path class="cls-2" d="M296.33,308.66c-5.26,0-10.51.05-15.77-.02-3.28-.04-5.49-1.8-5.91-4.49-.55-3.49,1.72-6.35,5.49-6.39,10.76-.11,21.53-.1,32.3,0,3.32.03,5.55,2.45,5.52,5.46-.03,3.01-2.25,5.31-5.61,5.39-5.34.13-10.68.03-16.02.03h0Z"/>
        <path class="cls-2" d="M296.06,330.32c5.26,0,10.51-.05,15.77.02,3.71.04,6.09,2.22,6.13,5.4.03,3.27-2.4,5.49-6.27,5.52-7.37.05-14.75.02-22.13.02-2.71,0-5.43.01-8.14,0-4.39-.02-6.81-1.95-6.84-5.42-.03-3.49,2.41-5.51,6.73-5.53,4.92-.02,9.83,0,14.75,0Z"/>
      </g>
    </g>
  </g>
</svg>