<?xml version="1.0" encoding="UTF-8"?>
<svg id="Capa_2" data-name="Capa 2" xmlns="http://www.w3.org/2000/svg" viewBox="0 0 503.7 503.7">
  <defs>
    <style>
      .cls-1 {
        fill: #fdf4f4;
      }

      .cls-1, .cls-2 {
        stroke-width: 0px;
      }

      .cls-2 {
        fill: #da2128;
      }
    </style>
  </defs>
  <g id="Capa_1-2" data-name="Capa 1">
    <g>
      <circle class="cls-1" cx="251.85" cy="251.85" r="251.85"/>
      <g>
        <path class="cls-2" d="M262.75,401.82c-3.73-2-7.45-4-11.65-6.26-4.16,4.77-10.05,7.27-17.16,5.19-7.11-2.08-10.5-7.33-11.15-13.54-4.12-2.21-8.38-3.5-11.17-6.27-2.72-2.71-3.94-6.93-6.1-11.02-8.44-.93-13.55-6.34-14.64-15.62-14.54-1.26-21.95-18.27-8.86-29.79-14.82-15.05-29.63-30.1-44.47-45.17-1.03.69-1.9,1.36-2.84,1.89-3.54,1.98-7.43,1.59-10.27-1.23-8.2-8.17-16.38-16.36-24.46-24.64-3.76-3.86-3.67-8.44.05-12.35,2.78-2.91,5.63-5.76,8.52-8.56,2.25-2.18,4.77-2.25,6.69-.36,1.88,1.85,1.86,4.5-.3,6.68-2.69,2.71-5.54,5.26-8.34,7.89,8.39,8.11,16.38,15.83,24.01,23.21,17.96-17.62,36.6-35.9,55.24-54.18-8.18-8-16.14-15.78-24.71-24.16-.22.35-.66,1.43-1.42,2.2-10.04,10.17-20.13,20.29-30.21,30.42-.78.78-1.54,1.63-2.46,2.2-1.95,1.21-3.89.96-5.5-.67-1.61-1.63-1.81-3.56-.6-5.51.47-.76,1.16-1.38,1.8-2.02,10.78-10.86,21.56-21.71,32.35-32.55,4.81-4.83,9.22-4.82,14.06.02,7.32,7.34,14.63,14.7,21.94,22.05,5.22,5.25,5.46,8.41.76,15.01,1.72,1.61,3.44,3.4,5.37,4.94.65.52,1.87.67,2.74.51,18.96-3.59,35.89.71,50.83,12.9.3.25.65.43.93.62,3.5-2.35,6.78-4.85,10.33-6.88,12.82-7.33,26.57-9.46,41.05-6.7,1.88.36,3.28.11,4.54-1.4,1.09-1.31,2.39-2.45,3.59-3.67.14-.14.22-.33.42-.63-.53-.76-1.13-1.54-1.64-2.39-2.21-3.66-1.96-7.58.95-10.54,8.18-8.33,16.4-16.62,24.7-24.83,3.53-3.49,8.29-3.48,11.89-.1,2.42,2.27,4.75,4.64,7.02,7.07,1.99,2.12,2.02,4.66.27,6.48-1.78,1.86-4.6,1.86-6.71-.21-2.15-2.11-4.12-4.39-5.82-6.23-8.31,8.16-16.26,15.97-24.45,24.01,18.61,18.22,37.22,36.44,55.67,54.5,7.31-7.22,15.22-15.04,23.37-23.09-.64-.67-1.36-1.46-2.11-2.21-10.71-10.78-21.43-21.56-32.13-32.34-.78-.78-1.63-1.55-2.17-2.49-1.11-1.95-.93-3.94.74-5.51,1.66-1.55,3.63-1.68,5.54-.46.83.53,1.52,1.31,2.23,2.02,11.29,11.34,22.6,22.66,33.83,34.07,1.44,1.47,2.46,3.36,3.67,5.05v4.23c-.89,1.31-1.6,2.79-2.69,3.91-8.18,8.33-16.39,16.63-24.68,24.85-2.92,2.89-6.68,3.15-10.25,1.03-.84-.5-1.64-1.07-2.57-1.69-14.84,15.17-29.6,30.25-44.51,45.5,5.37,5,8.28,10.76,6.07,17.95-2.23,7.25-7.64,10.74-14.92,11.41-.13.5-.22.79-.27,1.08-1.59,8.94-5.12,12.67-14.08,14.49-1.87.38-1.76,1.53-1.96,2.8-.86,5.48-3.8,9.49-8.83,11.76-2.06.93-4.36,1.32-6.6,1.97-.22,1.26-.35,2.56-.68,3.81-1.68,6.42-6.22,9.81-12.32,11.52h-5.44ZM256.86,355.72c4.47,1.41,8.15,3.78,10.01,7.93,2.29,5.1,6.63,8.26,10.49,11.85,2.54,2.36,6.03,1.88,8.49-.45,2.13-2.02,2.57-5.67.92-8.34-.52-.84-1.24-1.58-1.94-2.29-3.47-3.5-6.97-6.98-10.46-10.47-2.94-2.94-3.34-5.41-1.27-7.55,2.08-2.15,4.68-1.8,7.55,1.05,3.57,3.55,7.11,7.12,10.69,10.66,3.32,3.28,7.75,3.65,10.44.91,2.74-2.8,2.47-6.78-.83-10.21-3.63-3.77-7.36-7.45-11.03-11.18-2.6-2.65-2.91-5.02-.95-7.12,1.97-2.11,4.73-1.85,7.36.75,4.08,4.04,8.08,8.15,12.2,12.14,2.24,2.17,5.55,2.31,8.04.59,2.59-1.79,3.67-5.15,2.35-7.99-.58-1.24-1.51-2.37-2.49-3.35-15.99-16.04-32.01-32.04-48.03-48.05-4.43-4.42-8.28-4.4-12.73.07-6.75,6.77-13.41,13.64-20.26,20.31-8.57,8.34-22.7,4.86-26.1-6.4-1.93-6.38-.12-11.87,4.54-16.53,9.81-9.83,19.59-19.69,29.38-29.55.67-.68,1.29-1.41,2.45-2.67-4.79-2.74-9.04-5.65-13.66-7.73-9.73-4.38-19.98-5.24-30.4-2.97-4.44.97-8.12.27-11.16-3.27-1.49-1.73-3.17-3.29-4.29-4.44-14.24,13.94-28.24,27.64-42.32,41.42,15.01,15.24,29.9,30.36,44.81,45.5,4.46-2.85,9.08-3.69,14.01-2.24,5.06,1.49,8.29,5.01,10.31,9.71,10.11-4.67,20.12-.88,23.89,9.65,14.95-2.84,22.82,9.04,19.97,20.27ZM317.7,231.13c-1.04,1.12-2.26,2.33-3.36,3.63-3.56,4.2-7.85,5.12-13.26,4.16-16.21-2.89-31.08.83-43.15,12.02-13.2,12.24-25.61,25.34-38.18,38.24-1.28,1.31-1.85,3.78-1.88,5.72-.03,2.61,1.84,4.41,4.31,5.26,2.89.99,5.34-.04,7.4-2.11,6.61-6.63,13.18-13.29,19.8-19.91,7.91-7.91,17.39-7.96,25.26-.11,12.76,12.72,25.5,25.46,38.25,38.19.77.76,1.58,1.49,2.52,2.37,14.95-15.29,29.77-30.44,44.78-45.78-14.17-13.89-28.16-27.62-42.48-41.66ZM223.61,376.66c.8-.44,2.61-1,3.82-2.17,6.35-6.15,12.59-12.41,18.79-18.72,2.87-2.92,2.9-7.18.28-9.72-2.81-2.73-6.52-2.65-9.69.32-2.13,1.99-4.14,4.1-6.2,6.17-4.26,4.27-8.55,8.5-12.75,12.82-2.11,2.17-2.46,4.8-1.22,7.52,1.14,2.52,3.24,3.74,6.98,3.78ZM259.79,372.11c-.12-3.77-1.41-5.77-3.89-7-2.83-1.4-5.39-.66-7.48,1.36-4.92,4.75-9.76,9.58-14.5,14.5-2.83,2.93-2.7,7.12.03,9.71,2.68,2.54,6.5,2.46,9.46-.42,4.75-4.63,9.47-9.3,14.04-14.11,1.23-1.3,1.85-3.17,2.34-4.04ZM207.38,360.81c.55-.19,1.97-.27,2.74-1.02,5.7-5.51,11.4-11.02,16.8-16.81,2.07-2.22,1.32-6.3-.82-8.25-2.36-2.15-6.36-2.68-8.58-.59-5.47,5.17-10.78,10.51-15.97,15.96-1.87,1.97-1.9,4.59-.65,7.05,1.2,2.34,3.18,3.54,6.47,3.65ZM190.1,345.43c1.94-.68,3.33-.77,4.13-1.51,3.29-3.06,6.64-6.11,9.48-9.56,2.03-2.47,1.19-6.08-1.14-8.16-2.49-2.23-5.93-2.53-8.5-.29-2.94,2.56-5.7,5.36-8.29,8.27-1.82,2.03-2.2,4.77-.63,6.98,1.28,1.79,3.4,2.98,4.95,4.27ZM258.4,388.34c2.32,2.92,4.82,5.16,8.72,4.24,2.53-.6,4.2-2.31,4.69-4.92.77-4.15-1.65-6.66-4.49-8.84-3,3.2-5.86,6.25-8.92,9.51Z"/>
        <path class="cls-2" d="M190.28,154.12c.04-33.96,27.8-61.62,61.76-61.55,33.94.08,61.55,27.87,61.44,61.86-.1,33.97-27.84,61.46-61.91,61.36-33.82-.11-61.33-27.79-61.29-61.67ZM251.77,206.73c29.04.04,52.64-23.49,52.65-52.49.02-28.85-23.48-52.49-52.28-52.6-28.99-.11-52.74,23.44-52.8,52.38-.07,29.03,23.45,52.68,52.43,52.71Z"/>
        <path class="cls-2" d="M167,223.34c-2.44.05-4.42-1.78-4.54-4.22-.13-2.62,1.74-4.64,4.33-4.69,2.56-.04,4.66,1.98,4.62,4.47-.04,2.36-2.05,4.39-4.41,4.44Z"/>
        <path class="cls-2" d="M347.38,218.72c.06,2.62-1.86,4.62-4.43,4.6-2.4-.02-4.42-1.96-4.49-4.33-.08-2.51,1.95-4.56,4.52-4.55,2.52,0,4.35,1.79,4.41,4.28Z"/>
        <path class="cls-2" d="M243.32,167.9c1.2-1.14,2.01-1.87,2.79-2.65,9.6-9.6,19.2-19.2,28.8-28.8.71-.71,1.41-1.47,2.25-1.99,1.96-1.2,3.9-.95,5.5.67,1.61,1.62,1.78,3.57.59,5.51-.51.84-1.27,1.55-1.98,2.26-9.8,9.82-19.61,19.64-29.44,29.44-5.61,5.59-11.15,5.58-16.76-.01-4.42-4.4-8.84-8.8-13.22-13.23-2.48-2.5-2.73-5.16-.78-7.13,2.04-2.05,4.56-1.87,7.12.68,4.98,4.95,9.9,9.96,15.13,15.24Z"/>
      </g>
    </g>
  </g>
</svg>