<?xml version="1.0" encoding="UTF-8"?>
<svg id="Capa_2" data-name="Capa 2" xmlns="http://www.w3.org/2000/svg" viewBox="0 0 503.7 503.7">
  <defs>
    <style>
      .cls-1 {
        fill: #fdf4f4;
      }

      .cls-1, .cls-2 {
        stroke-width: 0px;
      }

      .cls-2 {
        fill: #da2128;
      }
    </style>
  </defs>
  <g id="Capa_1-2" data-name="Capa 1">
    <g>
      <circle class="cls-1" cx="251.85" cy="251.85" r="251.85"/>
      <g>
        <path class="cls-2" d="M302.67,107.46c2.26,1.76,4.71,3.32,6.74,5.31,8.81,8.65,17.44,17.48,26.26,26.13,2.66,2.61,3.82,5.52,3.79,9.21-.1,11.53,0,23.06-.07,34.59-.01,1.75.51,2.75,2.03,3.71,25.5,16.02,40.29,39.06,43.9,68.88,2.65,21.85-2.48,42.16-14.37,60.72-.63.99-1.27,1.97-2.66,3.85.89.48,1.96.78,2.65,1.47,12.81,12.74,25.63,25.48,38.33,38.33,7.83,7.91,5.72,20.74-4.06,25.46-5.38,2.6-13.31,1.87-18.54-3.46-12.52-12.77-25.27-25.33-37.89-38-.7-.7-1.12-1.67-1.63-2.45-2.68,1.68-4.78,2.8-6.61,4.25-.68.53-1.04,1.82-1.05,2.77-.08,7.63-.02,15.25-.05,22.88-.04,9.79-5.63,15.39-15.38,15.39-57.39,0-114.77,0-172.16,0-9.94,0-13.31-2.26-17.08-11.44V118.91c1.68-5.95,5.5-9.76,11.45-11.45,52.14,0,104.28,0,156.42,0ZM297.63,116.91c-.95-.07-1.56-.15-2.18-.15-48.59,0-97.17-.01-145.76,0-3.91,0-5.56,1.74-5.6,5.72-.02,2.54,0,5.09,0,7.63,0,79.92,0,159.84,0,239.75,0,6.28,1.12,7.37,7.5,7.37,7.27,0,14.53,0,21.8,0,50.13,0,100.26,0,150.39,0,4.87,0,6.31-1.44,6.33-6.33.02-5.72.01-11.44,0-17.16,0-.85-.11-1.69-.17-2.63-47.17,19.27-90.49-1.63-111.28-29.27-23-30.57-25.18-72.31-4.94-105.13,10.06-16.31,23.9-28.46,41.44-36.12,24.71-10.79,49.64-10.59,74.76-.42v-30.81c-6.18,0-12.16.07-18.13-.02-6.79-.1-12.29-4.32-13.72-10.67-.47-2.09-.38-4.33-.4-6.5-.05-5.06-.02-10.12-.02-15.27ZM376.68,265.75c.37-45.68-36.99-83.41-83.04-83.86-46.17-.45-83.93,36.68-84.41,82.98-.47,46.11,36.72,83.97,82.97,84.47,46.19.5,84.1-37.01,84.48-83.59ZM376.77,340.34c-3.13,3.14-6.06,6.08-9.07,9.09,8.5,8.51,17.12,17.22,25.84,25.81,2.66,2.62,6.63,2.48,9.09.03,2.46-2.45,2.62-6.41-.01-9.09-8.59-8.73-17.31-17.33-25.85-25.85ZM306.96,124.36c0,3.64-.07,7.44.02,11.23.06,2.55,1.64,4.18,4.04,4.33,3.92.25,7.86.07,11.63.07-5.24-5.21-10.43-10.39-15.69-15.63ZM363.4,327.12c-3.14,3.01-6.12,5.87-9.12,8.75,2.09,2.07,4.27,4.22,6.28,6.2,2.95-2.93,5.94-5.9,8.87-8.81-2.03-2.07-4.17-4.25-6.02-6.14Z"/>
        <path class="cls-2" d="M210.24,140.09c11.08,0,22.16-.08,33.24.03,5.91.06,10.76,4.46,11.66,10.21.94,6-2.26,11.58-7.91,13.56-1.41.49-2.97.79-4.46.79-21.76.05-43.52.06-65.28.02-6.52-.01-11.8-4.65-12.5-10.76-.72-6.27,3.06-11.91,9.16-13.46,1.38-.35,2.86-.39,4.29-.39,10.6-.03,21.2-.02,31.8-.02v.02ZM210,148.28c-1.12,0-2.25,0-3.37,0-9.71,0-19.43-.02-29.14.02-2.58.01-4.24,1.59-4.34,3.87-.1,2.36,1.61,4.12,4.22,4.31.56.04,1.12.01,1.69.01,20.71,0,41.42,0,62.13,0,.8,0,1.62.05,2.4-.09,2.72-.48,4.26-3.18,3.2-5.63-.84-1.94-2.47-2.52-4.51-2.51-10.76.04-21.51.02-32.27.02Z"/>
        <path class="cls-2" d="M190.88,349.36c7.92,0,15.84.02,23.76-.01,1.74,0,3.19.48,4.03,2.57,1.02,2.54.06,5.49-2.16,6.37-.81.32-1.73.36-2.6.36-15.33.02-30.66.02-45.98.01-.59,0-1.18.04-1.76-.06-2.08-.36-3.55-2.42-3.47-4.8.08-2.44,1.61-4.35,3.76-4.38,5.28-.08,10.56-.04,15.84-.04,2.86,0,5.72,0,8.58,0Z"/>
        <path class="cls-2" d="M187.18,195.8c-6.6,0-13.19.01-19.79,0-2.93,0-4.71-1.8-4.69-4.65.02-2.84,1.82-4.63,4.73-4.63,13.19-.01,26.39-.02,39.58,0,3.4,0,5.41,3.06,4.26,6.39-.76,2.21-2.22,2.91-4.08,2.9-6.67-.04-13.34-.02-20.01-.02Z"/>
        <path class="cls-2" d="M181.43,335.32c-4.77,0-9.54.02-14.31,0-2.72-.02-4.48-1.92-4.43-4.7.05-2.68,1.76-4.55,4.35-4.56,9.61-.03,19.22-.03,28.83,0,2.75,0,4.43,1.87,4.39,4.73-.04,2.77-1.65,4.51-4.3,4.53-4.84.03-9.68,0-14.53,0Z"/>
        <path class="cls-2" d="M179.65,209.83c4.18,0,8.36-.03,12.54,0,2.67.02,4.29,1.75,4.34,4.49.05,2.8-1.68,4.76-4.39,4.77-8.36.04-16.72.04-25.08,0-2.68-.01-4.44-2.07-4.35-4.84.09-2.7,1.74-4.4,4.41-4.43,4.18-.03,8.36,0,12.54,0Z"/>
        <path class="cls-2" d="M175.95,242.31c-3,0-6.01.06-9.01-.02-2.62-.07-4.26-1.94-4.24-4.64.02-2.69,1.68-4.59,4.29-4.62,5.93-.07,11.86-.07,17.79,0,2.61.03,4.25,1.97,4.23,4.68-.01,2.72-1.63,4.52-4.28,4.59-2.93.07-5.86.02-8.79.02Z"/>
        <path class="cls-2" d="M175.9,312.07c-3,0-6.01.06-9.01-.02-2.59-.07-4.24-2-4.19-4.71.05-2.6,1.65-4.51,4.12-4.55,6-.08,12.01-.08,18.01,0,2.58.03,4.23,2.03,4.18,4.74-.05,2.72-1.66,4.47-4.33,4.52-2.93.06-5.86.01-8.79.01Z"/>
        <path class="cls-2" d="M173.91,265.55c-2.41,0-4.83.05-7.24-.02-2.36-.07-4.02-2.09-3.97-4.69.04-2.49,1.65-4.5,3.89-4.54,4.9-.08,9.8-.08,14.7,0,2.43.04,3.94,1.99,3.91,4.71-.03,2.72-1.55,4.47-4.04,4.53-2.41.06-4.83.01-7.24,0Z"/>
        <path class="cls-2" d="M174.05,288.88c-2.35,0-4.7.05-7.05-.01-2.58-.07-4.29-1.96-4.3-4.65-.02-2.71,1.67-4.59,4.27-4.61,4.7-.04,9.4-.05,14.1,0,2.56.03,4.06,1.71,4.13,4.43.07,2.83-1.49,4.73-4.09,4.82-2.35.08-4.7.02-7.05.02Z"/>
        <path class="cls-2" d="M367.25,262.5c-.16,41.53-28.76,73.04-67.37,77.03-38.02,3.93-73.94-23.51-80.12-61.2-6.57-40.02,18.14-76.69,57.73-85.44,4.66-1.03,9.52-1.25,14.3-1.6,3.5-.25,5.57,1.55,5.64,4.41.07,2.85-1.91,4.76-5.39,4.81-11.03.15-21.32,2.94-30.96,8.27-24.08,13.31-37.29,41.14-32.4,68.28,4.91,27.25,26.51,48.53,53.63,52.87,36.77,5.87,70.68-19.5,75.3-56.35,4-31.91-16.39-62.31-47.45-70.75-.53-.14-1.05-.29-1.57-.46-2.87-.94-4.31-3.24-3.61-5.77.71-2.55,3.12-3.84,6.04-3.13,11.03,2.69,20.95,7.66,29.57,15.04,17.41,14.9,26.15,33.94,26.66,54Z"/>
        <path class="cls-2" d="M279.2,278.25c.82-1.18,1.28-2.11,1.98-2.8,10.18-10.23,20.36-20.45,30.63-30.58,1.09-1.07,2.7-2.17,4.1-2.21,1.36-.04,3.35.92,3.98,2.05.69,1.25.33,3.22.06,4.8-.13.75-1.1,1.39-1.74,2.03-11.54,11.56-23.09,23.11-34.65,34.65-3.58,3.58-5.54,3.57-9.12.01-2.51-2.5-5.03-4.98-7.5-7.51-2.29-2.35-2.44-4.99-.48-6.97,1.91-1.93,4.72-1.83,6.99.4,1.81,1.78,3.48,3.7,5.76,6.14Z"/>
      </g>
    </g>
  </g>
</svg>