<?xml version="1.0" encoding="UTF-8"?>
<svg id="Capa_2" data-name="Capa 2" xmlns="http://www.w3.org/2000/svg" viewBox="0 0 4636 901.97">
  <defs>
    <style>
      .cls-1 {
        fill: #d1cbc9;
      }

      .cls-1, .cls-2, .cls-3, .cls-4 {
        stroke-width: 0px;
      }

      .cls-5 {
        fill: #fff;
        stroke: #808285;
        stroke-miterlimit: 10;
        stroke-width: 5.34px;
      }

      .cls-2 {
        fill: #003d71;
      }

      .cls-3 {
        fill: #da2128;
      }

      .cls-4 {
        fill: #808285;
      }
    </style>
  </defs>
  <g id="Capa_1-2" data-name="Capa 1">
    <g>
      <polygon class="cls-3" points="2285.32 350.72 2240 455.12 2330.64 455.12 2285.32 350.72"/>
      <path class="cls-3" d="M1554.61,210.43v39.07l.15.19v235.91c0,25.77-5.83,42.69-17.36,50.29-14.22,9.38-34.25,14.15-59.57,14.15-22.01,0-41.38-4.63-57.57-13.75-12.34-6.95-18.61-24.01-18.61-50.68V212.12l-138.02,26.1v252.59c0,34.99,7.09,64.57,21.06,87.92,14.32,23.98,37.63,42.88,69.28,56.17,30.04,12.63,68.34,19.03,113.84,19.03s84.33-7.41,116.31-22.02c33.41-15.26,56.62-34.37,69.06-56.81,12.11-21.9,18-51.17,18-89.51V210.43h-116.57Z"/>
      <polygon class="cls-3" points="2198.56 553.52 2157.3 647.86 2416.16 647.86 2374.12 553.52 2198.56 553.52"/>
      <polygon class="cls-3" points="2423.92 336.53 2562.69 647.85 2562.69 480.66 2747.77 480.66 2747.77 379.94 2562.69 379.94 2562.69 312.89 2797.91 312.89 2797.91 210.43 2423.92 210.43 2423.92 336.53"/>
      <polygon class="cls-3" points="2839.4 647.85 2975.48 647.85 2975.48 210.43 2839.4 236.19 2839.4 647.85"/>
      <polygon class="cls-3" points="3159.56 541.9 3159.56 210.43 3018.48 237.24 3018.48 647.85 3396.56 647.85 3396.56 541.9 3159.56 541.9"/>
      <path class="cls-3" d="M1088.58,375.94l-89.5-16.84c-41.58-7.75-56.39-19.2-56.39-27.35,0-2.92,0-9.77,13.26-17.7,12.24-7.32,31.45-11.03,57.11-11.03,63.16,0,74.68,24.87,78.45,33.04l6.72,14.54,129.76-24.21-8.16-22.77c-11.76-32.83-38.5-58.17-79.5-75.34-37.97-15.89-81.45-23.94-129.23-23.94-58.09,0-106.86,11.81-144.93,35.1-41.33,25.29-62.3,59.86-62.3,102.78,0,21.67,6.07,42.27,18.03,61.21,11.81,18.72,27.76,33.43,47.38,43.68,18.39,9.63,45.19,17.83,81.95,25.05l100.68,19.75c31.24,6.04,39.58,13.12,41.39,15.12,6.35,7.1,7.09,12.71,7.09,16.31,0,2.53,0,10.22-16.59,19.42-14.95,8.3-37.71,12.51-67.69,12.51-63.08,0-99.22-14.77-107.39-43.9l-4.99-17.68-135.02,21.69,8.67,23.51c14.86,40.25,44.95,70.12,89.46,88.79,41.53,17.42,90.34,26.27,145.04,26.27,65.31,0,119.68-12.2,161.61-36.26,45.63-26.18,68.76-63.1,68.76-109.74,0-29.42-11.18-56.44-33.22-80.31-21.78-23.58-61.19-40.48-120.46-51.69"/>
      <polygon class="cls-3" points="2163.52 210.34 2021.22 210.34 2021.22 417.59 1857.79 210.34 1711.27 210.34 1711.27 647.8 1853.56 647.8 1853.56 426.12 2026.86 647.8 2031.26 647.8 2163.52 347.79 2163.52 210.34"/>
      <path class="cls-1" d="M241.69,0L0,139.53l13.85,71.25L241.69,79.24l318.36,183.81v367.61l-59.01,34.07c-16.41,9.47-22.04,30.46-12.56,46.87,9.47,16.41,30.46,22.04,46.87,12.56l93.32-53.87V223.43L241.69,0Z"/>
      <path class="cls-1" d="M296.29,782.95l-54.6,31.52-124.46-71.86,17.35,89.27,107.11,61.84,88.91-51.34c16.41-9.47,22.04-30.45,12.56-46.87-9.47-16.41-30.46-22.04-46.87-12.56"/>
      <path class="cls-2" d="M199.02,597.99c-83.02-22.24-132.29-107.52-110.05-190.53,22.24-83.02,107.57-132.24,190.57-110,82.96,22.24,132.25,107.52,110.01,190.53-22.24,83.02-107.57,132.24-190.53,110M427.69,637.92c32.65-32.28,57.46-73.34,70.2-120.9,38.28-142.85-46.52-289.64-189.31-327.91-107.14-28.71-216.51,11.78-280.66,94.07l77.02,396.21c19.95,11.55,41.7,20.74,65.03,26.99,47.54,12.73,95.51,11.77,139.79-.37l113.12,195.95,117.94-68.1-113.14-195.95Z"/>
      <path class="cls-4" d="M3668.54,297.91l12.82-2.73c1.53,7.26,7.44,10.88,17.68,10.88,4.7,0,8.3-.93,10.8-2.78,2.53-1.86,3.8-4.17,3.8-6.91,0-2.01-.58-3.85-1.73-5.55-1.14-1.69-3.6-3.02-7.35-3.99l-13.99-3.65c-4.79-1.26-8.34-2.67-10.62-4.27-2.26-1.59-4.12-3.83-5.48-6.72-1.4-2.9-2.06-5.99-2.06-9.28,0-6.55,2.41-11.78,7.28-15.73,4.87-3.95,11.07-5.92,18.67-5.92,6.29,0,11.9,1.37,16.84,4.13,4.96,2.74,8.12,6.65,9.47,11.68l-12.53,3.11c-1.94-5.54-6.44-8.31-13.52-8.31-4.12,0-7.24.86-9.42,2.58-2.16,1.72-3.24,3.89-3.24,6.53,0,4.18,3.41,7.12,10.21,8.79l12.4,3.11c7.56,1.89,12.63,4.69,15.2,8.39,2.58,3.7,3.84,7.79,3.84,12.25,0,7.18-2.68,12.84-8.1,16.97-5.43,4.13-12.44,6.2-21.06,6.2-7.26,0-13.61-1.53-19.06-4.56-5.43-3.04-9.05-7.78-10.85-14.21"/>
      <path class="cls-4" d="M3789.18,242.37v47.02c0,6.37-.71,11.26-2.15,14.69-1.42,3.43-4.18,6.39-8.26,8.87-4.12,2.49-9.11,3.72-15.01,3.72s-10.87-1.07-14.72-3.22c-3.84-2.15-6.6-5.08-8.3-8.82-1.65-3.74-2.5-8.5-2.5-14.29v-47.99h13.46v47.02c0,6.43,1.35,10.66,4.05,12.68,2.69,2.02,5.83,3.02,9.4,3.02,4.12,0,7.38-1.08,9.87-3.24,2.45-2.16,3.69-6.32,3.69-12.47v-47.02h10.46Z"/>
      <path class="cls-4" d="M3817.44,275.22h15.61c4.07,0,7.18-.99,9.33-3,2.13-2,3.22-4.66,3.22-7.98,0-3.01-.99-5.58-2.97-7.73-1.98-2.15-5.58-3.22-10.75-3.22h-14.42v21.92ZM3817.44,315.55h-13.19v-73.19h29.97c8.55,0,14.88,2.16,19.01,6.47,4.13,4.31,6.19,9.39,6.19,15.25,0,6.69-2.22,12.1-6.7,16.24-4.47,4.16-10.13,6.23-16.99,6.23h-18.29v29Z"/>
      <polygon class="cls-4" points="3917.6 315.55 3870.04 315.55 3870.04 242.36 3917.12 242.36 3917.12 253.25 3883.23 253.25 3883.23 273.09 3910.46 273.09 3910.46 283.7 3883.23 283.7 3883.23 304.19 3917.6 304.19 3917.6 315.55"/>
      <path class="cls-4" d="M3942.15,274.91h16.41c4.75,0,8.29-.99,10.61-3,2.33-2,3.49-4.75,3.49-8.26,0-3.22-1.17-5.81-3.43-7.8-2.29-1.98-5.49-2.97-9.61-2.97h-17.48v22.04ZM3986.01,315.55h-13.94l-11.36-30.08h-18.56v30.08h-13.19v-73.19h31.75c8.82,0,15.31,2,19.46,5.99,4.16,3.99,6.23,9.14,6.23,15.47,0,9.4-4.4,15.87-13.19,19.41l12.81,32.33Z"/>
      <rect class="cls-4" x="3999.52" y="242.36" width="13.19" height="73.19"/>
      <path class="cls-4" d="M4084.07,315.55h-12.81l-27.77-46.76c-.43-.71-1.12-1.87-2.08-3.48-.44-.71-1.09-1.84-2-3.38v53.62h-10.62v-73.19h14.6l25.62,43.11c.2.36,1.77,2.99,4.68,7.88v-50.99h10.38v73.19Z"/>
      <polygon class="cls-4" points="4125.74 315.55 4111.58 315.55 4111.58 253.68 4092.11 253.68 4092.11 242.36 4145.19 242.36 4145.19 253.68 4125.74 253.68 4125.74 315.55"/>
      <polygon class="cls-4" points="4200.8 315.55 4153.24 315.55 4153.24 242.36 4200.32 242.36 4200.32 253.25 4166.43 253.25 4166.43 273.09 4193.66 273.09 4193.66 283.7 4166.43 283.7 4166.43 304.19 4200.8 304.19 4200.8 315.55"/>
      <path class="cls-4" d="M4267.45,315.55h-12.82l-27.77-46.76c-.43-.71-1.12-1.87-2.08-3.48-.44-.71-1.09-1.84-2-3.38v53.62h-10.62v-73.19h14.6l25.62,43.11c.22.36,1.78,2.99,4.68,7.88v-50.99h10.4v73.19Z"/>
      <path class="cls-4" d="M4296.71,304.77h11.01c5.88,0,10.89-2.21,15-6.65,4.13-4.44,6.19-11.03,6.19-19.79,0-7.14-1.82-13.19-5.39-18.15-3.6-4.94-8.34-7.42-14.23-7.42h-12.57v52.01ZM4283.15,315.55v-73.19h26.97c9.98,0,17.98,3.53,24.03,10.6,6.02,7.05,9.06,15.77,9.06,26.13s-3.13,19.04-9.34,26c-6.21,6.98-15.11,10.46-26.69,10.46h-24.03Z"/>
      <polygon class="cls-4" points="4402.99 315.55 4355.43 315.55 4355.43 242.36 4402.51 242.36 4402.51 253.25 4368.63 253.25 4368.63 273.09 4395.85 273.09 4395.85 283.7 4368.63 283.7 4368.63 304.19 4402.99 304.19 4402.99 315.55"/>
      <path class="cls-4" d="M4469.64,315.55h-12.82l-27.77-46.76c-.44-.71-1.12-1.87-2.08-3.48-.44-.71-1.09-1.84-2-3.38v53.62h-10.64v-73.19h14.62l25.61,43.11c.22.36,1.78,2.99,4.69,7.88v-50.99h10.4v73.19Z"/>
      <path class="cls-4" d="M4526.63,290.14l12.23,1.33c-.8,7.33-3.62,13.37-8.5,18.1-4.89,4.74-11.3,7.1-19.23,7.1-6.67,0-12.1-1.68-16.27-5.03-4.16-3.37-7.37-7.92-9.63-13.67-2.26-5.76-3.37-12.1-3.37-19.04,0-11.15,2.66-20.22,7.94-27.21,5.29-6.98,12.56-10.49,21.81-10.49,7.27,0,13.29,2.24,18.14,6.71,4.82,4.47,7.84,10.87,9.11,19.19l-12.23,1.28c-2.26-11.04-7.22-16.56-14.92-16.56-4.93,0-8.76,2.3-11.49,6.89-2.73,4.59-4.11,11.25-4.11,19.97s1.47,15.57,4.38,20.08c2.95,4.52,6.81,6.79,11.64,6.79,3.88,0,7.17-1.51,9.87-4.56,2.72-3.04,4.26-6.66,4.61-10.88"/>
      <rect class="cls-4" x="4549.31" y="242.36" width="13.19" height="73.19"/>
      <path class="cls-4" d="M4612.51,287.56l-10.68-32.65-10.65,32.65h21.33ZM4636,315.55h-14.08l-5.85-17.42h-28.15l-5.74,17.42h-11.26l24.27-73.19h16.26l24.55,73.19Z"/>
      <path class="cls-4" d="M3731.49,425.36h-12.81l-27.78-46.76c-.42-.71-1.12-1.87-2.08-3.48-.43-.71-1.09-1.84-1.98-3.38v53.62h-10.61v-73.19h14.58l25.63,43.11c.2.36,1.77,2.99,4.66,7.88v-50.99h10.4v73.19Z"/>
      <path class="cls-4" d="M3781.51,397.37l-10.66-32.65-10.66,32.65h21.33ZM3805,425.36h-14.11l-5.83-17.42h-28.15l-5.74,17.42h-11.26l24.3-73.19h16.23l24.57,73.19Z"/>
      <path class="cls-4" d="M3852.29,399.94l12.23,1.33c-.8,7.33-3.62,13.37-8.5,18.1-4.88,4.74-11.29,7.1-19.22,7.1-6.69,0-12.11-1.68-16.28-5.03-4.16-3.37-7.37-7.92-9.62-13.67-2.26-5.76-3.37-12.1-3.37-19.04,0-11.15,2.66-20.22,7.94-27.21,5.27-6.98,12.56-10.47,21.81-10.47,7.26,0,13.29,2.22,18.12,6.7,4.82,4.47,7.85,10.87,9.11,19.19l-12.23,1.28c-2.25-11.04-7.22-16.56-14.91-16.56-4.94,0-8.77,2.3-11.5,6.89-2.73,4.59-4.09,11.25-4.09,19.97s1.46,15.57,4.4,20.08c2.92,4.52,6.79,6.79,11.63,6.79,3.86,0,7.16-1.51,9.86-4.56,2.72-3.04,4.26-6.66,4.61-10.88"/>
      <rect class="cls-4" x="3874.97" y="352.17" width="13.19" height="73.19"/>
      <path class="cls-4" d="M3931.32,415.87c4.75,0,8.78-1.97,12.07-5.9,3.29-3.94,4.93-11.07,4.93-21.4,0-8.39-1.36-14.98-4.08-19.75-2.71-4.78-6.94-7.16-12.65-7.16-11.3,0-16.95,9.09-16.95,27.29,0,8.83,1.45,15.52,4.32,20.08,2.87,4.55,7,6.84,12.35,6.84M3931.22,426.48c-9.72,0-17.3-3.65-22.71-10.94-5.41-7.28-8.12-16.29-8.12-27.02s2.87-19.56,8.63-26.73c5.76-7.17,13.36-10.75,22.79-10.75s17.03,3.58,22.55,10.75c5.53,7.17,8.29,16.13,8.29,26.89,0,11.3-2.86,20.42-8.6,27.36-5.73,6.96-13.34,10.43-22.81,10.43"/>
      <path class="cls-4" d="M4030.2,425.36h-12.81l-27.78-46.76c-.43-.71-1.12-1.87-2.08-3.48-.44-.71-1.09-1.84-2-3.38v53.62h-10.62v-73.19h14.6l25.61,43.11c.23.36,1.79,2.99,4.69,7.88v-50.99h10.4v73.19Z"/>
      <path class="cls-4" d="M4080.21,397.37l-10.66-32.65-10.66,32.65h21.33ZM4103.71,425.36h-14.11l-5.83-17.42h-28.15l-5.74,17.42h-11.26l24.27-73.19h16.25l24.57,73.19Z"/>
      <polygon class="cls-4" points="4157.53 425.36 4112.49 425.36 4112.49 352.17 4126.38 352.17 4126.38 413.4 4157.53 413.4 4157.53 425.36"/>
      <path class="cls-4" d="M4207.87,414.58h11.01c5.88,0,10.89-2.21,15-6.65,4.13-4.44,6.19-11.03,6.19-19.79,0-7.14-1.82-13.19-5.4-18.15-3.58-4.94-8.32-7.42-14.22-7.42h-12.57v52.01ZM4194.31,425.36v-73.19h26.97c9.98,0,17.98,3.53,24.02,10.6,6.04,7.05,9.07,15.77,9.07,26.13s-3.13,19.04-9.34,26c-6.21,6.98-15.12,10.46-26.69,10.46h-24.03Z"/>
      <polygon class="cls-4" points="4314.14 425.36 4266.59 425.36 4266.59 352.17 4313.66 352.17 4313.66 363.06 4279.77 363.06 4279.77 382.9 4307 382.9 4307 393.51 4279.77 393.51 4279.77 414 4314.14 414 4314.14 425.36"/>
      <polygon class="cls-4" points="3689.78 535.17 3676.23 535.17 3676.23 461.97 3722.48 461.97 3722.48 473.3 3689.78 473.3 3689.78 493.29 3715.5 493.29 3715.5 504.28 3689.78 504.28 3689.78 535.17"/>
      <rect class="cls-4" x="3731.97" y="461.98" width="13.19" height="73.19"/>
      <path class="cls-4" d="M3753.59,517.52l12.81-2.73c1.54,7.26,7.43,10.88,17.67,10.88,4.72,0,8.31-.93,10.84-2.78,2.52-1.86,3.77-4.17,3.77-6.91,0-2.01-.57-3.85-1.72-5.55-1.14-1.69-3.6-3.02-7.35-3.99l-14.02-3.65c-4.79-1.26-8.31-2.67-10.61-4.27-2.26-1.59-4.11-3.83-5.48-6.72-1.38-2.9-2.06-5.99-2.06-9.28,0-6.55,2.43-11.78,7.3-15.73,4.85-3.95,11.07-5.92,18.66-5.92,6.29,0,11.91,1.37,16.85,4.13,4.96,2.74,8.11,6.65,9.47,11.68l-12.54,3.11c-1.94-5.54-6.43-8.31-13.51-8.31-4.12,0-7.24.86-9.42,2.58-2.16,1.72-3.24,3.89-3.24,6.53,0,4.18,3.39,7.12,10.19,8.79l12.42,3.11c7.56,1.89,12.62,4.69,15.19,8.39,2.58,3.7,3.84,7.79,3.84,12.25,0,7.18-2.68,12.84-8.1,16.97-5.41,4.13-12.43,6.2-21.05,6.2-7.26,0-13.61-1.53-19.06-4.56-5.44-3.04-9.06-7.78-10.85-14.21"/>
      <path class="cls-4" d="M3864.89,509.75l12.23,1.33c-.79,7.33-3.62,13.37-8.5,18.1-4.88,4.74-11.29,7.1-19.22,7.1-6.69,0-12.11-1.68-16.28-5.03-4.16-3.37-7.37-7.92-9.62-13.67-2.25-5.76-3.36-12.1-3.36-19.04,0-11.15,2.64-20.22,7.94-27.21,5.26-6.98,12.54-10.49,21.8-10.49,7.26,0,13.29,2.24,18.12,6.71,4.82,4.47,7.85,10.87,9.11,19.19l-12.23,1.28c-2.25-11.04-7.22-16.56-14.91-16.56-4.93,0-8.77,2.3-11.5,6.89-2.73,4.59-4.09,11.25-4.09,19.97s1.46,15.57,4.38,20.08c2.94,4.52,6.81,6.79,11.64,6.79,3.86,0,7.16-1.51,9.86-4.56,2.73-3.04,4.26-6.66,4.61-10.88"/>
      <path class="cls-4" d="M3920.97,507.18l-10.66-32.65-10.68,32.65h21.34ZM3944.46,535.17h-14.11l-5.83-17.42h-28.15l-5.74,17.42h-11.26l24.3-73.19h16.24l24.55,73.19Z"/>
      <polygon class="cls-4" points="3998.29 535.17 3953.25 535.17 3953.25 461.97 3967.14 461.97 3967.14 523.21 3998.29 523.21 3998.29 535.17"/>
      <rect class="cls-4" x="4007.99" y="461.98" width="13.19" height="73.19"/>
      <polygon class="cls-4" points="4085.52 523.8 4085.52 535.16 4031.42 535.16 4031.42 524.76 4068.9 472.43 4034.05 472.43 4034.05 461.98 4084.46 461.98 4084.46 472.43 4047.4 523.8 4085.52 523.8"/>
      <path class="cls-4" d="M4129.69,507.18l-10.66-32.65-10.66,32.65h21.33ZM4153.19,535.17h-14.11l-5.83-17.42h-28.15l-5.74,17.42h-11.26l24.3-73.19h16.23l24.57,73.19Z"/>
      <path class="cls-4" d="M4200.48,509.75l12.23,1.33c-.8,7.33-3.62,13.37-8.5,18.1-4.88,4.74-11.29,7.1-19.22,7.1-6.69,0-12.11-1.68-16.28-5.03-4.16-3.37-7.37-7.92-9.62-13.67-2.26-5.76-3.37-12.1-3.37-19.04,0-11.15,2.66-20.22,7.94-27.21,5.27-6.98,12.56-10.49,21.81-10.49,7.26,0,13.29,2.24,18.12,6.71,4.82,4.47,7.85,10.87,9.11,19.19l-12.23,1.28c-2.25-11.04-7.22-16.56-14.91-16.56-4.94,0-8.77,2.3-11.5,6.89-2.73,4.59-4.09,11.25-4.09,19.97s1.46,15.57,4.38,20.08c2.94,4.52,6.8,6.79,11.64,6.79,3.86,0,7.16-1.51,9.86-4.56,2.72-3.04,4.26-6.66,4.61-10.88"/>
      <rect class="cls-4" x="4223.15" y="461.98" width="13.19" height="73.19"/>
      <path class="cls-4" d="M4293.18,438.66l3.55,8.03-22.36,9.44-2.26-5.73,21.07-11.74ZM4279.5,525.68c4.75,0,8.78-1.97,12.07-5.9,3.29-3.94,4.93-11.07,4.93-21.4,0-8.39-1.36-14.98-4.08-19.75-2.71-4.78-6.94-7.16-12.66-7.16-11.29,0-16.94,9.09-16.94,27.29,0,8.83,1.46,15.52,4.32,20.08,2.87,4.55,7,6.84,12.35,6.84M4279.4,536.29c-9.72,0-17.3-3.65-22.71-10.94-5.41-7.28-8.12-16.29-8.12-27.02s2.87-19.56,8.63-26.73c5.76-7.17,13.36-10.75,22.79-10.75s17.03,3.58,22.55,10.75c5.53,7.17,8.29,16.13,8.29,26.89,0,11.3-2.87,20.42-8.6,27.36-5.73,6.96-13.34,10.43-22.81,10.43"/>
      <path class="cls-4" d="M4378.38,535.17h-12.81l-27.78-46.76c-.43-.71-1.12-1.87-2.08-3.48-.44-.71-1.09-1.84-2-3.38v53.62h-10.62v-73.19h14.6l25.61,43.11c.23.36,1.79,2.99,4.69,7.88v-50.99h10.4v73.19Z"/>
      <polygon class="cls-4" points="3721.25 644.97 3676.21 644.97 3676.21 571.78 3690.1 571.78 3690.1 633.01 3721.25 633.01 3721.25 644.97"/>
      <path class="cls-4" d="M3764.89,616.98l-10.66-32.65-10.66,32.65h21.33ZM3788.38,644.97h-14.08l-5.85-17.42h-28.15l-5.74,17.42h-11.25l24.27-73.19h16.24l24.55,73.19Z"/>
      <path class="cls-4" d="M3809.65,633.97h17.07c3.61,0,6.46-.94,8.54-2.83,2.1-1.89,3.14-4.46,3.14-7.68s-1.07-5.59-3.19-7.56c-2.12-1.96-4.94-2.95-8.44-2.95h-17.12v21.02ZM3809.65,602.51h16.1c3.29,0,5.88-.99,7.79-2.95,1.92-1.97,2.87-4.47,2.87-7.51,0-3.36-1.09-5.83-3.27-7.42-2.19-1.59-4.74-2.39-7.66-2.39h-15.84v20.27ZM3797.17,644.97v-73.19h28.52c4.83,0,8.82.51,12,1.51,3.18.99,5.95,3.09,8.27,6.27,2.31,3.19,3.48,6.91,3.48,11.21,0,4.04-1.17,7.55-3.53,10.54-2.39,2.99-5.62,4.89-9.77,5.71,5.16.9,9.05,2.99,11.71,6.28,2.64,3.29,3.96,7.18,3.96,11.68,0,5.66-1.86,10.4-5.55,14.25-3.7,3.84-9.38,5.76-17.07,5.76h-32.01Z"/>
      <path class="cls-4" d="M3890.94,635.49c4.75,0,8.78-1.97,12.07-5.9,3.29-3.94,4.93-11.07,4.93-21.4,0-8.39-1.36-14.98-4.08-19.75-2.71-4.78-6.94-7.16-12.65-7.16-11.3,0-16.95,9.09-16.95,27.29,0,8.83,1.45,15.52,4.32,20.08,2.87,4.55,7,6.84,12.35,6.84M3890.84,646.1c-9.72,0-17.3-3.65-22.71-10.94-5.41-7.28-8.12-16.29-8.12-27.02s2.87-19.56,8.63-26.73c5.76-7.17,13.36-10.75,22.79-10.75s17.03,3.58,22.55,10.75c5.53,7.17,8.29,16.13,8.29,26.89,0,11.3-2.86,20.42-8.6,27.36-5.73,6.96-13.34,10.43-22.81,10.43"/>
      <path class="cls-4" d="M3947.72,604.32h16.41c4.75,0,8.29-.99,10.62-3,2.31-2,3.48-4.75,3.48-8.26,0-3.22-1.16-5.81-3.42-7.8-2.3-1.98-5.5-2.97-9.62-2.97h-17.48v22.04ZM3991.58,644.97h-13.94l-11.35-30.08h-18.57v30.08h-13.18v-73.19h31.75c8.81,0,15.3,2,19.45,5.99,4.16,3.99,6.23,9.14,6.23,15.47,0,9.4-4.38,15.87-13.19,19.41l12.81,32.33Z"/>
      <path class="cls-4" d="M4039.01,616.98l-10.65-32.65-10.66,32.65h21.31ZM4062.53,644.97h-14.11l-5.83-17.42h-28.15l-5.74,17.42h-11.26l24.29-73.19h16.23l24.58,73.19Z"/>
      <polygon class="cls-4" points="4116.35 644.97 4071.31 644.97 4071.31 571.78 4085.2 571.78 4085.2 633.01 4116.35 633.01 4116.35 644.97"/>
      <line class="cls-5" x1="3530.01" y1="154.64" x2="3530.01" y2="704.77"/>
    </g>
  </g>
</svg>