<?xml version="1.0" encoding="UTF-8"?>
<svg id="Capa_2" data-name="Capa 2" xmlns="http://www.w3.org/2000/svg" viewBox="0 0 2075.96 2075.96">
  <defs>
    <style>
      .cls-1 {
        fill: #003dca;
      }

      .cls-1, .cls-2 {
        stroke-width: 0px;
      }

      .cls-2 {
        fill: #e3effb;
      }
    </style>
  </defs>
  <g id="Capa_1-2" data-name="Capa 1">
    <g>
      <rect class="cls-2" width="2075.96" height="2075.96" rx="223.57" ry="223.57"/>
      <g>
        <path class="cls-1" d="M1033.53,1236.08c171.44,0,342.88-.12,514.31.15,20.81.03,41.69,1.47,62.42,3.49,30.11,2.93,60.11,34.5,64.29,66.11,4.65,35.17-5.88,62.54-37.2,82.24-56.76,35.7-119.93,55.43-182.66,76.49-99.82,33.51-203.36,44.88-307.69,51.9-136.36,9.17-272.06,2.73-406.74-19.54-97.49-16.12-190.66-47.59-279.91-89.85-27.79-13.16-56.05-27.37-68.04-59.74-17.97-48.53,18.23-105.48,69.74-108.07,33.95-1.7,67.97-2.97,101.95-3.04,156.5-.31,313.01-.14,469.51-.14ZM1031.3,1306.41c-182.17,0-364.34-.15-546.5.48-8.61.03-21.42,4.8-24.85,11.29-6.15,11.63,7.26,15.13,15.33,19.31,120.8,62.65,250.14,95.09,384.97,106.47,91.57,7.74,183.42,13.21,275.25,4.22,65.78-6.44,132.03-11.25,196.84-23.37,55.32-10.34,109.51-28.22,163.01-46.3,34.8-11.76,67.64-29.49,100.88-45.52,4.37-2.11,9.11-10.87,7.98-14.99-1.28-4.69-8.49-8.98-14.01-10.93-5.34-1.89-11.8-.66-17.77-.66-180.38-.01-360.75-.01-541.13,0Z"/>
        <path class="cls-1" d="M854.74,836.19c0-63.95,1.97-127.97-.54-191.83-2.61-66.49,35.61-121.42,103.01-123.62,49.46-1.62,99.15-2.92,148.49-.06,71.83,4.17,105.07,53.61,104.75,124.12-.56,126.1-.1,252.21-.24,378.31-.01,13.11-.27,26.33-2.01,39.29-2.14,15.93-10.97,25.9-28.41,26.62-21.46.88-30.98-4.55-36.22-23.56-2.18-7.89-2.76-16.43-2.77-24.67-.16-134.47-.1-268.94-.13-403.42-.01-37.74-10.34-48.16-47.75-48.23-38.25-.07-76.5-.02-114.74-.02-45.88,0-54.78,8.7-54.78,53.87-.02,134.47.02,268.94-.01,403.42,0,25.07-9.74,40.22-26.88,42.25-27.48,3.26-41.69-9.19-41.75-37.32-.15-71.72-.05-143.44-.03-215.15Z"/>
        <path class="cls-1" d="M779.88,626.84c0,25.17,1.16,45.37-.75,65.28-.53,5.54-9.36,11.67-15.7,15.07-88.09,47.23-154.49,115.1-196.48,206.07-31.69,68.65-40.67,141.61-39.57,216.4.49,33.28.09,33.29-33.23,33.29-11.11,0-22.23,0-33.73,0-7.29-136.36,15.85-261.29,98.56-370.12,56.81-74.74,128.44-129.86,220.89-165.99Z"/>
        <path class="cls-1" d="M1290.68,626.17c29.99,16.47,61.27,30.99,89.73,49.76,105.6,69.65,173.66,167.16,207.16,288.67,16.83,61.04,17.8,123.87,16.24,186.67-.1,3.9-6.45,7.67-9.97,11.43-.3.32-1.16.09-1.75.16-56.37,6.41-57.56,6.38-56.1-49.64,2.53-97.39-21.17-186.66-77.12-266.98-41.42-59.46-94.39-105.75-158.53-139.02-11.73-6.08-17.02-12.9-16.21-26.2,1-16.51.24-33.12.24-49.69,2.11-1.72,4.21-3.44,6.32-5.16Z"/>
      </g>
    </g>
  </g>
</svg>