<?xml version="1.0" encoding="UTF-8"?>
<svg id="Capa_2" data-name="Capa 2" xmlns="http://www.w3.org/2000/svg" viewBox="0 0 503.7 503.7">
  <defs>
    <style>
      .cls-1 {
        fill: #fdf4f4;
      }

      .cls-1, .cls-2 {
        stroke-width: 0px;
      }

      .cls-2 {
        fill: #da2128;
      }
    </style>
  </defs>
  <g id="Capa_1-2" data-name="Capa 1">
    <g>
      <circle class="cls-1" cx="251.85" cy="251.85" r="251.85"/>
      <path class="cls-2" d="M250.48,300.28c-2.47,0-4.83-1.02-6.52-2.83l-57.56-61.53c-3.37-3.6-3.18-9.26.42-12.63,3.61-3.37,9.26-3.17,12.62.42l51.01,54.52,146.31-157.71c3.35-3.61,9.01-3.83,12.62-.47,3.62,3.35,3.83,9.01.47,12.63l-152.83,164.74c-1.69,1.82-4.05,2.85-6.53,2.86h-.02Z"/>
      <path class="cls-2" d="M256.74,405.48c-84.82,0-153.82-69-153.82-153.82s69.01-153.82,153.82-153.82c23.44,0,45.95,5.14,66.91,15.28,4.44,2.15,6.3,7.49,4.15,11.93-2.15,4.44-7.49,6.29-11.93,4.15-18.51-8.96-38.4-13.5-59.13-13.5-74.97,0-135.96,60.99-135.96,135.96s60.99,135.96,135.96,135.96,135.96-60.99,135.96-135.96c0-12.52-1.74-25.02-5.18-37.13-1.35-4.75,1.41-9.69,6.16-11.03,4.74-1.33,9.69,1.4,11.03,6.16,3.88,13.7,5.86,27.83,5.86,42.01,0,84.82-69.01,153.82-153.82,153.82Z"/>
    </g>
  </g>
</svg>